<?xml version="1.0" encoding="utf-8"?>
<!-- Generator: Adobe Illustrator 21.0.2, SVG Export Plug-In . SVG Version: 6.00 Build 0)  -->
<svg version="1.1" id="Layer_1" xmlns="http://www.w3.org/2000/svg" xmlns:xlink="http://www.w3.org/1999/xlink" x="0px" y="0px"
	 width="1400px" height="980px" viewBox="0 0 1400 980" enable-background="new 0 0 1400 980" xml:space="preserve">
<rect x="419" y="33" fill="#F07F23" width="562" height="93"/>
<g>
	<path fill="#FFFFFF" d="M480,97.1h-4.2c-0.5,0-0.9-0.1-1.2-0.4c-0.3-0.2-0.5-0.5-0.7-0.9l-3.2-8.5h-16.2l-3.2,8.5
		c-0.1,0.3-0.3,0.6-0.7,0.9s-0.7,0.4-1.2,0.4h-4.2l14.6-36.8h5.5L480,97.1z M469.3,83.4l-5.5-14.3c-0.4-1-0.8-2.2-1.2-3.7
		c-0.2,0.7-0.4,1.4-0.6,2c-0.2,0.6-0.4,1.2-0.6,1.7l-5.4,14.2H469.3z"/>
	<path fill="#FFFFFF" d="M503.6,66.3c-0.2,0.3-0.4,0.5-0.5,0.6s-0.4,0.2-0.7,0.2c-0.3,0-0.7-0.1-1-0.4s-0.9-0.6-1.5-0.9
		s-1.3-0.7-2.1-0.9c-0.8-0.3-1.8-0.4-2.9-0.4c-1.1,0-2,0.1-2.8,0.4c-0.8,0.3-1.5,0.7-2,1.2s-1,1.1-1.2,1.7s-0.4,1.4-0.4,2.1
		c0,1,0.3,1.8,0.8,2.5c0.5,0.6,1.2,1.2,2,1.7c0.8,0.5,1.7,0.9,2.8,1.2c1,0.3,2.1,0.7,3.2,1.1c1.1,0.4,2.2,0.8,3.2,1.3
		c1,0.5,2,1.1,2.8,1.8c0.8,0.7,1.5,1.6,2,2.7c0.5,1,0.8,2.3,0.8,3.9c0,1.6-0.3,3.1-0.8,4.6c-0.6,1.4-1.4,2.7-2.4,3.7
		c-1.1,1.1-2.4,1.9-3.9,2.5c-1.5,0.6-3.3,0.9-5.3,0.9c-1.2,0-2.3-0.1-3.4-0.3c-1.1-0.2-2.2-0.6-3.1-1c-1-0.4-1.9-0.9-2.8-1.5
		c-0.9-0.6-1.6-1.2-2.3-2l1.6-2.6c0.2-0.2,0.3-0.4,0.6-0.5c0.2-0.1,0.5-0.2,0.7-0.2c0.4,0,0.8,0.2,1.2,0.6c0.5,0.4,1,0.8,1.7,1.2
		s1.5,0.9,2.5,1.2c1,0.4,2.1,0.6,3.5,0.6c1.1,0,2.1-0.1,3-0.4c0.9-0.3,1.6-0.7,2.2-1.3c0.6-0.6,1.1-1.2,1.4-2
		c0.3-0.8,0.5-1.7,0.5-2.6c0-1.1-0.2-2-0.7-2.6s-1.2-1.3-2-1.7c-0.8-0.5-1.7-0.9-2.8-1.2s-2.1-0.7-3.2-1c-1.1-0.3-2.2-0.8-3.2-1.2
		c-1-0.5-2-1.1-2.8-1.8c-0.8-0.7-1.5-1.7-2-2.8c-0.5-1.1-0.7-2.5-0.7-4.1c0-1.3,0.3-2.6,0.8-3.8s1.3-2.3,2.2-3.3
		c1-0.9,2.2-1.7,3.6-2.3c1.4-0.6,3.1-0.9,4.9-0.9c2.1,0,4,0.3,5.7,1c1.7,0.7,3.2,1.6,4.5,2.8L503.6,66.3z"/>
	<path fill="#FFFFFF" d="M537.5,64.9h-11.7v32.2h-5.4V64.9h-11.7v-4.6h28.8V64.9z"/>
	<path fill="#FFFFFF" d="M572.9,60.4v36.8h-5.5V80.5h-19.2v16.6h-5.5V60.4h5.5v16.2h19.2V60.4H572.9z"/>
	<path fill="#FFFFFF" d="M620.6,60.4v36.8h-4.8V71c0-0.4,0-0.8,0-1.3s0.1-0.9,0.1-1.4l-12.2,22.4c-0.4,0.8-1.1,1.3-2,1.3H601
		c-0.9,0-1.5-0.4-1.9-1.3l-12.5-22.5c0.1,1,0.2,1.9,0.2,2.7v26.2H582V60.4h4c0.5,0,0.8,0,1.1,0.1s0.5,0.4,0.8,0.8l12.3,22
		c0.2,0.4,0.5,0.9,0.7,1.4c0.2,0.5,0.4,1,0.6,1.5c0.4-1,0.8-2,1.3-2.9l12.1-22c0.2-0.4,0.5-0.7,0.7-0.8c0.3-0.1,0.6-0.1,1.1-0.1
		H620.6z"/>
	<path fill="#FFFFFF" d="M660,97.1h-4.2c-0.5,0-0.9-0.1-1.2-0.4c-0.3-0.2-0.5-0.5-0.7-0.9l-3.2-8.5h-16.2l-3.2,8.5
		c-0.1,0.3-0.3,0.6-0.7,0.9s-0.7,0.4-1.2,0.4h-4.2l14.6-36.8h5.5L660,97.1z M649.3,83.4l-5.5-14.3c-0.4-1-0.8-2.2-1.2-3.7
		c-0.2,0.7-0.4,1.4-0.6,2c-0.2,0.6-0.4,1.2-0.6,1.7l-5.4,14.2H649.3z"/>
	<path fill="#FFFFFF" d="M694.8,66.3c-0.2,0.3-0.4,0.5-0.5,0.6s-0.4,0.2-0.7,0.2c-0.3,0-0.7-0.1-1-0.4s-0.9-0.6-1.5-0.9
		s-1.3-0.7-2.1-0.9c-0.8-0.3-1.8-0.4-2.9-0.4c-1.1,0-2,0.1-2.8,0.4c-0.8,0.3-1.5,0.7-2,1.2s-1,1.1-1.2,1.7s-0.4,1.4-0.4,2.1
		c0,1,0.3,1.8,0.8,2.5c0.5,0.6,1.2,1.2,2,1.7c0.8,0.5,1.7,0.9,2.8,1.2c1,0.3,2.1,0.7,3.2,1.1c1.1,0.4,2.2,0.8,3.2,1.3
		c1,0.5,2,1.1,2.8,1.8c0.8,0.7,1.5,1.6,2,2.7c0.5,1,0.8,2.3,0.8,3.9c0,1.6-0.3,3.1-0.8,4.6c-0.6,1.4-1.4,2.7-2.4,3.7
		c-1.1,1.1-2.4,1.9-3.9,2.5c-1.5,0.6-3.3,0.9-5.3,0.9c-1.2,0-2.3-0.1-3.4-0.3c-1.1-0.2-2.2-0.6-3.1-1c-1-0.4-1.9-0.9-2.8-1.5
		c-0.9-0.6-1.6-1.2-2.3-2l1.6-2.6c0.2-0.2,0.3-0.4,0.6-0.5c0.2-0.1,0.5-0.2,0.7-0.2c0.4,0,0.8,0.2,1.2,0.6c0.5,0.4,1,0.8,1.7,1.2
		s1.5,0.9,2.5,1.2c1,0.4,2.1,0.6,3.5,0.6c1.1,0,2.1-0.1,3-0.4c0.9-0.3,1.6-0.7,2.2-1.3c0.6-0.6,1.1-1.2,1.4-2
		c0.3-0.8,0.5-1.7,0.5-2.6c0-1.1-0.2-2-0.7-2.6s-1.2-1.3-2-1.7c-0.8-0.5-1.7-0.9-2.8-1.2s-2.1-0.7-3.2-1c-1.1-0.3-2.2-0.8-3.2-1.2
		c-1-0.5-2-1.1-2.8-1.8c-0.8-0.7-1.5-1.7-2-2.8c-0.5-1.1-0.7-2.5-0.7-4.1c0-1.3,0.3-2.6,0.8-3.8s1.3-2.3,2.2-3.3
		c1-0.9,2.2-1.7,3.6-2.3c1.4-0.6,3.1-0.9,4.9-0.9c2.1,0,4,0.3,5.7,1c1.7,0.7,3.2,1.6,4.5,2.8L694.8,66.3z"/>
	<path fill="#FFFFFF" d="M717.2,82.6v14.5h-5.4V82.6l-13.5-22.2h4.8c0.5,0,0.9,0.1,1.2,0.3s0.5,0.5,0.7,0.9l8,13.7
		c0.3,0.6,0.6,1.2,0.9,1.8s0.5,1.1,0.7,1.7c0.2-0.5,0.4-1.1,0.7-1.7s0.5-1.2,0.9-1.8l8-13.7c0.2-0.3,0.4-0.6,0.7-0.9
		c0.3-0.3,0.7-0.4,1.1-0.4h4.8L717.2,82.6z"/>
	<path fill="#FFFFFF" d="M773.8,60.4v36.8H769V71c0-0.4,0-0.8,0-1.3s0.1-0.9,0.1-1.4l-12.2,22.4c-0.4,0.8-1.1,1.3-2,1.3h-0.8
		c-0.9,0-1.5-0.4-1.9-1.3l-12.5-22.5c0.1,1,0.2,1.9,0.2,2.7v26.2h-4.8V60.4h4c0.5,0,0.8,0,1.1,0.1s0.5,0.4,0.8,0.8l12.3,22
		c0.2,0.4,0.5,0.9,0.7,1.4c0.2,0.5,0.4,1,0.6,1.5c0.4-1,0.8-2,1.3-2.9l12.1-22c0.2-0.4,0.5-0.7,0.7-0.8c0.3-0.1,0.6-0.1,1.1-0.1
		H773.8z"/>
	<path fill="#FFFFFF" d="M794,60.4c2.4,0,4.4,0.3,6.1,0.8c1.7,0.5,3.2,1.3,4.3,2.3c1.1,1,2,2.2,2.5,3.6s0.8,3,0.8,4.7
		c0,1.7-0.3,3.3-0.9,4.7c-0.6,1.4-1.5,2.7-2.6,3.7c-1.2,1-2.6,1.8-4.3,2.4s-3.7,0.9-6,0.9h-5.7v13.5h-5.5V60.4H794z M794,79.3
		c1.4,0,2.6-0.2,3.6-0.5c1-0.4,1.9-0.9,2.6-1.5c0.7-0.7,1.2-1.4,1.6-2.4s0.5-1.9,0.5-3c0-2.2-0.7-4-2.1-5.3
		c-1.4-1.3-3.5-1.9-6.3-1.9h-5.7v14.6H794z"/>
	<path fill="#FFFFFF" d="M838.9,64.9h-11.7v32.2h-5.4V64.9h-11.7v-4.6h28.8V64.9z"/>
	<path fill="#FFFFFF" d="M876.9,78.7c0,2.7-0.4,5.3-1.3,7.6s-2.1,4.3-3.7,5.9c-1.6,1.7-3.5,3-5.8,3.9c-2.2,0.9-4.7,1.4-7.4,1.4
		c-2.7,0-5.2-0.5-7.4-1.4c-2.2-0.9-4.2-2.2-5.8-3.9c-1.6-1.7-2.8-3.6-3.7-5.9c-0.9-2.3-1.3-4.8-1.3-7.6c0-2.7,0.4-5.2,1.3-7.6
		c0.9-2.3,2.1-4.3,3.7-6c1.6-1.7,3.5-3,5.8-3.9c2.2-0.9,4.7-1.4,7.4-1.4c2.7,0,5.2,0.5,7.4,1.4c2.2,0.9,4.2,2.2,5.8,3.9
		c1.6,1.7,2.8,3.6,3.7,6C876.5,73.5,876.9,76,876.9,78.7z M871.3,78.7c0-2.2-0.3-4.1-0.9-5.9c-0.6-1.7-1.4-3.2-2.5-4.4
		s-2.4-2.1-4-2.8c-1.6-0.6-3.3-1-5.2-1c-1.9,0-3.7,0.3-5.2,1c-1.6,0.6-2.9,1.6-4,2.8c-1.1,1.2-2,2.7-2.6,4.4
		c-0.6,1.7-0.9,3.7-0.9,5.9c0,2.2,0.3,4.2,0.9,5.9c0.6,1.7,1.5,3.2,2.6,4.4c1.1,1.2,2.4,2.1,4,2.8c1.6,0.6,3.3,1,5.2,1
		c1.9,0,3.7-0.3,5.2-1c1.6-0.6,2.9-1.6,4-2.8s1.9-2.7,2.5-4.4C871,82.9,871.3,80.9,871.3,78.7z"/>
	<path fill="#FFFFFF" d="M922.4,60.4v36.8h-4.8V71c0-0.4,0-0.8,0-1.3s0.1-0.9,0.1-1.4l-12.2,22.4c-0.4,0.8-1.1,1.3-2,1.3h-0.8
		c-0.9,0-1.5-0.4-1.9-1.3l-12.5-22.5c0.1,1,0.2,1.9,0.2,2.7v26.2h-4.8V60.4h4c0.5,0,0.8,0,1.1,0.1s0.5,0.4,0.8,0.8l12.3,22
		c0.2,0.4,0.5,0.9,0.7,1.4c0.2,0.5,0.4,1,0.6,1.5c0.4-1,0.8-2,1.3-2.9l12.1-22c0.2-0.4,0.5-0.7,0.7-0.8c0.3-0.1,0.6-0.1,1.1-0.1
		H922.4z"/>
	<path fill="#FFFFFF" d="M950.5,66.3c-0.2,0.3-0.4,0.5-0.5,0.6s-0.4,0.2-0.7,0.2c-0.3,0-0.7-0.1-1-0.4s-0.9-0.6-1.5-0.9
		s-1.3-0.7-2.1-0.9c-0.8-0.3-1.8-0.4-2.9-0.4c-1.1,0-2,0.1-2.8,0.4c-0.8,0.3-1.5,0.7-2,1.2s-1,1.1-1.2,1.7s-0.4,1.4-0.4,2.1
		c0,1,0.3,1.8,0.8,2.5c0.5,0.6,1.2,1.2,2,1.7c0.8,0.5,1.7,0.9,2.8,1.2c1,0.3,2.1,0.7,3.2,1.1c1.1,0.4,2.2,0.8,3.2,1.3
		c1,0.5,2,1.1,2.8,1.8c0.8,0.7,1.5,1.6,2,2.7c0.5,1,0.8,2.3,0.8,3.9c0,1.6-0.3,3.1-0.8,4.6c-0.6,1.4-1.4,2.7-2.4,3.7
		c-1.1,1.1-2.4,1.9-3.9,2.5c-1.5,0.6-3.3,0.9-5.3,0.9c-1.2,0-2.3-0.1-3.4-0.3c-1.1-0.2-2.2-0.6-3.1-1c-1-0.4-1.9-0.9-2.8-1.5
		c-0.9-0.6-1.6-1.2-2.3-2l1.6-2.6c0.2-0.2,0.3-0.4,0.6-0.5c0.2-0.1,0.5-0.2,0.7-0.2c0.4,0,0.8,0.2,1.2,0.6c0.5,0.4,1,0.8,1.7,1.2
		s1.5,0.9,2.5,1.2c1,0.4,2.1,0.6,3.5,0.6c1.1,0,2.1-0.1,3-0.4c0.9-0.3,1.6-0.7,2.2-1.3c0.6-0.6,1.1-1.2,1.4-2
		c0.3-0.8,0.5-1.7,0.5-2.6c0-1.1-0.2-2-0.7-2.6s-1.2-1.3-2-1.7c-0.8-0.5-1.7-0.9-2.8-1.2s-2.1-0.7-3.2-1c-1.1-0.3-2.2-0.8-3.2-1.2
		c-1-0.5-2-1.1-2.8-1.8c-0.8-0.7-1.5-1.7-2-2.8c-0.5-1.1-0.7-2.5-0.7-4.1c0-1.3,0.3-2.6,0.8-3.8s1.3-2.3,2.2-3.3
		c1-0.9,2.2-1.7,3.6-2.3c1.4-0.6,3.1-0.9,4.9-0.9c2.1,0,4,0.3,5.7,1c1.7,0.7,3.2,1.6,4.5,2.8L950.5,66.3z"/>
</g>
<g>
	<g>
		<g>
			<path fill="#C6661E" d="M275.3,510.6l-105.8,0.1l-0.1-78.8c0-16.5,13.3-29.9,29.9-29.9l46-0.1c16.5,0,29.9,13.3,29.9,29.9
				L275.3,510.6z"/>
			<polygon fill="#FDCDB9" points="269,316.5 273.2,280.2 200.6,271.8 193.4,365.8 189,403.9 234.3,409.1 237.6,380.1 254.4,382 
				265.5,346.5 291.9,340.2 			"/>
			<path fill="#A04A3F" d="M228.8,320.6c0,0-9.5-17.8-17.3-10.5c-7.9,7.3-3.6,19.8,7,29.2c0,0-15.5,22.7-27.5,15.5
				c-12-7.2-23.1-68.4,3.1-96.6c22.2-23.8,51.1-5.9,74.5,3.8s40.8-0.5,40.8-0.5s-15.5,52.8-56.4,32.8S228.8,320.6,228.8,320.6z"/>
			<polygon fill="#D8AE9E" points="237.6,380.1 203.2,376 236.2,392.3 			"/>
			<path fill="#F07F23" d="M262.2,510.7l-105.8,0.1l-0.1-78.8c0-16.5,13.3-29.9,29.9-29.9l46-0.1c16.5,0,29.9,13.3,29.9,29.9
				L262.2,510.7z"/>
			
				<ellipse transform="matrix(0.1157 -0.9933 0.9933 0.1157 -139.6458 571.8821)" fill="#502B1B" cx="251.4" cy="364.4" rx="7.3" ry="6.3"/>
			<path fill="#FDCDB9" d="M312.8,388.4h-28.5v-11.6c0-6.8,5.5-12.4,12.4-12.4h3.8c6.8,0,12.4,5.5,12.4,12.4V388.4z"/>
			<path fill="#FDCDB9" d="M286.2,388.4h-7.6v-13.6c0-2.1,1.7-3.8,3.8-3.8l0,0c2.1,0,3.8,1.7,3.8,3.8V388.4z"/>
			<path fill="#F07F23" d="M294.4,462.7l-16.9,0l-0.1-74.4l36.8,0l0.1,54.4C314.3,453.7,305.4,462.6,294.4,462.7z"/>
			
				<line fill="none" stroke="#502B1B" stroke-width="2" stroke-linecap="round" stroke-miterlimit="10" x1="269.4" y1="362.5" x2="294.8" y2="354.4"/>
			
				<line fill="none" stroke="#502B1B" stroke-width="2" stroke-linecap="round" stroke-miterlimit="10" x1="269.4" y1="373.9" x2="294.8" y2="382"/>
			
				<line fill="none" stroke="#502B1B" stroke-width="2" stroke-linecap="round" stroke-miterlimit="10" x1="269.4" y1="368.4" x2="299.2" y2="368.4"/>
			<polygon fill="#C6661E" points="262.1,469.4 174.6,462.8 262.1,462.7 			"/>
			
				<rect x="178" y="421.9" transform="matrix(1 -1.095750e-03 1.095750e-03 1 -0.4845 0.2577)" fill="#F07F23" width="113.9" height="40.9"/>
		</g>
		<g>
			<path d="M107.4,521.2v5.3h6.3v1.9h-6.3v6.7H105v-15.8h9.8v1.9H107.4z"/>
			<path d="M129.3,535.1h-2.1c-0.4,0-0.7-0.2-0.9-0.5l-3.9-5.5c-0.1-0.2-0.3-0.3-0.4-0.4c-0.1-0.1-0.4-0.1-0.7-0.1h-1.5v6.5h-2.3
				v-15.8h4.6c1,0,1.9,0.1,2.6,0.3c0.7,0.2,1.3,0.5,1.8,0.9c0.5,0.4,0.8,0.8,1.1,1.4c0.2,0.5,0.3,1.2,0.3,1.8c0,0.5-0.1,1.1-0.3,1.6
				c-0.2,0.5-0.4,0.9-0.7,1.3s-0.7,0.7-1.2,1c-0.5,0.3-1,0.5-1.6,0.6c0.3,0.2,0.5,0.4,0.8,0.7L129.3,535.1z M121.9,526.9
				c0.6,0,1.1-0.1,1.6-0.2c0.5-0.1,0.8-0.4,1.1-0.6s0.5-0.6,0.7-1s0.2-0.8,0.2-1.2c0-0.9-0.3-1.6-0.9-2.1s-1.5-0.7-2.7-0.7h-2.2v5.8
				H121.9z"/>
			<path d="M141.1,533.2l0,1.9h-9.8v-15.8h9.8v1.9h-7.4v5h6v1.8h-6v5.1H141.1z"/>
			<path d="M159.2,538.3h-1.9c-0.3,0-0.5,0-0.8-0.1c-0.2-0.1-0.4-0.2-0.6-0.4l-2.7-2.9c-0.8,0.3-1.7,0.4-2.6,0.4
				c-1.2,0-2.2-0.2-3.2-0.6c-1-0.4-1.8-1-2.5-1.7c-0.7-0.7-1.2-1.6-1.6-2.6s-0.6-2.1-0.6-3.3c0-1.2,0.2-2.3,0.6-3.2
				c0.4-1,0.9-1.8,1.6-2.6c0.7-0.7,1.5-1.3,2.5-1.7c1-0.4,2-0.6,3.2-0.6c1.2,0,2.2,0.2,3.2,0.6c1,0.4,1.8,1,2.5,1.7
				c0.7,0.7,1.2,1.6,1.6,2.6c0.4,1,0.6,2.1,0.6,3.2c0,0.7-0.1,1.4-0.2,2.1c-0.2,0.7-0.4,1.3-0.6,1.9c-0.3,0.6-0.6,1.1-1,1.6
				c-0.4,0.5-0.9,0.9-1.4,1.2L159.2,538.3z M145.1,527.2c0,0.9,0.1,1.8,0.4,2.5c0.3,0.7,0.6,1.4,1.1,1.9s1.1,0.9,1.7,1.2
				s1.4,0.4,2.2,0.4s1.6-0.1,2.2-0.4s1.2-0.7,1.7-1.2c0.5-0.5,0.8-1.2,1.1-1.9c0.3-0.7,0.4-1.6,0.4-2.5c0-0.9-0.1-1.8-0.4-2.5
				c-0.3-0.7-0.6-1.4-1.1-1.9c-0.5-0.5-1-0.9-1.7-1.2c-0.7-0.3-1.4-0.4-2.2-0.4s-1.6,0.1-2.2,0.4c-0.7,0.3-1.2,0.7-1.7,1.2
				s-0.8,1.2-1.1,1.9C145.2,525.4,145.1,526.3,145.1,527.2z"/>
			<path d="M167.5,533.2c0.6,0,1.2-0.1,1.7-0.3c0.5-0.2,0.9-0.5,1.3-0.9s0.6-0.8,0.8-1.4c0.2-0.5,0.3-1.1,0.3-1.8v-9.6h2.3v9.6
				c0,0.9-0.1,1.8-0.4,2.6c-0.3,0.8-0.7,1.5-1.3,2c-0.5,0.6-1.2,1-2,1.3s-1.7,0.5-2.7,0.5s-1.9-0.2-2.7-0.5s-1.5-0.8-2-1.3
				c-0.6-0.6-1-1.3-1.3-2c-0.3-0.8-0.4-1.6-0.4-2.6v-9.6h2.3v9.5c0,0.6,0.1,1.2,0.3,1.8c0.2,0.5,0.4,1,0.8,1.4s0.8,0.7,1.3,0.9
				C166.3,533.1,166.9,533.2,167.5,533.2z"/>
			<path d="M187.3,533.2l0,1.9h-9.8v-15.8h9.8v1.9h-7.4v5h6v1.8h-6v5.1H187.3z"/>
			<path d="M203.2,519.3v15.8H202c-0.2,0-0.3,0-0.5-0.1c-0.1-0.1-0.2-0.2-0.4-0.3l-8.9-11.5c0,0.2,0,0.4,0,0.6c0,0.2,0,0.4,0,0.5
				v10.8h-2.1v-15.8h1.2c0.2,0,0.4,0,0.5,0.1c0.1,0,0.2,0.2,0.3,0.3l8.9,11.6c0-0.2,0-0.4,0-0.6c0-0.2,0-0.4,0-0.6v-10.8H203.2z"/>
			<path d="M217.9,521.2h-5v13.8h-2.3v-13.8h-5v-2h12.4V521.2z"/>
			<path d="M236.1,531.7c0.1,0,0.2,0.1,0.3,0.2l0.9,1c-0.6,0.8-1.4,1.4-2.4,1.8c-0.9,0.4-2,0.6-3.3,0.6c-1.1,0-2.2-0.2-3.1-0.6
				c-0.9-0.4-1.7-0.9-2.4-1.7c-0.7-0.7-1.2-1.6-1.5-2.6s-0.5-2.1-0.5-3.3c0-1.2,0.2-2.3,0.6-3.3c0.4-1,0.9-1.8,1.6-2.6
				s1.5-1.3,2.4-1.7c0.9-0.4,2-0.6,3.2-0.6c1.1,0,2.1,0.2,3,0.5c0.9,0.4,1.6,0.9,2.3,1.5l-0.8,1.1c-0.1,0.1-0.1,0.1-0.2,0.2
				c-0.1,0.1-0.2,0.1-0.3,0.1c-0.1,0-0.3-0.1-0.5-0.2c-0.2-0.1-0.4-0.3-0.7-0.5c-0.3-0.2-0.7-0.3-1.1-0.5c-0.4-0.1-1-0.2-1.7-0.2
				c-0.8,0-1.5,0.1-2.2,0.4c-0.7,0.3-1.2,0.7-1.7,1.2c-0.5,0.5-0.8,1.2-1.1,1.9s-0.4,1.6-0.4,2.5c0,1,0.1,1.8,0.4,2.6
				s0.6,1.4,1.1,1.9s1,0.9,1.7,1.2c0.6,0.3,1.3,0.4,2.1,0.4c0.5,0,0.9,0,1.2-0.1c0.4-0.1,0.7-0.1,1-0.2s0.6-0.3,0.9-0.4
				c0.3-0.2,0.5-0.4,0.8-0.6c0.1-0.1,0.1-0.1,0.2-0.1C235.9,531.7,236,531.7,236.1,531.7z"/>
			<path d="M254.1,527.2c0,1.2-0.2,2.3-0.6,3.3c-0.4,1-0.9,1.8-1.6,2.6c-0.7,0.7-1.5,1.3-2.5,1.7c-1,0.4-2,0.6-3.2,0.6
				c-1.2,0-2.2-0.2-3.2-0.6c-1-0.4-1.8-1-2.5-1.7s-1.2-1.6-1.6-2.6s-0.6-2.1-0.6-3.3c0-1.2,0.2-2.3,0.6-3.2c0.4-1,0.9-1.8,1.6-2.6
				s1.5-1.3,2.5-1.7c1-0.4,2-0.6,3.2-0.6c1.2,0,2.2,0.2,3.2,0.6c1,0.4,1.8,1,2.5,1.7c0.7,0.7,1.2,1.6,1.6,2.6
				C253.9,524.9,254.1,526,254.1,527.2z M251.7,527.2c0-0.9-0.1-1.8-0.4-2.5s-0.6-1.4-1.1-1.9s-1-0.9-1.7-1.2
				c-0.7-0.3-1.4-0.4-2.2-0.4s-1.6,0.1-2.2,0.4c-0.7,0.3-1.2,0.7-1.7,1.2c-0.5,0.5-0.8,1.2-1.1,1.9s-0.4,1.6-0.4,2.5
				c0,0.9,0.1,1.8,0.4,2.5s0.6,1.4,1.1,1.9c0.5,0.5,1.1,0.9,1.7,1.2c0.7,0.3,1.4,0.4,2.2,0.4s1.6-0.1,2.2-0.4
				c0.7-0.3,1.2-0.7,1.7-1.2s0.8-1.2,1.1-1.9S251.7,528.1,251.7,527.2z"/>
			<path d="M263.2,533.2c0.6,0,1.2-0.1,1.7-0.3c0.5-0.2,0.9-0.5,1.3-0.9s0.6-0.8,0.8-1.4c0.2-0.5,0.3-1.1,0.3-1.8v-9.6h2.3v9.6
				c0,0.9-0.1,1.8-0.4,2.6c-0.3,0.8-0.7,1.5-1.3,2c-0.5,0.6-1.2,1-2,1.3s-1.7,0.5-2.7,0.5s-1.9-0.2-2.7-0.5s-1.5-0.8-2-1.3
				c-0.6-0.6-1-1.3-1.3-2c-0.3-0.8-0.4-1.6-0.4-2.6v-9.6h2.3v9.5c0,0.6,0.1,1.2,0.3,1.8c0.2,0.5,0.4,1,0.8,1.4s0.8,0.7,1.3,0.9
				C262,533.1,262.6,533.2,263.2,533.2z"/>
			<path d="M286.2,527.4v6.2c-0.8,0.6-1.6,1-2.6,1.3c-0.9,0.3-1.9,0.4-2.9,0.4c-1.3,0-2.4-0.2-3.5-0.6c-1-0.4-1.9-0.9-2.6-1.7
				c-0.7-0.7-1.3-1.6-1.7-2.6c-0.4-1-0.6-2.1-0.6-3.3c0-1.2,0.2-2.3,0.6-3.3c0.4-1,0.9-1.8,1.6-2.6s1.6-1.3,2.6-1.7
				c1-0.4,2.1-0.6,3.4-0.6c0.6,0,1.2,0,1.8,0.1c0.5,0.1,1,0.2,1.5,0.4s0.9,0.4,1.3,0.6c0.4,0.2,0.8,0.5,1.1,0.8l-0.7,1.1
				c-0.1,0.2-0.2,0.3-0.4,0.3c-0.2,0-0.4,0-0.5-0.1c-0.2-0.1-0.4-0.2-0.6-0.4c-0.2-0.1-0.5-0.3-0.8-0.4s-0.7-0.2-1.1-0.3
				c-0.4-0.1-0.9-0.1-1.5-0.1c-0.9,0-1.6,0.1-2.3,0.4s-1.3,0.7-1.8,1.2c-0.5,0.5-0.9,1.2-1.1,1.9c-0.3,0.7-0.4,1.6-0.4,2.5
				c0,1,0.1,1.8,0.4,2.6c0.3,0.8,0.7,1.4,1.2,1.9c0.5,0.5,1.1,0.9,1.9,1.2c0.7,0.3,1.5,0.4,2.4,0.4c0.4,0,0.7,0,1-0.1
				s0.6-0.1,0.9-0.2s0.5-0.2,0.8-0.3c0.3-0.1,0.5-0.2,0.8-0.4v-3.3h-2.3c-0.1,0-0.3,0-0.4-0.1s-0.1-0.2-0.1-0.3v-1.3H286.2z"/>
			<path d="M302.2,519.3v15.8h-2.3V528h-8.2v7.1h-2.4v-15.8h2.4v7h8.2v-7H302.2z"/>
			<path d="M308.5,535.1h-2.4v-15.8h2.4V535.1z"/>
			<path d="M325.3,519.3v15.8h-1.2c-0.2,0-0.3,0-0.5-0.1c-0.1-0.1-0.2-0.2-0.4-0.3l-8.9-11.5c0,0.2,0,0.4,0,0.6c0,0.2,0,0.4,0,0.5
				v10.8h-2.1v-15.8h1.2c0.2,0,0.4,0,0.5,0.1c0.1,0,0.2,0.2,0.3,0.3l8.9,11.6c0-0.2,0-0.4,0-0.6c0-0.2,0-0.4,0-0.6v-10.8H325.3z"/>
			<path d="M342.1,527.4v6.2c-0.8,0.6-1.6,1-2.6,1.3c-0.9,0.3-1.9,0.4-2.9,0.4c-1.3,0-2.4-0.2-3.5-0.6c-1-0.4-1.9-0.9-2.6-1.7
				c-0.7-0.7-1.3-1.6-1.7-2.6c-0.4-1-0.6-2.1-0.6-3.3c0-1.2,0.2-2.3,0.6-3.3c0.4-1,0.9-1.8,1.6-2.6s1.6-1.3,2.6-1.7
				c1-0.4,2.1-0.6,3.4-0.6c0.6,0,1.2,0,1.8,0.1c0.5,0.1,1,0.2,1.5,0.4s0.9,0.4,1.3,0.6c0.4,0.2,0.8,0.5,1.1,0.8l-0.7,1.1
				c-0.1,0.2-0.2,0.3-0.4,0.3c-0.2,0-0.4,0-0.5-0.1c-0.2-0.1-0.4-0.2-0.6-0.4c-0.2-0.1-0.5-0.3-0.8-0.4s-0.7-0.2-1.1-0.3
				c-0.4-0.1-0.9-0.1-1.5-0.1c-0.9,0-1.6,0.1-2.3,0.4s-1.3,0.7-1.8,1.2c-0.5,0.5-0.9,1.2-1.1,1.9c-0.3,0.7-0.4,1.6-0.4,2.5
				c0,1,0.1,1.8,0.4,2.6c0.3,0.8,0.7,1.4,1.2,1.9c0.5,0.5,1.1,0.9,1.9,1.2c0.7,0.3,1.5,0.4,2.4,0.4c0.4,0,0.7,0,1-0.1
				s0.6-0.1,0.9-0.2s0.5-0.2,0.8-0.3c0.3-0.1,0.5-0.2,0.8-0.4v-3.3h-2.3c-0.1,0-0.3,0-0.4-0.1s-0.1-0.2-0.1-0.3v-1.3H342.1z"/>
		</g>
	</g>
	<g>
		<g>
			<polygon fill="#FDCDB9" points="611.1,316.5 615.4,280.2 542.7,271.8 535.5,365.8 531.1,403.9 576.4,409.1 579.8,380.1 
				596.5,382 607.6,346.5 634.1,340.2 			"/>
			<path fill="#A04A3F" d="M570.9,320.6c0,0-9.5-17.8-17.3-10.5c-7.9,7.3-3.6,19.8,7,29.2c0,0-15.5,22.7-27.5,15.5
				c-12-7.2-23.1-68.4,3.1-96.6c22.2-23.8,51.1-5.9,74.5,3.8c23.4,9.7,40.8-0.5,40.8-0.5s-15.5,52.8-56.4,32.8
				C554.1,274.3,570.9,320.6,570.9,320.6z"/>
			
				<ellipse transform="matrix(0.328 -0.9447 0.9447 0.328 53.0404 805.5335)" fill="#502B1B" cx="592.7" cy="365.5" rx="3.6" ry="7.2"/>
			<path fill="#D1D3D4" d="M642.9,368.4C642.9,368.4,642.9,368.4,642.9,368.4c0-0.1,0-0.1,0-0.2c0-4.7-3.8-8.5-8.5-8.5
				c-4.3,0-7.9,3.2-8.5,7.4l-11.1-2l-1.6,8.6l10.1,1.8c-0.7,1.3-1.2,2.7-1.2,4.3c0,4.7,3.8,8.5,8.5,8.5c3.2,0,6-1.8,7.4-4.3
				c1.4,0.9,3,1.5,4.8,1.5c4.7,0,8.5-3.8,8.5-8.5C651.4,372.3,647.6,368.4,642.9,368.4z"/>
			<path fill="#C6661E" d="M617.6,510.6l-105.8,0.1l-0.1-78.8c0-16.5,13.3-29.9,29.9-29.9l46-0.1c16.5,0,29.9,13.3,29.9,29.9
				L617.6,510.6z"/>
			<path fill="#F07F23" d="M604.5,510.7l-105.8,0.1l-0.1-78.8c0-16.5,13.3-29.9,29.9-29.9l46-0.1c16.5,0,29.9,13.3,29.9,29.9
				L604.5,510.7z"/>
			<polygon fill="#D8AE9E" points="579.8,380.1 545.3,376 578.3,392.3 			"/>
			<rect x="498.5" y="445.6" fill="#F07F23" width="32.6" height="57"/>
			<polygon fill="#F07F23" points="540.4,510.7 498.5,502.5 576.1,440.2 596.5,465.7 			"/>
			<path fill="#FDCDB9" d="M591.7,470.3l-17.3-21.6l9.1-7.3c5.3-4.2,13-3.4,17.3,1.9l1.9,2.4c4.2,5.3,3.4,13-1.9,17.3L591.7,470.3z"
				/>
			<path fill="#FDCDB9" d="M576,450.9l-5.5-6.8l9.9-7.9c1.9-1.5,4.6-1.2,6.2,0.7l0,0c1.5,1.9,1.2,4.6-0.7,6.2L576,450.9z"/>
			<polygon fill="#C6661E" points="540.7,468.6 540.7,433.3 546.2,464.2 			"/>
			<polygon fill="#C6661E" points="591.7,470.3 540.4,510.7 550.3,510.7 			"/>
		</g>
		<g>
			<path d="M457.6,521.9c-0.1,0.1-0.2,0.2-0.2,0.3c-0.1,0.1-0.2,0.1-0.3,0.1c-0.1,0-0.3-0.1-0.5-0.2c-0.2-0.1-0.4-0.3-0.6-0.4
				s-0.6-0.3-0.9-0.4s-0.8-0.2-1.3-0.2c-0.5,0-0.9,0.1-1.2,0.2s-0.6,0.3-0.9,0.5s-0.4,0.5-0.5,0.7c-0.1,0.3-0.2,0.6-0.2,0.9
				c0,0.4,0.1,0.8,0.3,1.1c0.2,0.3,0.5,0.5,0.9,0.7c0.4,0.2,0.8,0.4,1.2,0.5s0.9,0.3,1.4,0.5c0.5,0.2,0.9,0.3,1.4,0.5
				s0.8,0.5,1.2,0.8c0.4,0.3,0.6,0.7,0.9,1.1c0.2,0.5,0.3,1,0.3,1.7c0,0.7-0.1,1.3-0.4,2s-0.6,1.1-1,1.6c-0.5,0.5-1,0.8-1.7,1.1
				c-0.7,0.3-1.4,0.4-2.3,0.4c-0.5,0-1,0-1.5-0.1c-0.5-0.1-0.9-0.2-1.4-0.4s-0.8-0.4-1.2-0.6c-0.4-0.3-0.7-0.5-1-0.9l0.7-1.1
				c0.1-0.1,0.1-0.2,0.2-0.2c0.1-0.1,0.2-0.1,0.3-0.1c0.2,0,0.3,0.1,0.5,0.2s0.5,0.3,0.7,0.5c0.3,0.2,0.7,0.4,1.1,0.5
				c0.4,0.2,0.9,0.2,1.5,0.2c0.5,0,0.9-0.1,1.3-0.2c0.4-0.1,0.7-0.3,1-0.5c0.3-0.2,0.5-0.5,0.6-0.9c0.1-0.3,0.2-0.7,0.2-1.1
				c0-0.5-0.1-0.8-0.3-1.1s-0.5-0.5-0.8-0.7c-0.4-0.2-0.8-0.4-1.2-0.5s-0.9-0.3-1.4-0.4s-0.9-0.3-1.4-0.5s-0.8-0.5-1.2-0.8
				s-0.6-0.7-0.8-1.2c-0.2-0.5-0.3-1.1-0.3-1.8c0-0.6,0.1-1.1,0.3-1.6c0.2-0.5,0.5-1,1-1.4c0.4-0.4,0.9-0.7,1.6-1
				c0.6-0.2,1.3-0.4,2.1-0.4c0.9,0,1.7,0.1,2.4,0.4c0.7,0.3,1.4,0.7,1.9,1.2L457.6,521.9z"/>
			<path d="M474.3,519.3v15.8H472V528h-8.2v7.1h-2.4v-15.8h2.4v7h8.2v-7H474.3z"/>
			<path d="M492.9,527.2c0,1.2-0.2,2.3-0.6,3.3c-0.4,1-0.9,1.8-1.6,2.6c-0.7,0.7-1.5,1.3-2.5,1.7c-1,0.4-2,0.6-3.2,0.6
				c-1.2,0-2.2-0.2-3.2-0.6c-1-0.4-1.8-1-2.5-1.7s-1.2-1.6-1.6-2.6s-0.6-2.1-0.6-3.3c0-1.2,0.2-2.3,0.6-3.2c0.4-1,0.9-1.8,1.6-2.6
				s1.5-1.3,2.5-1.7c1-0.4,2-0.6,3.2-0.6c1.2,0,2.2,0.2,3.2,0.6c1,0.4,1.8,1,2.5,1.7c0.7,0.7,1.2,1.6,1.6,2.6
				C492.8,524.9,492.9,526,492.9,527.2z M490.5,527.2c0-0.9-0.1-1.8-0.4-2.5s-0.6-1.4-1.1-1.9s-1-0.9-1.7-1.2
				c-0.7-0.3-1.4-0.4-2.2-0.4s-1.6,0.1-2.2,0.4c-0.7,0.3-1.2,0.7-1.7,1.2c-0.5,0.5-0.8,1.2-1.1,1.9s-0.4,1.6-0.4,2.5
				c0,0.9,0.1,1.8,0.4,2.5s0.6,1.4,1.1,1.9c0.5,0.5,1.1,0.9,1.7,1.2c0.7,0.3,1.4,0.4,2.2,0.4s1.6-0.1,2.2-0.4
				c0.7-0.3,1.2-0.7,1.7-1.2s0.8-1.2,1.1-1.9S490.5,528.1,490.5,527.2z"/>
			<path d="M507.7,535.1h-2.1c-0.4,0-0.7-0.2-0.9-0.5l-3.9-5.5c-0.1-0.2-0.3-0.3-0.4-0.4c-0.1-0.1-0.4-0.1-0.7-0.1h-1.5v6.5h-2.3
				v-15.8h4.6c1,0,1.9,0.1,2.6,0.3c0.7,0.2,1.3,0.5,1.8,0.9c0.5,0.4,0.8,0.8,1.1,1.4c0.2,0.5,0.3,1.2,0.3,1.8c0,0.5-0.1,1.1-0.3,1.6
				c-0.2,0.5-0.4,0.9-0.7,1.3s-0.7,0.7-1.2,1c-0.5,0.3-1,0.5-1.6,0.6c0.3,0.2,0.5,0.4,0.8,0.7L507.7,535.1z M500.4,526.9
				c0.6,0,1.1-0.1,1.6-0.2c0.5-0.1,0.8-0.4,1.1-0.6s0.5-0.6,0.7-1s0.2-0.8,0.2-1.2c0-0.9-0.3-1.6-0.9-2.1s-1.5-0.7-2.7-0.7h-2.2v5.8
				H500.4z"/>
			<path d="M520,521.2h-5v13.8h-2.3v-13.8h-5v-2H520V521.2z"/>
			<path d="M535.2,519.3v15.8H534c-0.2,0-0.3,0-0.5-0.1c-0.1-0.1-0.2-0.2-0.4-0.3l-8.9-11.5c0,0.2,0,0.4,0,0.6c0,0.2,0,0.4,0,0.5
				v10.8h-2.1v-15.8h1.2c0.2,0,0.4,0,0.5,0.1c0.1,0,0.2,0.2,0.3,0.3l8.9,11.6c0-0.2,0-0.4,0-0.6c0-0.2,0-0.4,0-0.6v-10.8H535.2z"/>
			<path d="M548.9,533.2l0,1.9h-9.8v-15.8h9.8v1.9h-7.4v5h6v1.8h-6v5.1H548.9z"/>
			<path d="M560,521.9c-0.1,0.1-0.2,0.2-0.2,0.3c-0.1,0.1-0.2,0.1-0.3,0.1c-0.1,0-0.3-0.1-0.5-0.2c-0.2-0.1-0.4-0.3-0.6-0.4
				s-0.6-0.3-0.9-0.4s-0.8-0.2-1.3-0.2c-0.5,0-0.9,0.1-1.2,0.2s-0.6,0.3-0.9,0.5s-0.4,0.5-0.5,0.7c-0.1,0.3-0.2,0.6-0.2,0.9
				c0,0.4,0.1,0.8,0.3,1.1c0.2,0.3,0.5,0.5,0.9,0.7c0.4,0.2,0.8,0.4,1.2,0.5s0.9,0.3,1.4,0.5c0.5,0.2,0.9,0.3,1.4,0.5
				s0.8,0.5,1.2,0.8c0.4,0.3,0.6,0.7,0.9,1.1c0.2,0.5,0.3,1,0.3,1.7c0,0.7-0.1,1.3-0.4,2s-0.6,1.1-1,1.6c-0.5,0.5-1,0.8-1.7,1.1
				c-0.7,0.3-1.4,0.4-2.3,0.4c-0.5,0-1,0-1.5-0.1c-0.5-0.1-0.9-0.2-1.4-0.4s-0.8-0.4-1.2-0.6c-0.4-0.3-0.7-0.5-1-0.9l0.7-1.1
				c0.1-0.1,0.1-0.2,0.2-0.2c0.1-0.1,0.2-0.1,0.3-0.1c0.2,0,0.3,0.1,0.5,0.2s0.5,0.3,0.7,0.5c0.3,0.2,0.7,0.4,1.1,0.5
				c0.4,0.2,0.9,0.2,1.5,0.2c0.5,0,0.9-0.1,1.3-0.2c0.4-0.1,0.7-0.3,1-0.5c0.3-0.2,0.5-0.5,0.6-0.9c0.1-0.3,0.2-0.7,0.2-1.1
				c0-0.5-0.1-0.8-0.3-1.1s-0.5-0.5-0.8-0.7c-0.4-0.2-0.8-0.4-1.2-0.5s-0.9-0.3-1.4-0.4s-0.9-0.3-1.4-0.5s-0.8-0.5-1.2-0.8
				s-0.6-0.7-0.8-1.2c-0.2-0.5-0.3-1.1-0.3-1.8c0-0.6,0.1-1.1,0.3-1.6c0.2-0.5,0.5-1,1-1.4c0.4-0.4,0.9-0.7,1.6-1
				c0.6-0.2,1.3-0.4,2.1-0.4c0.9,0,1.7,0.1,2.4,0.4c0.7,0.3,1.4,0.7,1.9,1.2L560,521.9z"/>
			<path d="M572,521.9c-0.1,0.1-0.2,0.2-0.2,0.3c-0.1,0.1-0.2,0.1-0.3,0.1c-0.1,0-0.3-0.1-0.5-0.2c-0.2-0.1-0.4-0.3-0.6-0.4
				s-0.6-0.3-0.9-0.4s-0.8-0.2-1.3-0.2c-0.5,0-0.9,0.1-1.2,0.2s-0.6,0.3-0.9,0.5s-0.4,0.5-0.5,0.7c-0.1,0.3-0.2,0.6-0.2,0.9
				c0,0.4,0.1,0.8,0.3,1.1c0.2,0.3,0.5,0.5,0.9,0.7c0.4,0.2,0.8,0.4,1.2,0.5s0.9,0.3,1.4,0.5c0.5,0.2,0.9,0.3,1.4,0.5
				s0.8,0.5,1.2,0.8c0.4,0.3,0.6,0.7,0.9,1.1c0.2,0.5,0.3,1,0.3,1.7c0,0.7-0.1,1.3-0.4,2s-0.6,1.1-1,1.6c-0.5,0.5-1,0.8-1.7,1.1
				c-0.7,0.3-1.4,0.4-2.3,0.4c-0.5,0-1,0-1.5-0.1c-0.5-0.1-0.9-0.2-1.4-0.4s-0.8-0.4-1.2-0.6c-0.4-0.3-0.7-0.5-1-0.9l0.7-1.1
				c0.1-0.1,0.1-0.2,0.2-0.2c0.1-0.1,0.2-0.1,0.3-0.1c0.2,0,0.3,0.1,0.5,0.2s0.5,0.3,0.7,0.5c0.3,0.2,0.7,0.4,1.1,0.5
				c0.4,0.2,0.9,0.2,1.5,0.2c0.5,0,0.9-0.1,1.3-0.2c0.4-0.1,0.7-0.3,1-0.5c0.3-0.2,0.5-0.5,0.6-0.9c0.1-0.3,0.2-0.7,0.2-1.1
				c0-0.5-0.1-0.8-0.3-1.1s-0.5-0.5-0.8-0.7c-0.4-0.2-0.8-0.4-1.2-0.5s-0.9-0.3-1.4-0.4s-0.9-0.3-1.4-0.5s-0.8-0.5-1.2-0.8
				s-0.6-0.7-0.8-1.2c-0.2-0.5-0.3-1.1-0.3-1.8c0-0.6,0.1-1.1,0.3-1.6c0.2-0.5,0.5-1,1-1.4c0.4-0.4,0.9-0.7,1.6-1
				c0.6-0.2,1.3-0.4,2.1-0.4c0.9,0,1.7,0.1,2.4,0.4c0.7,0.3,1.4,0.7,1.9,1.2L572,521.9z"/>
			<path d="M596,527.2c0,1.2-0.2,2.3-0.6,3.3c-0.4,1-0.9,1.8-1.6,2.6c-0.7,0.7-1.5,1.3-2.5,1.7c-1,0.4-2,0.6-3.2,0.6
				c-1.2,0-2.2-0.2-3.2-0.6c-1-0.4-1.8-1-2.5-1.7s-1.2-1.6-1.6-2.6s-0.6-2.1-0.6-3.3c0-1.2,0.2-2.3,0.6-3.2c0.4-1,0.9-1.8,1.6-2.6
				s1.5-1.3,2.5-1.7c1-0.4,2-0.6,3.2-0.6c1.2,0,2.2,0.2,3.2,0.6c1,0.4,1.8,1,2.5,1.7c0.7,0.7,1.2,1.6,1.6,2.6
				C595.9,524.9,596,526,596,527.2z M593.6,527.2c0-0.9-0.1-1.8-0.4-2.5s-0.6-1.4-1.1-1.9s-1-0.9-1.7-1.2c-0.7-0.3-1.4-0.4-2.2-0.4
				s-1.6,0.1-2.2,0.4c-0.7,0.3-1.2,0.7-1.7,1.2c-0.5,0.5-0.8,1.2-1.1,1.9s-0.4,1.6-0.4,2.5c0,0.9,0.1,1.8,0.4,2.5s0.6,1.4,1.1,1.9
				c0.5,0.5,1.1,0.9,1.7,1.2c0.7,0.3,1.4,0.4,2.2,0.4s1.6-0.1,2.2-0.4c0.7-0.3,1.2-0.7,1.7-1.2s0.8-1.2,1.1-1.9
				S593.6,528.1,593.6,527.2z"/>
			<path d="M601.3,521.2v5.3h6.3v1.9h-6.3v6.7H599v-15.8h9.8v1.9H601.3z"/>
			<path d="M621.6,519.3c1,0,1.8,0.1,2.5,0.3c0.7,0.2,1.3,0.5,1.7,0.8c0.5,0.4,0.8,0.8,1,1.3c0.2,0.5,0.3,1.1,0.3,1.7
				c0,0.4-0.1,0.7-0.2,1.1c-0.1,0.4-0.3,0.7-0.5,1s-0.5,0.6-0.9,0.8s-0.8,0.4-1.3,0.6c2.3,0.5,3.4,1.7,3.4,3.6
				c0,0.7-0.1,1.3-0.4,1.8s-0.6,1-1.1,1.4s-1.1,0.7-1.8,0.9s-1.5,0.3-2.4,0.3h-5.7v-15.8H621.6z M618.8,521.1v5.2h2.7
				c1.2,0,2-0.2,2.6-0.7c0.6-0.5,0.8-1.1,0.8-1.9c0-0.9-0.3-1.6-0.8-2c-0.5-0.4-1.4-0.6-2.5-0.6H618.8z M622.1,533.2
				c0.6,0,1.1-0.1,1.5-0.2c0.4-0.1,0.8-0.3,1-0.6c0.3-0.2,0.5-0.5,0.6-0.9c0.1-0.3,0.2-0.7,0.2-1.1c0-0.8-0.3-1.4-0.8-1.9
				c-0.5-0.5-1.4-0.7-2.5-0.7h-3.3v5.3H622.1z"/>
			<path d="M642.6,535.1h-2.1c-0.4,0-0.7-0.2-0.9-0.5l-3.9-5.5c-0.1-0.2-0.3-0.3-0.4-0.4c-0.1-0.1-0.4-0.1-0.7-0.1h-1.5v6.5h-2.3
				v-15.8h4.6c1,0,1.9,0.1,2.6,0.3c0.7,0.2,1.3,0.5,1.8,0.9c0.5,0.4,0.8,0.8,1.1,1.4c0.2,0.5,0.3,1.2,0.3,1.8c0,0.5-0.1,1.1-0.3,1.6
				c-0.2,0.5-0.4,0.9-0.7,1.3s-0.7,0.7-1.2,1c-0.5,0.3-1,0.5-1.6,0.6c0.3,0.2,0.5,0.4,0.8,0.7L642.6,535.1z M635.2,526.9
				c0.6,0,1.1-0.1,1.6-0.2c0.5-0.1,0.8-0.4,1.1-0.6s0.5-0.6,0.7-1s0.2-0.8,0.2-1.2c0-0.9-0.3-1.6-0.9-2.1s-1.5-0.7-2.7-0.7h-2.2v5.8
				H635.2z"/>
			<path d="M654.4,533.2l0,1.9h-9.8v-15.8h9.8v1.9H647v5h6v1.8h-6v5.1H654.4z"/>
			<path d="M670.3,535.1h-1.8c-0.2,0-0.4-0.1-0.5-0.2c-0.1-0.1-0.2-0.2-0.3-0.4l-1.4-3.7h-7l-1.4,3.7c-0.1,0.1-0.1,0.3-0.3,0.4
				c-0.1,0.1-0.3,0.2-0.5,0.2h-1.8l6.3-15.8h2.4L670.3,535.1z M665.7,529.2l-2.3-6.1c-0.2-0.4-0.3-0.9-0.5-1.6
				c-0.1,0.3-0.2,0.6-0.2,0.9c-0.1,0.3-0.2,0.5-0.2,0.7l-2.3,6.1H665.7z"/>
			<path d="M681.5,521.2h-5v13.8h-2.3v-13.8h-5v-2h12.4V521.2z"/>
			<path d="M696.7,519.3v15.8h-2.3V528h-8.2v7.1h-2.4v-15.8h2.4v7h8.2v-7H696.7z"/>
		</g>
	</g>
	<g>
		<g>
			<polygon fill="#FDCDB9" points="902.8,305.2 898.2,269 825.7,278.1 841.2,371.1 845.9,409.1 891.2,403.5 887.5,374.4 
				904.2,372.3 906.6,335.2 930.7,322.8 			"/>
			<path fill="#A04A3F" d="M864.7,318.8c0,0-13.4-15-19.3-6.1c-5.9,8.9,1.2,20.1,13.7,26.7c0,0-9.6,25.8-23,21.6
				s-38.8-60.9-20.1-94.5c15.8-28.4,48.2-18,73.3-14.1s39.5-10.3,39.5-10.3s-2.5,54.9-46.9,45.3S864.7,318.8,864.7,318.8z"/>
			
				<ellipse transform="matrix(9.313706e-02 -0.9957 0.9957 9.313706e-02 457.4641 1216.5994)" fill="#502B1B" cx="896.6" cy="357.2" rx="3.6" ry="7.2"/>
			<path fill="#C6661E" d="M935.2,510.6l-105.8,0.1l-0.1-78.8c0-16.5,13.3-29.9,29.9-29.9l46-0.1c16.5,0,29.9,13.3,29.9,29.9
				L935.2,510.6z"/>
			<path fill="#F07F23" d="M922,510.7l-105.8,0.1l-0.1-78.8c0-16.5,13.3-29.9,29.9-29.9l46-0.1c16.5,0,29.9,13.3,29.9,29.9
				L922,510.7z"/>
			<polygon fill="#D8AE9E" points="887.5,374.4 853.1,378.7 889,386.7 			"/>
			<rect x="816" y="445.6" fill="#F07F23" width="32.6" height="57"/>
			<polygon fill="#F07F23" points="857.9,510.7 816,502.5 893.7,440.2 914.1,465.7 			"/>
			<path fill="#FDCDB9" d="M909.3,470.3L892,448.7l9.1-7.3c5.3-4.2,13-3.4,17.3,1.9l1.9,2.4c4.2,5.3,3.4,13-1.9,17.3L909.3,470.3z"
				/>
			<path fill="#FDCDB9" d="M893.5,450.9L888,444l9.9-7.9c1.9-1.5,4.6-1.2,6.2,0.7l0,0c1.5,1.9,1.2,4.6-0.7,6.2L893.5,450.9z"/>
			<polygon fill="#C6661E" points="858.3,468.6 858.3,433.3 863.8,464.2 			"/>
			<polygon fill="#C6661E" points="909.3,470.3 857.9,510.7 867.8,510.7 			"/>
			<polyline fill="none" stroke="#D33E00" stroke-width="6" stroke-miterlimit="10" points="951.4,286.2 935.6,302.8 954.7,315.4 
				939,332.1 958.1,344.7 942.4,361.4 961.5,374 			"/>
			<polyline fill="none" stroke="#D33E00" stroke-width="6" stroke-miterlimit="10" points="796.3,307.1 780.5,323.7 799.6,336.3 
				783.9,353 803,365.6 787.3,382.3 806.3,394.9 			"/>
		</g>
		<g>
			<path d="M783.6,527.2c0,1.2-0.2,2.3-0.6,3.2c-0.4,1-0.9,1.8-1.6,2.5s-1.5,1.2-2.5,1.6c-1,0.4-2,0.6-3.2,0.6h-5.9v-15.8h5.9
				c1.2,0,2.2,0.2,3.2,0.6c1,0.4,1.8,0.9,2.5,1.6c0.7,0.7,1.2,1.5,1.6,2.5C783.4,524.9,783.6,526,783.6,527.2z M781.2,527.2
				c0-0.9-0.1-1.8-0.4-2.5c-0.3-0.7-0.6-1.4-1.1-1.9c-0.5-0.5-1-0.9-1.7-1.2c-0.7-0.3-1.4-0.4-2.2-0.4h-3.6v12h3.6
				c0.8,0,1.6-0.1,2.2-0.4c0.7-0.3,1.2-0.7,1.7-1.2c0.5-0.5,0.8-1.1,1.1-1.9C781,529,781.2,528.1,781.2,527.2z"/>
			<path d="M788.9,535.1h-2.4v-15.8h2.4V535.1z"/>
			<path d="M795.1,521.2v5.3h6.3v1.9h-6.3v6.7h-2.4v-15.8h9.8v1.9H795.1z"/>
			<path d="M807.6,521.2v5.3h6.3v1.9h-6.3v6.7h-2.4v-15.8h9.8v1.9H807.6z"/>
			<path d="M820,535.1h-2.4v-15.8h2.4V535.1z"/>
			<path d="M834.9,531.7c0.1,0,0.2,0.1,0.3,0.2l0.9,1c-0.6,0.8-1.4,1.4-2.4,1.8s-2,0.6-3.3,0.6c-1.1,0-2.2-0.2-3.1-0.6
				c-0.9-0.4-1.7-0.9-2.4-1.7c-0.7-0.7-1.2-1.6-1.5-2.6s-0.5-2.1-0.5-3.3c0-1.2,0.2-2.3,0.6-3.3c0.4-1,0.9-1.8,1.6-2.6
				s1.5-1.3,2.4-1.7c1-0.4,2-0.6,3.2-0.6c1.1,0,2.1,0.2,3,0.5c0.9,0.4,1.6,0.9,2.3,1.5l-0.8,1.1c-0.1,0.1-0.1,0.1-0.2,0.2
				c-0.1,0.1-0.2,0.1-0.3,0.1c-0.1,0-0.3-0.1-0.5-0.2c-0.2-0.1-0.4-0.3-0.7-0.5c-0.3-0.2-0.7-0.3-1.1-0.5c-0.4-0.1-1-0.2-1.7-0.2
				c-0.8,0-1.5,0.1-2.2,0.4c-0.7,0.3-1.2,0.7-1.7,1.2c-0.5,0.5-0.8,1.2-1.1,1.9c-0.3,0.8-0.4,1.6-0.4,2.5c0,1,0.1,1.8,0.4,2.6
				s0.6,1.4,1.1,1.9s1,0.9,1.7,1.2c0.6,0.3,1.3,0.4,2.1,0.4c0.5,0,0.9,0,1.2-0.1c0.4-0.1,0.7-0.1,1-0.2s0.6-0.3,0.9-0.4
				c0.3-0.2,0.5-0.4,0.8-0.6c0.1-0.1,0.1-0.1,0.2-0.1C834.8,531.7,834.9,531.7,834.9,531.7z"/>
			<path d="M844.7,533.2c0.6,0,1.2-0.1,1.7-0.3c0.5-0.2,0.9-0.5,1.3-0.9c0.3-0.4,0.6-0.8,0.8-1.4c0.2-0.5,0.3-1.1,0.3-1.8v-9.6h2.3
				v9.6c0,0.9-0.1,1.8-0.4,2.6c-0.3,0.8-0.7,1.5-1.3,2c-0.5,0.6-1.2,1-2,1.3s-1.7,0.5-2.7,0.5c-1,0-1.9-0.2-2.7-0.5s-1.5-0.8-2-1.3
				c-0.5-0.6-1-1.3-1.3-2c-0.3-0.8-0.4-1.6-0.4-2.6v-9.6h2.3v9.5c0,0.6,0.1,1.2,0.3,1.8c0.2,0.5,0.4,1,0.8,1.4
				c0.3,0.4,0.8,0.7,1.3,0.9S844.1,533.2,844.7,533.2z"/>
			<path d="M863.8,533.1v2h-9v-15.8h2.3v13.8H863.8z"/>
			<path d="M874.8,521.2h-5v13.8h-2.3v-13.8h-5v-2h12.4V521.2z"/>
			<path d="M887.2,519.3c1,0,1.8,0.1,2.5,0.3c0.7,0.2,1.3,0.5,1.7,0.8c0.5,0.4,0.8,0.8,1,1.3c0.2,0.5,0.3,1.1,0.3,1.7
				c0,0.4-0.1,0.7-0.2,1.1c-0.1,0.4-0.3,0.7-0.5,1s-0.5,0.6-0.9,0.8c-0.4,0.2-0.8,0.4-1.3,0.6c2.3,0.5,3.4,1.7,3.4,3.6
				c0,0.7-0.1,1.3-0.4,1.8s-0.6,1-1.1,1.4s-1.1,0.7-1.8,0.9c-0.7,0.2-1.5,0.3-2.4,0.3H882v-15.8H887.2z M884.4,521.1v5.2h2.7
				c1.2,0,2-0.2,2.6-0.7c0.6-0.5,0.8-1.1,0.8-1.9c0-0.9-0.3-1.6-0.8-2c-0.5-0.4-1.4-0.6-2.5-0.6H884.4z M887.7,533.2
				c0.6,0,1.1-0.1,1.5-0.2c0.4-0.1,0.8-0.3,1-0.6c0.3-0.2,0.5-0.5,0.6-0.9c0.1-0.3,0.2-0.7,0.2-1.1c0-0.8-0.3-1.4-0.8-1.9
				c-0.5-0.5-1.4-0.7-2.5-0.7h-3.3v5.3H887.7z"/>
			<path d="M908.1,535.1h-2.1c-0.4,0-0.7-0.2-0.9-0.5l-3.9-5.5c-0.1-0.2-0.3-0.3-0.4-0.4s-0.4-0.1-0.7-0.1h-1.5v6.5h-2.3v-15.8h4.6
				c1,0,1.9,0.1,2.6,0.3s1.3,0.5,1.8,0.9c0.5,0.4,0.8,0.8,1.1,1.4c0.2,0.5,0.3,1.2,0.3,1.8c0,0.5-0.1,1.1-0.3,1.6
				c-0.2,0.5-0.4,0.9-0.7,1.3s-0.7,0.7-1.2,1c-0.5,0.3-1,0.5-1.6,0.6c0.3,0.2,0.5,0.4,0.8,0.7L908.1,535.1z M900.8,526.9
				c0.6,0,1.1-0.1,1.6-0.2c0.5-0.1,0.8-0.4,1.1-0.6s0.5-0.6,0.7-1c0.2-0.4,0.2-0.8,0.2-1.2c0-0.9-0.3-1.6-0.9-2.1s-1.5-0.7-2.7-0.7
				h-2.2v5.8H900.8z"/>
			<path d="M920,533.2l0,1.9h-9.8v-15.8h9.8v1.9h-7.4v5h6v1.8h-6v5.1H920z"/>
			<path d="M935.9,535.1h-1.8c-0.2,0-0.4-0.1-0.5-0.2c-0.1-0.1-0.2-0.2-0.3-0.4l-1.4-3.7h-7l-1.4,3.7c-0.1,0.1-0.1,0.3-0.3,0.4
				c-0.1,0.1-0.3,0.2-0.5,0.2h-1.8l6.3-15.8h2.4L935.9,535.1z M931.3,529.2l-2.3-6.1c-0.2-0.4-0.3-0.9-0.5-1.6
				c-0.1,0.3-0.2,0.6-0.2,0.9s-0.2,0.5-0.2,0.7l-2.3,6.1H931.3z"/>
			<path d="M947.1,521.2h-5v13.8h-2.3v-13.8h-5v-2h12.4V521.2z"/>
			<path d="M962.3,519.3v15.8h-2.3V528h-8.2v7.1h-2.4v-15.8h2.4v7h8.2v-7H962.3z"/>
			<path d="M968.5,535.1h-2.4v-15.8h2.4V535.1z"/>
			<path d="M985.4,519.3v15.8h-1.2c-0.2,0-0.3,0-0.5-0.1c-0.1-0.1-0.2-0.2-0.4-0.3l-8.9-11.5c0,0.2,0,0.4,0,0.6c0,0.2,0,0.4,0,0.5
				v10.8h-2.1v-15.8h1.2c0.2,0,0.4,0,0.5,0.1c0.1,0,0.2,0.2,0.3,0.3l8.9,11.6c0-0.2,0-0.4,0-0.6c0-0.2,0-0.4,0-0.6v-10.8H985.4z"/>
			<path d="M1002.2,527.4v6.2c-0.8,0.6-1.6,1-2.6,1.3c-0.9,0.3-1.9,0.4-2.9,0.4c-1.3,0-2.4-0.2-3.5-0.6c-1-0.4-1.9-0.9-2.6-1.7
				c-0.7-0.7-1.3-1.6-1.7-2.6c-0.4-1-0.6-2.1-0.6-3.3c0-1.2,0.2-2.3,0.6-3.3c0.4-1,0.9-1.8,1.6-2.6c0.7-0.7,1.6-1.3,2.6-1.7
				c1-0.4,2.1-0.6,3.4-0.6c0.6,0,1.2,0,1.8,0.1c0.5,0.1,1,0.2,1.5,0.4s0.9,0.4,1.3,0.6c0.4,0.2,0.8,0.5,1.1,0.8l-0.7,1.1
				c-0.1,0.2-0.2,0.3-0.4,0.3c-0.2,0-0.4,0-0.5-0.1c-0.2-0.1-0.4-0.2-0.6-0.4s-0.5-0.3-0.8-0.4c-0.3-0.1-0.7-0.2-1.1-0.3
				c-0.4-0.1-0.9-0.1-1.5-0.1c-0.9,0-1.6,0.1-2.3,0.4c-0.7,0.3-1.3,0.7-1.8,1.2c-0.5,0.5-0.9,1.2-1.1,1.9s-0.4,1.6-0.4,2.5
				c0,1,0.1,1.8,0.4,2.6c0.3,0.8,0.7,1.4,1.2,1.9c0.5,0.5,1.1,0.9,1.9,1.2c0.7,0.3,1.5,0.4,2.4,0.4c0.4,0,0.7,0,1-0.1
				s0.6-0.1,0.9-0.2c0.3-0.1,0.5-0.2,0.8-0.3c0.3-0.1,0.5-0.2,0.8-0.4v-3.3h-2.3c-0.1,0-0.3,0-0.4-0.1s-0.1-0.2-0.1-0.3v-1.3H1002.2
				z"/>
		</g>
	</g>
	<g>
		<g>
			<polygon fill="#FDCDB9" points="1241.1,342.7 1255.1,309 1187.6,280.9 1154.9,369.3 1140.2,404.7 1182.3,422.2 1193.5,395.2 
				1209.1,401.6 1229.5,370.6 1256.7,371.8 			"/>
			<path fill="#A04A3F" d="M1201.3,335.6c0,0-4.2-19.7-13.8-14.9s-8.9,18-1.3,30c0,0-21.1,17.6-30.7,7.3
				c-9.6-10.3-3.5-72.1,29.5-92.1c27.8-16.9,50.8,8.3,70.6,24.1c19.8,15.8,39.4,10.7,39.4,10.7s-29.4,46.5-63.2,16.1
				C1197.9,286.4,1201.3,335.6,1201.3,335.6z"/>
			<path fill="#502B1B" d="M1217.4,386.7c-2,2.8-2-1.9-5.2-4.2c-3.3-2.3-8.6-1.3-6.6-4.2s6.3-3.3,9.5-1
				C1218.4,379.7,1219.4,383.9,1217.4,386.7z"/>
			<polygon fill="#D8AE9E" points="1193.5,395.2 1161.5,381.9 1188.8,406.6 			"/>
			<path fill="#C6661E" d="M1211.6,510.6l-105.8,0.1l-0.1-78.8c0-16.5,13.3-29.9,29.9-29.9l46-0.1c16.5,0,29.9,13.3,29.9,29.9
				L1211.6,510.6z"/>
			<path fill="#F07F23" d="M1198.5,510.7l-105.8,0.1l-0.1-78.8c0-16.5,13.3-29.9,29.9-29.9l46-0.1c16.5,0,29.9,13.3,29.9,29.9
				L1198.5,510.7z"/>
			<ellipse fill="#D33E00" cx="1179.7" cy="452.1" rx="28.2" ry="29.8"/>
			<rect x="1092.5" y="445.6" fill="#F07F23" width="32.6" height="57"/>
			<polygon fill="#F07F23" points="1134.4,510.7 1092.5,502.5 1170.1,440.2 1190.5,465.7 			"/>
			<path fill="#FDCDB9" d="M1185.7,470.3l-17.3-21.6l9.1-7.3c5.3-4.2,13-3.4,17.3,1.9l1.9,2.4c4.2,5.3,3.4,13-1.9,17.3L1185.7,470.3
				z"/>
			<path fill="#FDCDB9" d="M1170,450.9l-5.5-6.8l9.9-7.9c1.9-1.5,4.6-1.2,6.2,0.7l0,0c1.5,1.9,1.2,4.6-0.7,6.2L1170,450.9z"/>
			<polygon fill="#C6661E" points="1134.7,468.6 1134.7,433.3 1140.2,464.2 			"/>
			<polygon fill="#C6661E" points="1185.7,470.3 1134.4,510.7 1144.3,510.7 			"/>
			<polyline fill="none" stroke="#D33E00" stroke-width="4" stroke-linecap="round" stroke-miterlimit="10" points="1218,440.2 
				1228.1,433.3 1232.1,440.2 1248.7,433.3 			"/>
			<polyline fill="none" stroke="#D33E00" stroke-width="4" stroke-linecap="round" stroke-miterlimit="10" points="1222.5,455.6 
				1234.7,456.2 1233.7,464.1 1251.1,468.6 			"/>
			<polyline fill="none" stroke="#D33E00" stroke-width="4" stroke-linecap="round" stroke-miterlimit="10" points="1144.2,440.2 
				1134.1,433.3 1130.1,440.2 1113.5,433.3 			"/>
			<polyline fill="none" stroke="#D33E00" stroke-width="4" stroke-linecap="round" stroke-miterlimit="10" points="1139.7,455.6 
				1127.5,456.2 1128.5,464.1 1111.1,468.6 			"/>
		</g>
		<g>
			<path d="M1106.6,531.7c0.1,0,0.2,0.1,0.3,0.2l0.9,1c-0.6,0.8-1.4,1.4-2.4,1.8c-0.9,0.4-2,0.6-3.3,0.6c-1.1,0-2.2-0.2-3.1-0.6
				c-0.9-0.4-1.7-0.9-2.4-1.7c-0.7-0.7-1.2-1.6-1.5-2.6s-0.5-2.1-0.5-3.3c0-1.2,0.2-2.3,0.6-3.3c0.4-1,0.9-1.8,1.6-2.6
				c0.7-0.7,1.5-1.3,2.4-1.7c1-0.4,2-0.6,3.2-0.6c1.1,0,2.1,0.2,3,0.5c0.9,0.4,1.6,0.9,2.3,1.5l-0.8,1.1c-0.1,0.1-0.1,0.1-0.2,0.2
				c-0.1,0.1-0.2,0.1-0.3,0.1c-0.1,0-0.3-0.1-0.5-0.2c-0.2-0.1-0.4-0.3-0.7-0.5c-0.3-0.2-0.7-0.3-1.1-0.5c-0.4-0.1-1-0.2-1.7-0.2
				c-0.8,0-1.5,0.1-2.2,0.4c-0.7,0.3-1.2,0.7-1.7,1.2c-0.5,0.5-0.8,1.2-1.1,1.9c-0.3,0.8-0.4,1.6-0.4,2.5c0,1,0.1,1.8,0.4,2.6
				s0.6,1.4,1.1,1.9s1,0.9,1.7,1.2s1.3,0.4,2.1,0.4c0.5,0,0.9,0,1.2-0.1c0.4-0.1,0.7-0.1,1-0.2c0.3-0.1,0.6-0.3,0.9-0.4
				c0.3-0.2,0.5-0.4,0.8-0.6c0.1-0.1,0.1-0.1,0.2-0.1C1106.5,531.7,1106.5,531.7,1106.6,531.7z"/>
			<path d="M1123.2,519.3v15.8h-2.3V528h-8.2v7.1h-2.4v-15.8h2.4v7h8.2v-7H1123.2z"/>
			<path d="M1136.9,533.2l0,1.9h-9.8v-15.8h9.8v1.9h-7.4v5h6v1.8h-6v5.1H1136.9z"/>
			<path d="M1148,521.9c-0.1,0.1-0.2,0.2-0.2,0.3s-0.2,0.1-0.3,0.1c-0.1,0-0.3-0.1-0.5-0.2c-0.2-0.1-0.4-0.3-0.6-0.4
				s-0.6-0.3-0.9-0.4c-0.4-0.1-0.8-0.2-1.3-0.2c-0.5,0-0.9,0.1-1.2,0.2c-0.3,0.1-0.6,0.3-0.9,0.5c-0.2,0.2-0.4,0.5-0.5,0.7
				s-0.2,0.6-0.2,0.9c0,0.4,0.1,0.8,0.3,1.1c0.2,0.3,0.5,0.5,0.9,0.7c0.4,0.2,0.8,0.4,1.2,0.5s0.9,0.3,1.4,0.5
				c0.5,0.2,0.9,0.3,1.4,0.5s0.8,0.5,1.2,0.8s0.6,0.7,0.9,1.1c0.2,0.5,0.3,1,0.3,1.7c0,0.7-0.1,1.3-0.4,2s-0.6,1.1-1,1.6
				c-0.5,0.5-1,0.8-1.7,1.1c-0.7,0.3-1.4,0.4-2.3,0.4c-0.5,0-1,0-1.5-0.1c-0.5-0.1-0.9-0.2-1.4-0.4c-0.4-0.2-0.8-0.4-1.2-0.6
				c-0.4-0.3-0.7-0.5-1-0.9l0.7-1.1c0.1-0.1,0.1-0.2,0.2-0.2c0.1-0.1,0.2-0.1,0.3-0.1c0.2,0,0.3,0.1,0.5,0.2
				c0.2,0.2,0.5,0.3,0.7,0.5c0.3,0.2,0.7,0.4,1.1,0.5s0.9,0.2,1.5,0.2c0.5,0,0.9-0.1,1.3-0.2c0.4-0.1,0.7-0.3,1-0.5
				c0.3-0.2,0.5-0.5,0.6-0.9c0.1-0.3,0.2-0.7,0.2-1.1c0-0.5-0.1-0.8-0.3-1.1s-0.5-0.5-0.8-0.7c-0.4-0.2-0.8-0.4-1.2-0.5
				s-0.9-0.3-1.4-0.4c-0.5-0.2-0.9-0.3-1.4-0.5s-0.8-0.5-1.2-0.8c-0.4-0.3-0.6-0.7-0.8-1.2c-0.2-0.5-0.3-1.1-0.3-1.8
				c0-0.6,0.1-1.1,0.3-1.6c0.2-0.5,0.5-1,1-1.4c0.4-0.4,0.9-0.7,1.6-1c0.6-0.2,1.3-0.4,2.1-0.4c0.9,0,1.7,0.1,2.4,0.4
				c0.7,0.3,1.4,0.7,1.9,1.2L1148,521.9z"/>
			<path d="M1162.5,521.2h-5v13.8h-2.3v-13.8h-5v-2h12.4V521.2z"/>
			<path d="M1174.5,519.3c1,0,1.9,0.1,2.6,0.4c0.7,0.2,1.4,0.6,1.9,1c0.5,0.4,0.9,0.9,1.1,1.6c0.2,0.6,0.4,1.3,0.4,2
				c0,0.7-0.1,1.4-0.4,2c-0.3,0.6-0.6,1.2-1.1,1.6c-0.5,0.4-1.1,0.8-1.9,1c-0.7,0.2-1.6,0.4-2.6,0.4h-2.4v5.8h-2.3v-15.8H1174.5z
				 M1174.5,527.4c0.6,0,1.1-0.1,1.6-0.2c0.5-0.2,0.8-0.4,1.1-0.7c0.3-0.3,0.5-0.6,0.7-1c0.2-0.4,0.2-0.8,0.2-1.3
				c0-1-0.3-1.7-0.9-2.3s-1.5-0.8-2.7-0.8h-2.4v6.3H1174.5z"/>
			<path d="M1194.9,535.1h-1.8c-0.2,0-0.4-0.1-0.5-0.2c-0.1-0.1-0.2-0.2-0.3-0.4l-1.4-3.7h-7l-1.4,3.7c-0.1,0.1-0.1,0.3-0.3,0.4
				c-0.1,0.1-0.3,0.2-0.5,0.2h-1.8l6.3-15.8h2.4L1194.9,535.1z M1190.3,529.2l-2.3-6.1c-0.2-0.4-0.3-0.9-0.5-1.6
				c-0.1,0.3-0.2,0.6-0.2,0.9c-0.1,0.3-0.2,0.5-0.2,0.7l-2.3,6.1H1190.3z"/>
			<path d="M1199.2,535.1h-2.4v-15.8h2.4V535.1z"/>
			<path d="M1216.1,519.3v15.8h-1.2c-0.2,0-0.3,0-0.5-0.1c-0.1-0.1-0.2-0.2-0.4-0.3l-8.9-11.5c0,0.2,0,0.4,0,0.6s0,0.4,0,0.5v10.8
				h-2.1v-15.8h1.2c0.2,0,0.4,0,0.5,0.1c0.1,0,0.2,0.2,0.3,0.3l8.9,11.6c0-0.2,0-0.4,0-0.6c0-0.2,0-0.4,0-0.6v-10.8H1216.1z"/>
		</g>
	</g>
	<g>
		<g>
			<polygon fill="#FDCDB9" points="1198.7,669.4 1197.6,632.9 1124.5,635.1 1131,729.1 1132.2,767.4 1177.8,766.1 1176.9,736.8 
				1193.7,736.3 1199.6,699.6 1224.8,689.5 			"/>
			<path fill="#A04A3F" d="M1159.5,679.3c0,0-11.9-16.2-18.7-7.9c-6.7,8.3-0.7,20.1,11.1,27.9c0,0-12,24.7-25,19.3
				c-12.9-5.4-32.8-64.3-11-96c18.5-26.8,49.7-13.3,74.3-7.1c24.6,6.2,40.3-6.5,40.3-6.5s-7.7,54.5-51,40.7
				C1136.1,635.9,1159.5,679.3,1159.5,679.3z"/>
			
				<ellipse transform="matrix(0.1872 -0.9823 0.9823 0.1872 257.4998 1752.2179)" fill="#502B1B" cx="1187.6" cy="720.5" rx="3.6" ry="7.2"/>
			<path fill="#C6661E" d="M1212.8,867.1l-105.8,0.1l-0.1-78.8c0-16.5,13.3-29.9,29.9-29.9l46-0.1c16.5,0,29.9,13.3,29.9,29.9
				L1212.8,867.1z"/>
			<path fill="#F07F23" d="M1199.6,867.1l-105.8,0.1l-0.1-78.8c0-16.5,13.3-29.9,29.9-29.9l46-0.1c16.5,0,29.9,13.3,29.9,29.9
				L1199.6,867.1z"/>
			<polygon fill="#D8AE9E" points="1176.9,736.8 1142.2,737.8 1177.2,749.2 			"/>
			<rect x="1093.6" y="802" fill="#F07F23" width="32.6" height="57"/>
			<polygon fill="#F07F23" points="1135.5,867.2 1093.6,859 1171.2,796.7 1191.7,822.1 			"/>
			<path fill="#FDCDB9" d="M1186.9,826.7l-17.3-21.6l9.1-7.3c5.3-4.2,13-3.4,17.3,1.9l1.9,2.4c4.2,5.3,3.4,13-1.9,17.3L1186.9,826.7
				z"/>
			<path fill="#FDCDB9" d="M1171.1,807.3l-5.5-6.8l9.9-7.9c1.9-1.5,4.6-1.2,6.2,0.7l0,0c1.5,1.9,1.2,4.6-0.7,6.2L1171.1,807.3z"/>
			<polygon fill="#C6661E" points="1135.9,825 1135.9,789.7 1141.4,820.6 			"/>
			<polygon fill="#C6661E" points="1186.9,826.7 1135.5,867.2 1145.4,867.2 			"/>
			<path fill="none" stroke="#A7A9AC" stroke-miterlimit="10" d="M1258.9,785.5v-73.8h-14.2v73.8c-7.3,2.8-12.4,9.9-12.4,18.2
				c0,10.8,8.7,19.5,19.5,19.5c10.8,0,19.5-8.7,19.5-19.5C1271.3,795.4,1266.1,788.3,1258.9,785.5z"/>
			<path fill="#D33E00" d="M1251.8,819.7c-8.8,0-16-7.2-16-16c0-6.6,4-12.5,10.2-14.9l2.2-0.9v-72.7h7.2v72.7l2.2,0.9
				c6.2,2.4,10.2,8.3,10.2,14.9C1267.8,812.5,1260.6,819.7,1251.8,819.7z"/>
			<path fill="none" stroke="#FFFFFF" stroke-width="3" stroke-linecap="round" stroke-miterlimit="10" d="M1239,802.3
				c0-6.3,5.1-11.3,11.3-11.3"/>
		</g>
		<g>
			<path d="M1096.5,897.7c0.1,0,0.2,0.1,0.3,0.2l0.9,1c-0.6,0.8-1.4,1.4-2.4,1.8s-2,0.6-3.3,0.6c-1.1,0-2.2-0.2-3.1-0.6
				c-0.9-0.4-1.7-0.9-2.4-1.7c-0.7-0.7-1.2-1.6-1.5-2.6s-0.5-2.1-0.5-3.3c0-1.2,0.2-2.3,0.6-3.3s0.9-1.8,1.6-2.6
				c0.7-0.7,1.5-1.3,2.4-1.7c0.9-0.4,2-0.6,3.2-0.6c1.1,0,2.1,0.2,3,0.5c0.9,0.4,1.6,0.9,2.3,1.5l-0.8,1.1c-0.1,0.1-0.1,0.1-0.2,0.2
				c-0.1,0.1-0.2,0.1-0.3,0.1c-0.1,0-0.3-0.1-0.5-0.2c-0.2-0.1-0.4-0.3-0.7-0.5c-0.3-0.2-0.7-0.3-1.1-0.5c-0.4-0.1-1-0.2-1.7-0.2
				c-0.8,0-1.5,0.1-2.2,0.4c-0.7,0.3-1.2,0.7-1.7,1.2c-0.5,0.5-0.8,1.2-1.1,1.9c-0.3,0.8-0.4,1.6-0.4,2.5c0,1,0.1,1.8,0.4,2.6
				s0.6,1.4,1.1,1.9s1,0.9,1.7,1.2c0.6,0.3,1.3,0.4,2.1,0.4c0.5,0,0.9,0,1.2-0.1c0.4-0.1,0.7-0.1,1-0.2c0.3-0.1,0.6-0.3,0.9-0.4
				c0.3-0.2,0.5-0.4,0.8-0.6c0.1-0.1,0.1-0.1,0.2-0.1C1096.3,897.7,1096.4,897.7,1096.5,897.7z"/>
			<path d="M1114.5,893.2c0,1.2-0.2,2.3-0.6,3.3c-0.4,1-0.9,1.8-1.6,2.6c-0.7,0.7-1.5,1.3-2.5,1.7c-1,0.4-2,0.6-3.2,0.6
				c-1.2,0-2.2-0.2-3.2-0.6c-1-0.4-1.8-1-2.5-1.7s-1.2-1.6-1.6-2.6c-0.4-1-0.6-2.1-0.6-3.3c0-1.2,0.2-2.3,0.6-3.2
				c0.4-1,0.9-1.8,1.6-2.6s1.5-1.3,2.5-1.7c1-0.4,2-0.6,3.2-0.6c1.2,0,2.2,0.2,3.2,0.6c1,0.4,1.8,1,2.5,1.7c0.7,0.7,1.2,1.6,1.6,2.6
				C1114.3,890.9,1114.5,892,1114.5,893.2z M1112.1,893.2c0-0.9-0.1-1.8-0.4-2.5s-0.6-1.4-1.1-1.9c-0.5-0.5-1-0.9-1.7-1.2
				c-0.7-0.3-1.4-0.4-2.2-0.4c-0.8,0-1.6,0.1-2.2,0.4c-0.7,0.3-1.2,0.7-1.7,1.2s-0.8,1.2-1.1,1.9s-0.4,1.6-0.4,2.5
				c0,0.9,0.1,1.8,0.4,2.5s0.6,1.4,1.1,1.9s1.1,0.9,1.7,1.2s1.4,0.4,2.2,0.4c0.8,0,1.6-0.1,2.2-0.4s1.2-0.7,1.7-1.2
				c0.5-0.5,0.8-1.2,1.1-1.9S1112.1,894.1,1112.1,893.2z"/>
			<path d="M1134.1,885.3v15.8h-2v-11.2c0-0.2,0-0.3,0-0.5c0-0.2,0-0.4,0-0.6l-5.3,9.6c-0.2,0.4-0.5,0.5-0.8,0.5h-0.3
				c-0.4,0-0.7-0.2-0.8-0.5l-5.4-9.7c0,0.4,0.1,0.8,0.1,1.2v11.2h-2.1v-15.8h1.7c0.2,0,0.4,0,0.5,0.1c0.1,0,0.2,0.2,0.3,0.3l5.3,9.5
				c0.1,0.2,0.2,0.4,0.3,0.6c0.1,0.2,0.2,0.4,0.3,0.6c0.2-0.4,0.3-0.9,0.5-1.3l5.2-9.4c0.1-0.2,0.2-0.3,0.3-0.3
				c0.1,0,0.3-0.1,0.5-0.1H1134.1z"/>
			<path d="M1154.6,885.3v15.8h-2v-11.2c0-0.2,0-0.3,0-0.5c0-0.2,0-0.4,0-0.6l-5.3,9.6c-0.2,0.4-0.5,0.5-0.8,0.5h-0.3
				c-0.4,0-0.7-0.2-0.8-0.5l-5.4-9.7c0,0.4,0.1,0.8,0.1,1.2v11.2h-2.1v-15.8h1.7c0.2,0,0.4,0,0.5,0.1c0.1,0,0.2,0.2,0.3,0.3l5.3,9.5
				c0.1,0.2,0.2,0.4,0.3,0.6c0.1,0.2,0.2,0.4,0.3,0.6c0.2-0.4,0.3-0.9,0.5-1.3l5.2-9.4c0.1-0.2,0.2-0.3,0.3-0.3
				c0.1,0,0.3-0.1,0.5-0.1H1154.6z"/>
			<path d="M1173.2,893.2c0,1.2-0.2,2.3-0.6,3.3c-0.4,1-0.9,1.8-1.6,2.6c-0.7,0.7-1.5,1.3-2.5,1.7c-1,0.4-2,0.6-3.2,0.6
				c-1.2,0-2.2-0.2-3.2-0.6c-1-0.4-1.8-1-2.5-1.7s-1.2-1.6-1.6-2.6c-0.4-1-0.6-2.1-0.6-3.3c0-1.2,0.2-2.3,0.6-3.2
				c0.4-1,0.9-1.8,1.6-2.6s1.5-1.3,2.5-1.7c1-0.4,2-0.6,3.2-0.6c1.2,0,2.2,0.2,3.2,0.6c1,0.4,1.8,1,2.5,1.7c0.7,0.7,1.2,1.6,1.6,2.6
				C1173,890.9,1173.2,892,1173.2,893.2z M1170.8,893.2c0-0.9-0.1-1.8-0.4-2.5s-0.6-1.4-1.1-1.9c-0.5-0.5-1-0.9-1.7-1.2
				c-0.7-0.3-1.4-0.4-2.2-0.4c-0.8,0-1.6,0.1-2.2,0.4c-0.7,0.3-1.2,0.7-1.7,1.2s-0.8,1.2-1.1,1.9s-0.4,1.6-0.4,2.5
				c0,0.9,0.1,1.8,0.4,2.5s0.6,1.4,1.1,1.9s1.1,0.9,1.7,1.2s1.4,0.4,2.2,0.4c0.8,0,1.6-0.1,2.2-0.4s1.2-0.7,1.7-1.2
				c0.5-0.5,0.8-1.2,1.1-1.9S1170.8,894.1,1170.8,893.2z"/>
			<path d="M1189.1,885.3v15.8h-1.2c-0.2,0-0.3,0-0.5-0.1c-0.1-0.1-0.2-0.2-0.4-0.3l-8.9-11.5c0,0.2,0,0.4,0,0.6c0,0.2,0,0.4,0,0.5
				v10.8h-2.1v-15.8h1.2c0.2,0,0.4,0,0.5,0.1s0.2,0.2,0.3,0.3l8.9,11.6c0-0.2,0-0.4,0-0.6c0-0.2,0-0.4,0-0.6v-10.8H1189.1z"/>
			<path d="M1209.6,897.7c0.1,0,0.2,0.1,0.3,0.2l0.9,1c-0.6,0.8-1.4,1.4-2.4,1.8s-2,0.6-3.3,0.6c-1.1,0-2.2-0.2-3.1-0.6
				c-0.9-0.4-1.7-0.9-2.4-1.7c-0.7-0.7-1.2-1.6-1.5-2.6s-0.5-2.1-0.5-3.3c0-1.2,0.2-2.3,0.6-3.3s0.9-1.8,1.6-2.6
				c0.7-0.7,1.5-1.3,2.4-1.7c0.9-0.4,2-0.6,3.2-0.6c1.1,0,2.1,0.2,3,0.5c0.9,0.4,1.6,0.9,2.3,1.5l-0.8,1.1c-0.1,0.1-0.1,0.1-0.2,0.2
				c-0.1,0.1-0.2,0.1-0.3,0.1c-0.1,0-0.3-0.1-0.5-0.2c-0.2-0.1-0.4-0.3-0.7-0.5c-0.3-0.2-0.7-0.3-1.1-0.5c-0.4-0.1-1-0.2-1.7-0.2
				c-0.8,0-1.5,0.1-2.2,0.4c-0.7,0.3-1.2,0.7-1.7,1.2c-0.5,0.5-0.8,1.2-1.1,1.9c-0.3,0.8-0.4,1.6-0.4,2.5c0,1,0.1,1.8,0.4,2.6
				s0.6,1.4,1.1,1.9s1,0.9,1.7,1.2c0.6,0.3,1.3,0.4,2.1,0.4c0.5,0,0.9,0,1.2-0.1c0.4-0.1,0.7-0.1,1-0.2c0.3-0.1,0.6-0.3,0.9-0.4
				c0.3-0.2,0.5-0.4,0.8-0.6c0.1-0.1,0.1-0.1,0.2-0.1C1209.4,897.7,1209.5,897.7,1209.6,897.7z"/>
			<path d="M1227.6,893.2c0,1.2-0.2,2.3-0.6,3.3c-0.4,1-0.9,1.8-1.6,2.6c-0.7,0.7-1.5,1.3-2.5,1.7c-1,0.4-2,0.6-3.2,0.6
				c-1.2,0-2.2-0.2-3.2-0.6c-1-0.4-1.8-1-2.5-1.7s-1.2-1.6-1.6-2.6c-0.4-1-0.6-2.1-0.6-3.3c0-1.2,0.2-2.3,0.6-3.2
				c0.4-1,0.9-1.8,1.6-2.6s1.5-1.3,2.5-1.7c1-0.4,2-0.6,3.2-0.6c1.2,0,2.2,0.2,3.2,0.6c1,0.4,1.8,1,2.5,1.7c0.7,0.7,1.2,1.6,1.6,2.6
				C1227.4,890.9,1227.6,892,1227.6,893.2z M1225.2,893.2c0-0.9-0.1-1.8-0.4-2.5s-0.6-1.4-1.1-1.9c-0.5-0.5-1-0.9-1.7-1.2
				c-0.7-0.3-1.4-0.4-2.2-0.4c-0.8,0-1.6,0.1-2.2,0.4c-0.7,0.3-1.2,0.7-1.7,1.2s-0.8,1.2-1.1,1.9s-0.4,1.6-0.4,2.5
				c0,0.9,0.1,1.8,0.4,2.5s0.6,1.4,1.1,1.9s1.1,0.9,1.7,1.2s1.4,0.4,2.2,0.4c0.8,0,1.6-0.1,2.2-0.4s1.2-0.7,1.7-1.2
				c0.5-0.5,0.8-1.2,1.1-1.9S1225.2,894.1,1225.2,893.2z"/>
			<path d="M1239.6,899.1v2h-9v-15.8h2.3v13.8H1239.6z"/>
			<path d="M1255.6,893.2c0,1.2-0.2,2.3-0.6,3.2s-0.9,1.8-1.6,2.5s-1.5,1.2-2.5,1.6c-1,0.4-2,0.6-3.2,0.6h-5.9v-15.8h5.9
				c1.2,0,2.2,0.2,3.2,0.6c1,0.4,1.8,0.9,2.5,1.6c0.7,0.7,1.2,1.5,1.6,2.5S1255.6,892,1255.6,893.2z M1253.2,893.2
				c0-0.9-0.1-1.8-0.4-2.5c-0.3-0.7-0.6-1.4-1.1-1.9c-0.5-0.5-1-0.9-1.7-1.2c-0.7-0.3-1.4-0.4-2.2-0.4h-3.6v12h3.6
				c0.8,0,1.6-0.1,2.2-0.4c0.7-0.3,1.2-0.7,1.7-1.2c0.5-0.5,0.8-1.1,1.1-1.9C1253.1,895,1253.2,894.1,1253.2,893.2z"/>
		</g>
	</g>
	<g>
		<g>
			<polygon fill="#FDCDB9" points="938.6,673 942.9,636.7 870.3,628.2 863.1,722.2 858.6,760.3 903.9,765.6 907.3,736.5 924,738.4 
				935.2,702.9 961.6,696.7 			"/>
			<path fill="#A04A3F" d="M898.4,677.1c0,0-9.5-17.8-17.3-10.5c-7.9,7.3-3.6,19.8,7,29.2c0,0-15.5,22.7-27.5,15.5
				c-12-7.2-23.1-68.4,3.1-96.6c22.2-23.8,51.1-5.9,74.5,3.8c23.4,9.7,40.8-0.5,40.8-0.5s-15.5,52.8-56.4,32.8
				C881.7,630.7,898.4,677.1,898.4,677.1z"/>
			
				<ellipse transform="matrix(0.328 -0.9447 0.9447 0.328 -63.5784 1354.4652)" fill="#502B1B" cx="920.2" cy="721.9" rx="3.6" ry="7.2"/>
			<path fill="#C6661E" d="M945.1,867.1l-105.8,0.1l-0.1-78.8c0-16.5,13.3-29.9,29.9-29.9l46-0.1c16.5,0,29.9,13.3,29.9,29.9
				L945.1,867.1z"/>
			<path fill="#F07F23" d="M932,867.1l-105.8,0.1l-0.1-78.8c0-16.5,13.3-29.9,29.9-29.9l46-0.1c16.5,0,29.9,13.3,29.9,29.9
				L932,867.1z"/>
			<polygon fill="#D8AE9E" points="907.3,736.5 872.8,732.5 905.9,748.8 			"/>
			<rect x="826" y="802" fill="#F07F23" width="32.6" height="57"/>
			<polygon fill="#F07F23" points="867.9,867.2 826,859 903.6,796.7 924,822.1 			"/>
			<path fill="#FDCDB9" d="M919.2,826.7l-17.3-21.6l9.1-7.3c5.3-4.2,13-3.4,17.3,1.9l1.9,2.4c4.2,5.3,3.4,13-1.9,17.3L919.2,826.7z"
				/>
			<path fill="#FDCDB9" d="M903.5,807.3l-5.5-6.8l9.9-7.9c1.9-1.5,4.6-1.2,6.2,0.7l0,0c1.5,1.9,1.2,4.6-0.7,6.2L903.5,807.3z"/>
			<polygon fill="#C6661E" points="868.3,825 868.3,789.7 873.7,820.6 			"/>
			<polygon fill="#C6661E" points="919.2,826.7 867.9,867.2 877.8,867.2 			"/>
			<path fill="#45BDFF" d="M889.2,662.4L889.2,662.4c-4-4-5-10.2-2.4-15.3l11.8-23.2l11.8,23.2c2.6,5.1,1.6,11.3-2.4,15.3l0,0
				C902.7,667.5,894.3,667.5,889.2,662.4z"/>
			<path fill="#45BDFF" d="M925.8,658.5L925.8,658.5c-1.9-1.9-2.3-4.7-1.1-7l5.4-10.6l5.4,10.6c1.2,2.3,0.7,5.2-1.1,7v0
				C932,660.9,928.2,660.9,925.8,658.5z"/>
			<path fill="#45BDFF" d="M897,695.1L897,695.1c-1.9-1.9-2.3-4.7-1.1-7l5.4-10.6l5.4,10.6c1.2,2.3,0.7,5.2-1.1,7l0,0
				C903.2,697.5,899.3,697.5,897,695.1z"/>
		</g>
		<g>
			<path d="M848.6,885.3l-4.9,15.8h-2.1l-3.9-11.7c-0.1-0.2-0.2-0.5-0.2-0.8c-0.1,0.3-0.2,0.6-0.2,0.8l-3.9,11.7h-2.1l-4.9-15.8h2
				c0.2,0,0.4,0,0.5,0.1c0.1,0.1,0.2,0.2,0.3,0.4l3.1,10.6c0.1,0.2,0.1,0.4,0.2,0.7s0.1,0.5,0.1,0.8c0.1-0.3,0.1-0.5,0.2-0.8
				c0.1-0.2,0.1-0.5,0.2-0.7l3.6-10.6c0-0.1,0.1-0.3,0.3-0.4c0.1-0.1,0.3-0.2,0.5-0.2h0.7c0.2,0,0.4,0.1,0.5,0.2s0.2,0.2,0.3,0.4
				l3.6,10.6c0.1,0.4,0.2,0.9,0.4,1.4c0.1-0.5,0.2-1,0.3-1.4l3.1-10.6c0-0.1,0.1-0.3,0.3-0.4c0.1-0.1,0.3-0.2,0.5-0.2H848.6z"/>
			<path d="M863.8,885.3v15.8h-2.3V894h-8.2v7.1h-2.4v-15.8h2.4v7h8.2v-7H863.8z"/>
			<path d="M877.5,899.2l0,1.9h-9.8v-15.8h9.8v1.9H870v5h6v1.8h-6v5.1H877.5z"/>
			<path d="M890.2,899.2l0,1.9h-9.8v-15.8h9.8v1.9h-7.4v5h6v1.8h-6v5.1H890.2z"/>
			<path d="M903.7,886.2c0,0.3-0.1,0.5-0.2,0.8l-8.7,12.3h8.8v1.9h-11.9v-0.9c0-0.1,0-0.2,0.1-0.4c0-0.1,0.1-0.2,0.2-0.3l8.7-12.3
				h-8.5v-1.9h11.6V886.2z"/>
			<path d="M908.7,901.1h-2.4v-15.8h2.4V901.1z"/>
			<path d="M925.5,885.3v15.8h-1.2c-0.2,0-0.3,0-0.5-0.1c-0.1-0.1-0.2-0.2-0.4-0.3l-8.9-11.5c0,0.2,0,0.4,0,0.6s0,0.4,0,0.5v10.8
				h-2.1v-15.8h1.2c0.2,0,0.4,0,0.5,0.1c0.1,0,0.2,0.2,0.3,0.3l8.9,11.6c0-0.2,0-0.4,0-0.6c0-0.2,0-0.4,0-0.6v-10.8H925.5z"/>
			<path d="M942.3,893.4v6.2c-0.8,0.6-1.7,1-2.6,1.3c-0.9,0.3-1.9,0.4-2.9,0.4c-1.3,0-2.4-0.2-3.5-0.6c-1-0.4-1.9-0.9-2.6-1.7
				c-0.7-0.7-1.3-1.6-1.7-2.6s-0.6-2.1-0.6-3.3c0-1.2,0.2-2.3,0.6-3.3c0.4-1,0.9-1.8,1.6-2.6s1.6-1.3,2.6-1.7c1-0.4,2.1-0.6,3.4-0.6
				c0.6,0,1.2,0,1.8,0.1c0.5,0.1,1,0.2,1.5,0.4s0.9,0.4,1.3,0.6c0.4,0.2,0.8,0.5,1.1,0.8l-0.7,1.1c-0.1,0.2-0.2,0.3-0.4,0.3
				c-0.2,0-0.4,0-0.5-0.1c-0.2-0.1-0.4-0.2-0.6-0.4c-0.2-0.1-0.5-0.3-0.8-0.4c-0.3-0.1-0.7-0.2-1.1-0.3c-0.4-0.1-0.9-0.1-1.5-0.1
				c-0.9,0-1.6,0.1-2.3,0.4c-0.7,0.3-1.3,0.7-1.8,1.2c-0.5,0.5-0.9,1.2-1.1,1.9s-0.4,1.6-0.4,2.5c0,1,0.1,1.8,0.4,2.6
				c0.3,0.8,0.7,1.4,1.2,1.9c0.5,0.5,1.1,0.9,1.9,1.2c0.7,0.3,1.5,0.4,2.4,0.4c0.4,0,0.7,0,1-0.1c0.3,0,0.6-0.1,0.9-0.2
				c0.3-0.1,0.5-0.2,0.8-0.3c0.3-0.1,0.5-0.2,0.8-0.4v-3.3h-2.3c-0.1,0-0.3,0-0.4-0.1s-0.1-0.2-0.1-0.3v-1.3H942.3z"/>
		</g>
	</g>
	<g>
		<g>
			<path fill="#007CDC" d="M647.8,747.6H501.7c-14.1,0-25.7-11.5-25.7-25.7v-84c0-14.1,11.5-25.7,25.7-25.7h146.1
				c14.1,0,25.7,11.5,25.7,25.7v84C673.5,736.1,661.9,747.6,647.8,747.6z"/>
			<path fill="#C6661E" d="M619.8,865.9L514,866l-0.1-78.8c0-16.5,13.3-29.9,29.9-29.9l46-0.1c16.5,0,29.9,13.3,29.9,29.9
				L619.8,865.9z"/>
			<polygon fill="#FDCDB9" points="613.5,671.8 617.7,635.5 545.1,627.1 537.9,721.1 533.4,759.2 578.7,764.4 582.1,735.4 
				598.8,737.3 610,701.8 636.4,695.5 			"/>
			<path fill="#A04A3F" d="M573.3,675.9c0,0-9.5-17.8-17.3-10.5s-3.6,19.8,7,29.2c0,0-15.5,22.7-27.5,15.5
				c-12-7.2-23.1-68.4,3.1-96.6c22.2-23.8,51.1-5.9,74.5,3.8c23.4,9.7,40.8-0.5,40.8-0.5s-15.5,52.8-56.4,32.8
				C556.5,629.6,573.3,675.9,573.3,675.9z"/>
			<polygon fill="#D8AE9E" points="582.1,735.4 547.6,731.3 580.7,747.6 			"/>
			<path fill="#F07F23" d="M606.6,865.9l-105.8,0.1l-0.1-78.8c0-16.5,13.3-29.9,29.9-29.9l46-0.1c16.5,0,29.9,13.3,29.9,29.9
				L606.6,865.9z"/>
			
				<ellipse transform="matrix(0.1157 -0.9933 0.9933 0.1157 -187.9452 1228.2158)" fill="#502B1B" cx="595.8" cy="719.7" rx="7.3" ry="6.3"/>
			<path fill="#FDCDB9" d="M657.2,743.7h-28.5V732c0-6.8,5.5-12.4,12.4-12.4h3.8c6.8,0,12.4,5.5,12.4,12.4V743.7z"/>
			<path fill="#FDCDB9" d="M630.7,743.7H623v-13.6c0-2.1,1.7-3.8,3.8-3.8l0,0c2.1,0,3.8,1.7,3.8,3.8V743.7z"/>
			
				<line fill="none" stroke="#502B1B" stroke-width="2" stroke-linecap="round" stroke-miterlimit="10" x1="613.8" y1="717.8" x2="639.2" y2="709.7"/>
			
				<line fill="none" stroke="#502B1B" stroke-width="2" stroke-linecap="round" stroke-miterlimit="10" x1="613.8" y1="729.2" x2="639.2" y2="737.3"/>
			
				<line fill="none" stroke="#502B1B" stroke-width="2" stroke-linecap="round" stroke-miterlimit="10" x1="613.8" y1="723.7" x2="643.6" y2="723.7"/>
			<path fill="#007CDC" d="M673.7,803.5H467.6c-12.2,0-22,9.9-22,22v40.6h250.2v-40.6C695.8,813.3,685.9,803.5,673.7,803.5z"/>
			<path fill="#F07F23" d="M638.8,818l-16.9,0l-0.1-74.4l36.8,0l0.1,54.4C658.8,809,649.9,817.9,638.8,818z"/>
			<path fill="#F07F23" d="M636.4,777.1l-123.6,0.1c-6.6,0-11.9,5.4-11.9,12l0,11c0,9.9,8.1,18,18,17.9l117.6-0.1L636.4,777.1z"/>
		</g>
		<g>
			<path d="M529.7,885.3v15.8h-1.2c-0.2,0-0.3,0-0.5-0.1c-0.1-0.1-0.2-0.2-0.4-0.3l-8.9-11.5c0,0.2,0,0.4,0,0.6c0,0.2,0,0.4,0,0.5
				v10.8h-2.1v-15.8h1.2c0.2,0,0.4,0,0.5,0.1c0.1,0,0.2,0.2,0.3,0.3l8.9,11.6c0-0.2,0-0.4,0-0.6c0-0.2,0-0.4,0-0.6v-10.8H529.7z"/>
			<path d="M535.9,901.1h-2.4v-15.8h2.4V901.1z"/>
			<path d="M552.7,893.4v6.2c-0.8,0.6-1.6,1-2.6,1.3c-0.9,0.3-1.9,0.4-2.9,0.4c-1.3,0-2.4-0.2-3.5-0.6c-1-0.4-1.9-0.9-2.6-1.7
				c-0.7-0.7-1.3-1.6-1.7-2.6c-0.4-1-0.6-2.1-0.6-3.3c0-1.2,0.2-2.3,0.6-3.3c0.4-1,0.9-1.8,1.6-2.6s1.6-1.3,2.6-1.7
				c1-0.4,2.1-0.6,3.4-0.6c0.6,0,1.2,0,1.8,0.1c0.5,0.1,1,0.2,1.5,0.4s0.9,0.4,1.3,0.6c0.4,0.2,0.8,0.5,1.1,0.8l-0.7,1.1
				c-0.1,0.2-0.2,0.3-0.4,0.3c-0.2,0-0.4,0-0.5-0.1c-0.2-0.1-0.4-0.2-0.6-0.4c-0.2-0.1-0.5-0.3-0.8-0.4s-0.7-0.2-1.1-0.3
				c-0.4-0.1-0.9-0.1-1.5-0.1c-0.9,0-1.6,0.1-2.3,0.4s-1.3,0.7-1.8,1.2c-0.5,0.5-0.9,1.2-1.1,1.9c-0.3,0.7-0.4,1.6-0.4,2.5
				c0,1,0.1,1.8,0.4,2.6c0.3,0.8,0.7,1.4,1.2,1.9c0.5,0.5,1.1,0.9,1.9,1.2c0.7,0.3,1.5,0.4,2.4,0.4c0.4,0,0.7,0,1-0.1
				s0.6-0.1,0.9-0.2s0.5-0.2,0.8-0.3c0.3-0.1,0.5-0.2,0.8-0.4v-3.3h-2.3c-0.1,0-0.3,0-0.4-0.1s-0.1-0.2-0.1-0.3v-1.3H552.7z"/>
			<path d="M568.8,885.3v15.8h-2.3V894h-8.2v7.1h-2.4v-15.8h2.4v7h8.2v-7H568.8z"/>
			<path d="M583.5,887.3h-5v13.8h-2.3v-13.8h-5v-2h12.4V887.3z"/>
			<path d="M601.7,897.7c0.1,0,0.2,0.1,0.3,0.2l0.9,1c-0.6,0.8-1.4,1.4-2.4,1.8c-0.9,0.4-2,0.6-3.3,0.6c-1.1,0-2.2-0.2-3.1-0.6
				c-0.9-0.4-1.7-0.9-2.4-1.7c-0.7-0.7-1.2-1.6-1.5-2.6s-0.5-2.1-0.5-3.3c0-1.2,0.2-2.3,0.6-3.3c0.4-1,0.9-1.8,1.6-2.6
				s1.5-1.3,2.4-1.7c0.9-0.4,2-0.6,3.2-0.6c1.1,0,2.1,0.2,3,0.5c0.9,0.4,1.6,0.9,2.3,1.5l-0.8,1.1c-0.1,0.1-0.1,0.1-0.2,0.2
				c-0.1,0.1-0.2,0.1-0.3,0.1c-0.1,0-0.3-0.1-0.5-0.2c-0.2-0.1-0.4-0.3-0.7-0.5c-0.3-0.2-0.7-0.3-1.1-0.5c-0.4-0.1-1-0.2-1.7-0.2
				c-0.8,0-1.5,0.1-2.2,0.4c-0.7,0.3-1.2,0.7-1.7,1.2c-0.5,0.5-0.8,1.2-1.1,1.9s-0.4,1.6-0.4,2.5c0,1,0.1,1.8,0.4,2.6
				s0.6,1.4,1.1,1.9s1,0.9,1.7,1.2c0.6,0.3,1.3,0.4,2.1,0.4c0.5,0,0.9,0,1.2-0.1c0.4-0.1,0.7-0.1,1-0.2s0.6-0.3,0.9-0.4
				c0.3-0.2,0.5-0.4,0.8-0.6c0.1-0.1,0.1-0.1,0.2-0.1C601.6,897.7,601.6,897.7,601.7,897.7z"/>
			<path d="M619.7,893.2c0,1.2-0.2,2.3-0.6,3.3c-0.4,1-0.9,1.8-1.6,2.6c-0.7,0.7-1.5,1.3-2.5,1.7c-1,0.4-2,0.6-3.2,0.6
				c-1.2,0-2.2-0.2-3.2-0.6c-1-0.4-1.8-1-2.5-1.7s-1.2-1.6-1.6-2.6s-0.6-2.1-0.6-3.3c0-1.2,0.2-2.3,0.6-3.2c0.4-1,0.9-1.8,1.6-2.6
				s1.5-1.3,2.5-1.7c1-0.4,2-0.6,3.2-0.6c1.2,0,2.2,0.2,3.2,0.6c1,0.4,1.8,1,2.5,1.7c0.7,0.7,1.2,1.6,1.6,2.6
				C619.5,890.9,619.7,892,619.7,893.2z M617.3,893.2c0-0.9-0.1-1.8-0.4-2.5s-0.6-1.4-1.1-1.9s-1-0.9-1.7-1.2
				c-0.7-0.3-1.4-0.4-2.2-0.4s-1.6,0.1-2.2,0.4c-0.7,0.3-1.2,0.7-1.7,1.2c-0.5,0.5-0.8,1.2-1.1,1.9s-0.4,1.6-0.4,2.5
				c0,0.9,0.1,1.8,0.4,2.5s0.6,1.4,1.1,1.9c0.5,0.5,1.1,0.9,1.7,1.2c0.7,0.3,1.4,0.4,2.2,0.4s1.6-0.1,2.2-0.4
				c0.7-0.3,1.2-0.7,1.7-1.2s0.8-1.2,1.1-1.9S617.3,894.1,617.3,893.2z"/>
			<path d="M628.8,899.2c0.6,0,1.2-0.1,1.7-0.3c0.5-0.2,0.9-0.5,1.3-0.9s0.6-0.8,0.8-1.4c0.2-0.5,0.3-1.1,0.3-1.8v-9.6h2.3v9.6
				c0,0.9-0.1,1.8-0.4,2.6c-0.3,0.8-0.7,1.5-1.3,2c-0.5,0.6-1.2,1-2,1.3s-1.7,0.5-2.7,0.5s-1.9-0.2-2.7-0.5s-1.5-0.8-2-1.3
				c-0.6-0.6-1-1.3-1.3-2c-0.3-0.8-0.4-1.6-0.4-2.6v-9.6h2.3v9.5c0,0.6,0.1,1.2,0.3,1.8c0.2,0.5,0.4,1,0.8,1.4s0.8,0.7,1.3,0.9
				C627.6,899.1,628.2,899.2,628.8,899.2z"/>
			<path d="M651.8,893.4v6.2c-0.8,0.6-1.6,1-2.6,1.3c-0.9,0.3-1.9,0.4-2.9,0.4c-1.3,0-2.4-0.2-3.5-0.6c-1-0.4-1.9-0.9-2.6-1.7
				c-0.7-0.7-1.3-1.6-1.7-2.6c-0.4-1-0.6-2.1-0.6-3.3c0-1.2,0.2-2.3,0.6-3.3c0.4-1,0.9-1.8,1.6-2.6s1.6-1.3,2.6-1.7
				c1-0.4,2.1-0.6,3.4-0.6c0.6,0,1.2,0,1.8,0.1c0.5,0.1,1,0.2,1.5,0.4s0.9,0.4,1.3,0.6c0.4,0.2,0.8,0.5,1.1,0.8l-0.7,1.1
				c-0.1,0.2-0.2,0.3-0.4,0.3c-0.2,0-0.4,0-0.5-0.1c-0.2-0.1-0.4-0.2-0.6-0.4c-0.2-0.1-0.5-0.3-0.8-0.4s-0.7-0.2-1.1-0.3
				c-0.4-0.1-0.9-0.1-1.5-0.1c-0.9,0-1.6,0.1-2.3,0.4s-1.3,0.7-1.8,1.2c-0.5,0.5-0.9,1.2-1.1,1.9c-0.3,0.7-0.4,1.6-0.4,2.5
				c0,1,0.1,1.8,0.4,2.6c0.3,0.8,0.7,1.4,1.2,1.9c0.5,0.5,1.1,0.9,1.9,1.2c0.7,0.3,1.5,0.4,2.4,0.4c0.4,0,0.7,0,1-0.1
				s0.6-0.1,0.9-0.2s0.5-0.2,0.8-0.3c0.3-0.1,0.5-0.2,0.8-0.4v-3.3h-2.3c-0.1,0-0.3,0-0.4-0.1s-0.1-0.2-0.1-0.3v-1.3H651.8z"/>
			<path d="M667.9,885.3v15.8h-2.3V894h-8.2v7.1h-2.4v-15.8h2.4v7h8.2v-7H667.9z"/>
		</g>
	</g>
	<g>
		<g>
			<path fill="#C6661E" d="M275.3,869.2l-105.8,0.1l-0.1-78.8c0-16.5,13.3-29.9,29.9-29.9l46-0.1c16.5,0,29.9,13.3,29.9,29.9
				L275.3,869.2z"/>
			<polygon fill="#FDCDB9" points="256,673.1 257.8,636.6 184.8,633 183.9,727.2 182,765.5 227.5,767.8 228.9,738.6 245.7,739.4 
				254.5,703.2 280.5,695.2 			"/>
			<path fill="#A04A3F" d="M216.2,679.8c0,0-10.6-17.1-18-9.4c-7.4,7.8-2.3,20,8.9,28.7c0,0-14,23.7-26.4,17.3s-27.6-66.7-3.3-96.6
				c20.5-25.3,50.6-9.3,74.6-1.1s40.6-3.2,40.6-3.2s-12,53.7-54.1,36.5S216.2,679.8,216.2,679.8z"/>
			<polygon fill="#D8AE9E" points="228.9,738.6 194.3,736.8 228.3,750.9 			"/>
			<path fill="#F07F23" d="M262.2,869.2l-105.8,0.1l-0.1-78.8c0-16.5,13.3-29.9,29.9-29.9l46-0.1c16.5,0,29.9,13.3,29.9,29.9
				L262.2,869.2z"/>
			
				<ellipse transform="matrix(4.966792e-02 -0.9988 0.9988 4.966792e-02 -491.5172 927.4086)" fill="#502B1B" cx="241.6" cy="722" rx="7.3" ry="6.3"/>
			<path fill="#FDCDB9" d="M312.8,746.9h-28.5v-27.8c0-7.9,6.4-14.3,14.3-14.3h0c7.9,0,14.3,6.4,14.3,14.3V746.9z"/>
			<path fill="#F07F23" d="M294.4,821.2l-16.9,0l-0.1-74.4l36.8,0l0.1,54.4C314.3,812.3,305.4,821.2,294.4,821.2z"/>
			<polygon fill="#C6661E" points="262.1,828 174.6,821.4 262.1,821.3 			"/>
			
				<rect x="178" y="780.4" transform="matrix(1 -1.095750e-03 1.095750e-03 1 -0.8774 0.2579)" fill="#F07F23" width="113.9" height="40.9"/>
			<polygon fill="#00C6E2" points="294.4,740.9 281.4,740.9 281.4,705.9 294.4,712.3 			"/>
			<rect x="272.6" y="730.4" fill="#00C6E2" width="16.8" height="10.5"/>
			<rect x="277.4" y="740.9" fill="#FDCDB9" width="11.1" height="6"/>
		</g>
		<g>
			<path d="M164.1,899.2c0.6,0,1.2-0.1,1.7-0.3c0.5-0.2,0.9-0.5,1.3-0.9s0.6-0.8,0.8-1.4c0.2-0.5,0.3-1.1,0.3-1.8v-9.6h2.3v9.6
				c0,0.9-0.1,1.8-0.4,2.6c-0.3,0.8-0.7,1.5-1.3,2c-0.5,0.6-1.2,1-2,1.3s-1.7,0.5-2.7,0.5s-1.9-0.2-2.7-0.5s-1.5-0.8-2-1.3
				c-0.6-0.6-1-1.3-1.3-2c-0.3-0.8-0.4-1.6-0.4-2.6v-9.6h2.3v9.5c0,0.6,0.1,1.2,0.3,1.8c0.2,0.5,0.4,1,0.8,1.4s0.8,0.7,1.3,0.9
				C162.9,899.1,163.4,899.2,164.1,899.2z"/>
			<path d="M182.3,887.9c-0.1,0.1-0.2,0.2-0.2,0.3c-0.1,0.1-0.2,0.1-0.3,0.1c-0.1,0-0.3-0.1-0.5-0.2c-0.2-0.1-0.4-0.3-0.6-0.4
				s-0.6-0.3-0.9-0.4s-0.8-0.2-1.3-0.2c-0.5,0-0.9,0.1-1.2,0.2s-0.6,0.3-0.9,0.5s-0.4,0.5-0.5,0.7c-0.1,0.3-0.2,0.6-0.2,0.9
				c0,0.4,0.1,0.8,0.3,1.1c0.2,0.3,0.5,0.5,0.9,0.7c0.4,0.2,0.8,0.4,1.2,0.5s0.9,0.3,1.4,0.5c0.5,0.2,0.9,0.3,1.4,0.5
				s0.8,0.5,1.2,0.8c0.4,0.3,0.6,0.7,0.9,1.1c0.2,0.5,0.3,1,0.3,1.7c0,0.7-0.1,1.3-0.4,2s-0.6,1.1-1,1.6c-0.5,0.5-1,0.8-1.7,1.1
				c-0.7,0.3-1.4,0.4-2.3,0.4c-0.5,0-1,0-1.5-0.1c-0.5-0.1-0.9-0.2-1.4-0.4s-0.8-0.4-1.2-0.6c-0.4-0.3-0.7-0.5-1-0.9l0.7-1.1
				c0.1-0.1,0.1-0.2,0.2-0.2c0.1-0.1,0.2-0.1,0.3-0.1c0.2,0,0.3,0.1,0.5,0.2s0.5,0.3,0.7,0.5c0.3,0.2,0.7,0.4,1.1,0.5
				c0.4,0.2,0.9,0.2,1.5,0.2c0.5,0,0.9-0.1,1.3-0.2c0.4-0.1,0.7-0.3,1-0.5c0.3-0.2,0.5-0.5,0.6-0.9c0.1-0.3,0.2-0.7,0.2-1.1
				c0-0.5-0.1-0.8-0.3-1.1s-0.5-0.5-0.8-0.7c-0.4-0.2-0.8-0.4-1.2-0.5s-0.9-0.3-1.4-0.4s-0.9-0.3-1.4-0.5s-0.8-0.5-1.2-0.8
				s-0.6-0.7-0.8-1.2c-0.2-0.5-0.3-1.1-0.3-1.8c0-0.6,0.1-1.1,0.3-1.6c0.2-0.5,0.5-1,1-1.4c0.4-0.4,0.9-0.7,1.6-1
				c0.6-0.2,1.3-0.4,2.1-0.4c0.9,0,1.7,0.1,2.4,0.4c0.7,0.3,1.4,0.7,1.9,1.2L182.3,887.9z"/>
			<path d="M195.9,899.2l0,1.9h-9.8v-15.8h9.8v1.9h-7.4v5h6v1.8h-6v5.1H195.9z"/>
			<path d="M206.7,901.1h-2.4v-15.8h2.4V901.1z"/>
			<path d="M223.5,885.3v15.8h-1.2c-0.2,0-0.3,0-0.5-0.1c-0.1-0.1-0.2-0.2-0.4-0.3l-8.9-11.5c0,0.2,0,0.4,0,0.6c0,0.2,0,0.4,0,0.5
				v10.8h-2.1v-15.8h1.2c0.2,0,0.4,0,0.5,0.1c0.1,0,0.2,0.2,0.3,0.3l8.9,11.6c0-0.2,0-0.4,0-0.6c0-0.2,0-0.4,0-0.6v-10.8H223.5z"/>
			<path d="M240.4,885.3v15.8H238V894h-8.2v7.1h-2.4v-15.8h2.4v7h8.2v-7H240.4z"/>
			<path d="M257.3,901.1h-1.8c-0.2,0-0.4-0.1-0.5-0.2c-0.1-0.1-0.2-0.2-0.3-0.4l-1.4-3.7h-7l-1.4,3.7c-0.1,0.1-0.1,0.3-0.3,0.4
				c-0.1,0.1-0.3,0.2-0.5,0.2h-1.8l6.3-15.8h2.4L257.3,901.1z M252.7,895.2l-2.3-6.1c-0.2-0.4-0.3-0.9-0.5-1.6
				c-0.1,0.3-0.2,0.6-0.2,0.9c-0.1,0.3-0.2,0.5-0.2,0.7l-2.3,6.1H252.7z"/>
			<path d="M268.3,899.1v2h-9v-15.8h2.3v13.8H268.3z"/>
			<path d="M280.4,899.2l0,1.9h-9.8v-15.8h9.8v1.9H273v5h6v1.8h-6v5.1H280.4z"/>
			<path d="M295.1,901.1H293c-0.4,0-0.7-0.2-0.9-0.5l-3.9-5.5c-0.1-0.2-0.3-0.3-0.4-0.4c-0.1-0.1-0.4-0.1-0.7-0.1h-1.5v6.5h-2.3
				v-15.8h4.6c1,0,1.9,0.1,2.6,0.3c0.7,0.2,1.3,0.5,1.8,0.9c0.5,0.4,0.8,0.8,1.1,1.4c0.2,0.5,0.3,1.2,0.3,1.8c0,0.5-0.1,1.1-0.3,1.6
				c-0.2,0.5-0.4,0.9-0.7,1.3s-0.7,0.7-1.2,1c-0.5,0.3-1,0.5-1.6,0.6c0.3,0.2,0.5,0.4,0.8,0.7L295.1,901.1z M287.8,892.9
				c0.6,0,1.1-0.1,1.6-0.2c0.5-0.1,0.8-0.4,1.1-0.6s0.5-0.6,0.7-1s0.2-0.8,0.2-1.2c0-0.9-0.3-1.6-0.9-2.1s-1.5-0.7-2.7-0.7h-2.2v5.8
				H287.8z"/>
		</g>
	</g>
</g>
</svg>
