<?xml version="1.0" encoding="iso-8859-1"?>
<!-- Generator: Adobe Illustrator 18.0.0, SVG Export Plug-In . SVG Version: 6.00 Build 0)  -->
<!DOCTYPE svg PUBLIC "-//W3C//DTD SVG 1.0//EN" "http://www.w3.org/TR/2001/REC-SVG-20010904/DTD/svg10.dtd">
<svg version="1.0" id="artwork" xmlns="http://www.w3.org/2000/svg" xmlns:xlink="http://www.w3.org/1999/xlink" x="0px" y="0px"
	 width="1400px" height="980px" viewBox="0 0 1400 980" style="enable-background:new 0 0 1400 980;" xml:space="preserve">
<pattern  width="55.99" height="55.99" patternUnits="userSpaceOnUse" id="New_Pattern" viewBox="0 -69.99 55.99 55.99" style="overflow:visible;">
	<g>
		<polygon style="fill:none;" points="0,-69.99 55.99,-69.99 55.99,-14 0,-14 		"/>
		<g>
			<polygon style="fill:#F1F2F2;" points="55.99,0 27.99,0 27.99,-27.99 55.99,-27.99 			"/>
		</g>
		<g>
			<polygon style="fill:#FFFFFF;" points="27.99,0 0,0 0,-27.99 27.99,-27.99 			"/>
		</g>
		<g>
			<polygon style="fill:#F1F2F2;" points="27.99,-27.99 0,-27.99 0,-55.99 27.99,-55.99 			"/>
			<polygon style="fill:#FFFFFF;" points="55.99,-27.99 27.99,-27.99 27.99,-55.99 55.99,-55.99 			"/>
		</g>
		<g>
			<polygon style="fill:#F1F2F2;" points="55.99,-55.99 27.99,-55.99 27.99,-83.98 55.99,-83.98 			"/>
		</g>
		<g>
			<polygon style="fill:#FFFFFF;" points="27.99,-55.99 0,-55.99 0,-83.98 27.99,-83.98 			"/>
		</g>
	</g>
</pattern>
<rect style="fill:url(#New_Pattern);" width="1400" height="980"/>
<g>
	<g>
		<path style="fill:#F7C297;" d="M1077.02,165.64l-29.4,29.4c-0.3,0.3-0.59,0.62-0.86,0.95c-0.12,0.15-0.23,0.31-0.34,0.46
			c-0.14,0.18-0.28,0.36-0.41,0.55c-0.12,0.18-0.23,0.37-0.34,0.56c-0.1,0.17-0.21,0.34-0.31,0.52c-0.1,0.19-0.19,0.39-0.28,0.58
			c-0.09,0.19-0.18,0.37-0.26,0.56c-0.08,0.19-0.14,0.39-0.21,0.58c-0.07,0.2-0.15,0.4-0.21,0.61c-0.06,0.19-0.1,0.39-0.15,0.59
			c-0.05,0.21-0.11,0.42-0.16,0.64c-0.04,0.23-0.07,0.45-0.1,0.68c-0.03,0.19-0.06,0.38-0.08,0.57c-0.04,0.42-0.06,0.85-0.06,1.27v0
			c0,0.42,0.02,0.85,0.06,1.27c0.02,0.19,0.05,0.38,0.08,0.57c0.03,0.23,0.06,0.45,0.1,0.68c0.04,0.22,0.1,0.43,0.16,0.64
			c0.05,0.2,0.09,0.39,0.15,0.59c0.06,0.21,0.14,0.41,0.22,0.61c0.07,0.19,0.13,0.39,0.21,0.58c0.08,0.19,0.17,0.37,0.26,0.56
			c0.09,0.2,0.18,0.39,0.28,0.58c0.1,0.18,0.2,0.35,0.31,0.52c0.11,0.19,0.22,0.38,0.34,0.56c0.13,0.19,0.27,0.37,0.41,0.55
			c0.11,0.15,0.22,0.31,0.34,0.46c0.54,0.66,1.14,1.26,1.8,1.8c0.15,0.12,0.31,0.23,0.46,0.34c0.18,0.14,0.36,0.28,0.55,0.41
			c0.18,0.12,0.37,0.23,0.56,0.34c0.17,0.1,0.34,0.21,0.52,0.31c0.19,0.1,0.39,0.19,0.58,0.28c0.19,0.09,0.37,0.18,0.56,0.26
			c0.19,0.08,0.39,0.14,0.58,0.21c0.2,0.07,0.4,0.15,0.61,0.21c0.19,0.06,0.39,0.1,0.59,0.15c0.21,0.05,0.42,0.11,0.64,0.16
			c0.23,0.04,0.45,0.07,0.68,0.1c0.19,0.03,0.38,0.06,0.57,0.08c0.42,0.04,0.85,0.06,1.27,0.06h21.23v-25.83h9.95l7.36-7.36
			c5.04-5.04,5.04-13.22,0-18.26C1090.24,160.6,1082.07,160.6,1077.02,165.64z M1167.82,152.9v-17.45c0-0.3-0.01-0.6-0.02-0.9
			c-2.32,1.21-4.95,1.9-7.74,1.9c-4.25,0-8.12-1.59-11.08-4.18c-3.95,2.64-8.7,4.18-13.81,4.18c-5.34,0-10.29-1.69-14.34-4.55
			c-3.01,2.82-7.04,4.55-11.49,4.55c-2.43,0-4.73-0.53-6.82-1.45c0,0.15-0.01,0.3-0.01,0.46v17.45c0,0.43,0.02,0.85,0.03,1.27
			c0.47,12.35,7.8,22.95,18.29,28.08c4.33,2.12,9.19,3.31,14.33,3.31h0c5.14,0,10.01-1.19,14.33-3.31
			c10.49-5.13,17.82-15.73,18.29-28.08C1167.8,153.75,1167.82,153.33,1167.82,152.9z M1158.56,226.54v55.17
			c0,1.53,0.28,2.99,0.77,4.35c1.79,4.99,6.54,8.56,12.15,8.56c7.13,0,12.91-5.78,12.91-12.91v-55.17H1158.56z"/>
		<path style="fill:#A97C50;" d="M1169.4,388.24c-3.25-4.09-8.26-6.71-13.89-6.71c-5.63,0-10.64,2.63-13.89,6.71
			c-2.42,3.03-3.87,6.87-3.87,11.05h35.52C1173.27,395.11,1171.82,391.27,1169.4,388.24z M1114.81,381.53
			c-5.63,0-10.64,2.63-13.89,6.71c-2.42,3.03-3.87,6.87-3.87,11.05h35.52c0-4.18-1.45-8.01-3.87-11.05
			C1125.45,384.15,1120.44,381.53,1114.81,381.53z"/>
		<path style="fill:#414042;" d="M1172.26,131.18c2.85-3.02,4.62-7.07,4.62-11.55c0-9.29-7.53-16.83-16.83-16.83
			c-0.53,0-1.05,0.03-1.56,0.08c-3.52-9.47-12.64-16.21-23.33-16.21c-10.74,0-19.89,6.8-23.38,16.33c-0.8-0.12-1.61-0.2-2.45-0.2
			c-9.29,0-16.83,7.53-16.83,16.83c0,4.91,2.11,9.31,5.47,12.39c-0.1,1.1-0.16,2.22-0.16,3.35c0,0.03,0,0.07,0,0.1l4.7,17.45v-17.45
			c0-0.15,0.01-0.3,0.01-0.46c2.09,0.93,4.39,1.45,6.82,1.45c4.45,0,8.48-1.74,11.49-4.55c4.05,2.86,9,4.55,14.34,4.55
			c5.11,0,9.86-1.54,13.81-4.18c2.96,2.6,6.83,4.18,11.08,4.18c2.79,0,5.42-0.69,7.74-1.9c0.01,0.3,0.02,0.6,0.02,0.9v17.45
			l4.7-17.45c0-0.03,0-0.07,0-0.1C1172.51,133.94,1172.42,132.55,1172.26,131.18z"/>
		<path style="fill:#1A1A1A;" d="M1152.67,149.85h-3.7c-1.19,0-2.16,0.97-2.16,2.16s0.97,2.16,2.16,2.16h3.7
			c1.19,0,2.16-0.97,2.16-2.16S1153.87,149.85,1152.67,149.85z M1115.99,146.87l8.17-2.26c1.15-0.32,1.83-1.51,1.51-2.66
			c-0.32-1.15-1.51-1.83-2.66-1.51l-8.17,2.26c-1.15,0.32-1.83,1.51-1.51,2.66C1113.65,146.52,1114.84,147.19,1115.99,146.87z
			 M1146.17,144.62l8.17,2.26c1.15,0.32,2.34-0.36,2.66-1.51c0.32-1.15-0.36-2.34-1.51-2.66l-8.17-2.26
			c-1.15-0.32-2.34,0.36-2.66,1.51C1144.34,143.11,1145.02,144.3,1146.17,144.62z M1117.65,149.85c-1.19,0-2.16,0.97-2.16,2.16
			s0.97,2.16,2.16,2.16h3.7c1.19,0,2.16-0.97,2.16-2.16s-0.97-2.16-2.16-2.16H1117.65z M1159.32,286.06h-60.47v102.18h2.07
			c3.25-4.09,8.26-6.71,13.89-6.71s10.64,2.63,13.89,6.71h2.77l3.68-62.87l3.68,62.87h2.77c3.25-4.09,8.26-6.71,13.89-6.71
			c5.63,0,10.64,2.63,13.89,6.71h2.07v-93.62C1165.87,294.62,1161.11,291.05,1159.32,286.06z"/>
		<path style="fill:#F7C297;" d="M1077.02,165.64l-29.4,29.4c-0.3,0.3-0.59,0.62-0.86,0.95c-0.12,0.15-0.23,0.31-0.34,0.46
			c-0.14,0.18-0.28,0.36-0.41,0.55c-0.12,0.18-0.23,0.37-0.34,0.56c-0.1,0.17-0.21,0.34-0.31,0.52c-0.1,0.19-0.19,0.39-0.28,0.58
			c-0.09,0.19-0.18,0.37-0.26,0.56c-0.08,0.19-0.14,0.39-0.21,0.58c-0.07,0.2-0.15,0.4-0.21,0.61c-0.06,0.19-0.1,0.39-0.15,0.59
			c-0.05,0.21-0.11,0.42-0.16,0.64c-0.04,0.23-0.07,0.45-0.1,0.68c-0.03,0.19-0.06,0.38-0.08,0.57c-0.04,0.42-0.06,0.85-0.06,1.27
			c0,0,0,0,0,0c0,0.42,0.02,0.85,0.06,1.27c0.02,0.19,0.05,0.38,0.08,0.57c0.03,0.23,0.06,0.45,0.1,0.68
			c0.04,0.22,0.1,0.43,0.16,0.64c0.05,0.2,0.09,0.39,0.15,0.59c0.06,0.21,0.14,0.41,0.22,0.61c0.07,0.19,0.13,0.39,0.21,0.58
			c0.08,0.19,0.17,0.37,0.26,0.56c0.09,0.2,0.18,0.39,0.28,0.58c0.1,0.18,0.2,0.35,0.31,0.52c0.11,0.19,0.22,0.38,0.34,0.56
			c0.13,0.19,0.27,0.37,0.41,0.55c0.11,0.15,0.22,0.31,0.34,0.46c0.54,0.66,1.14,1.26,1.8,1.8c0.15,0.12,0.31,0.23,0.46,0.34
			c0.18,0.14,0.36,0.28,0.55,0.41c0.18,0.12,0.37,0.23,0.56,0.34c0.17,0.1,0.34,0.21,0.52,0.31c0.19,0.1,0.39,0.19,0.58,0.28
			c0.19,0.09,0.37,0.18,0.56,0.26c0.19,0.08,0.39,0.14,0.58,0.21c0.2,0.07,0.4,0.15,0.61,0.21c0.19,0.06,0.39,0.1,0.59,0.15
			c0.21,0.05,0.42,0.11,0.64,0.16c0.23,0.04,0.45,0.07,0.68,0.1c0.19,0.03,0.38,0.06,0.57,0.08c0.42,0.04,0.85,0.06,1.27,0.06h21.23
			v-25.83h9.95l7.36-7.36c5.04-5.04,5.04-13.22,0-18.26C1090.24,160.6,1082.07,160.6,1077.02,165.64z M1167.82,152.9v-17.45
			c0-0.3-0.01-0.6-0.02-0.9c-2.32,1.21-4.95,1.9-7.74,1.9c-4.25,0-8.12-1.59-11.08-4.18c-3.95,2.64-8.7,4.18-13.81,4.18
			c-5.34,0-10.29-1.69-14.34-4.55c-3.01,2.82-7.04,4.55-11.49,4.55c-2.43,0-4.73-0.53-6.82-1.45c0,0.15-0.01,0.3-0.01,0.46v17.45
			c0,0.43,0.02,0.85,0.03,1.27c0.47,12.35,7.8,22.95,18.29,28.08c4.33,2.12,9.19,3.31,14.33,3.31h0c5.14,0,10.01-1.19,14.33-3.31
			c10.49-5.13,17.82-15.73,18.29-28.08C1167.8,153.75,1167.82,153.33,1167.82,152.9z M1121.34,154.17h-3.7
			c-1.19,0-2.16-0.97-2.16-2.16s0.97-2.16,2.16-2.16h3.7c1.19,0,2.16,0.97,2.16,2.16S1122.54,154.17,1121.34,154.17z
			 M1124.16,144.62l-8.17,2.26c-1.15,0.32-2.34-0.36-2.66-1.51c-0.32-1.15,0.36-2.34,1.51-2.66l8.17-2.26
			c1.15-0.32,2.34,0.36,2.66,1.51C1125.98,143.11,1125.31,144.3,1124.16,144.62z M1135.16,175.02c-2.13,0-3.86-1.73-3.86-3.86
			c0-2.13,1.73-3.86,3.86-3.86c2.13,0,3.86,1.73,3.86,3.86C1139.02,173.29,1137.29,175.02,1135.16,175.02z M1152.67,154.17h-3.7
			c-1.19,0-2.16-0.97-2.16-2.16s0.97-2.16,2.16-2.16h3.7c1.19,0,2.16,0.97,2.16,2.16S1153.87,154.17,1152.67,154.17z
			 M1156.99,145.37c-0.32,1.15-1.51,1.83-2.66,1.51l-8.17-2.26c-1.15-0.32-1.83-1.51-1.51-2.66c0.32-1.15,1.51-1.83,2.66-1.51
			l8.17,2.26C1156.64,143.03,1157.31,144.22,1156.99,145.37z M1158.56,226.54v55.17c0,1.53,0.28,2.99,0.77,4.35
			c1.79,4.99,6.54,8.56,12.15,8.56c7.13,0,12.91-5.78,12.91-12.91v-55.17H1158.56z"/>
		<path style="fill:#9E1F63;" d="M1184.38,226.54v-22.36c0-7.13-5.78-12.91-12.91-12.91h-21.98c-0.02,7.9-6.43,14.3-14.33,14.3
			s-14.32-6.4-14.33-14.3h-42.85v25.83h20.87v68.97h60.47c-0.49-1.36-0.77-2.82-0.77-4.35v-55.17H1184.38z"/>
		<path style="fill:#EB9877;" d="M1097.81,135.45c0-0.03,0-0.07,0-0.1c-3.15,1.68-5.3,5-5.3,8.82c0,5.52,4.48,10,10,10
			c0.01,0,0.02,0,0.03,0c-0.02-0.42-0.03-0.84-0.03-1.27L1097.81,135.45z M1135.16,175.02c2.13,0,3.86-1.73,3.86-3.86
			c0-2.13-1.73-3.86-3.86-3.86c-2.13,0-3.86,1.73-3.86,3.86C1131.3,173.29,1133.03,175.02,1135.16,175.02z M1149.5,182.25
			c-4.33,2.12-9.19,3.31-14.33,3.31h0c-5.14,0-10.01-1.19-14.33-3.31v8.98h0c0,0.01,0,0.02,0,0.03c0.02,7.9,6.43,14.3,14.33,14.3
			s14.32-6.4,14.33-14.3c0-0.01,0-0.02,0-0.03h0V182.25z M1172.51,135.36c0,0.03,0,0.07,0,0.1l-4.7,17.45
			c0,0.43-0.02,0.85-0.03,1.27c0.01,0,0.02,0,0.03,0c5.52,0,10-4.48,10-10C1177.81,140.36,1175.67,137.04,1172.51,135.36z"/>
	</g>
	<g id="XMLID_77_">
		<path id="XMLID_179_" style="fill:#C4E6E0;" d="M1121.42,176.37c-0.81,0.81-0.81,2.13,0,2.94c0.81,0.81,2.13,0.81,2.94,0
			c0.81-0.81,1.87-3.18,1.06-3.99C1124.6,174.5,1122.23,175.56,1121.42,176.37z"/>
		<path id="XMLID_116_" style="fill:#C4E6E0;" d="M1125.41,167c0.81-0.81-0.24-3.18-1.06-3.99c-0.81-0.81-2.13-0.81-2.94,0
			c-0.81,0.81-0.81,2.13,0,2.94C1122.23,166.76,1124.6,167.82,1125.41,167z"/>
		<path id="XMLID_78_" style="fill:#C4E6E0;" d="M1121.6,171.16c0-1.15-2.42-2.08-3.57-2.08c-1.15,0-2.08,0.93-2.08,2.08
			c0,1.15,0.93,2.08,2.08,2.08C1119.17,173.24,1121.6,172.31,1121.6,171.16z"/>
	</g>
</g>
<g>
	<g>
		<path style="fill:#F7C297;" d="M872.55,152.9v-17.45c0-0.3-0.01-0.6-0.02-0.9c-2.32,1.21-4.95,1.9-7.74,1.9
			c-4.25,0-8.12-1.59-11.08-4.18c-3.95,2.64-8.7,4.18-13.81,4.18c-5.34,0-10.29-1.69-14.34-4.55c-3.01,2.82-7.04,4.55-11.49,4.55
			c-2.43,0-4.73-0.53-6.82-1.45c0,0.15-0.01,0.3-0.01,0.46v17.45c0,0.43,0.02,0.85,0.03,1.27c0.47,12.35,7.8,22.95,18.29,28.08
			c4.33,2.12,9.19,3.31,14.33,3.31h0c5.14,0,10.01-1.19,14.33-3.31c10.49-5.13,17.82-15.73,18.29-28.08
			C872.54,153.75,872.55,153.33,872.55,152.9z M863.29,226.54v55.17c0,1.53,0.28,2.99,0.77,4.35c1.79,4.99,6.54,8.56,12.15,8.56
			c7.13,0,12.91-5.78,12.91-12.91v-55.17H863.29z"/>
		<path style="fill:#A97C50;" d="M819.55,381.53c-5.63,0-10.64,2.63-13.89,6.71c-2.42,3.03-3.87,6.87-3.87,11.05h35.52
			c0-4.18-1.45-8.01-3.87-11.05C830.18,384.15,825.18,381.53,819.55,381.53z M874.13,388.24c-3.25-4.09-8.26-6.71-13.89-6.71
			c-5.63,0-10.64,2.63-13.89,6.71c-2.42,3.03-3.87,6.87-3.87,11.05H878C878,395.11,876.55,391.27,874.13,388.24z"/>
		<path style="fill:#414042;" d="M807.24,152.9L807.24,152.9L807.24,152.9v-17.45c0-0.15,0.01-0.3,0.01-0.46
			c2.09,0.93,4.39,1.45,6.82,1.45c4.45,0,8.48-1.74,11.49-4.55c4.05,2.86,9,4.55,14.34,4.55c5.11,0,9.86-1.54,13.81-4.18
			c2.96,2.6,6.83,4.18,11.08,4.18c2.79,0,5.42-0.69,7.74-1.9c0.01,0.3,0.02,0.6,0.02,0.9v17.45v0l0,0l4.7-17.45c0-0.03,0-0.07,0-0.1
			c0-1.41-0.09-2.81-0.25-4.18c2.85-3.02,4.62-7.07,4.62-11.55c0-9.29-7.53-16.83-16.83-16.83c-0.53,0-1.05,0.03-1.56,0.08
			c-3.52-9.47-12.64-16.21-23.33-16.21c-10.74,0-19.89,6.8-23.38,16.33c-0.8-0.12-1.61-0.2-2.45-0.2c-9.29,0-16.83,7.53-16.83,16.83
			c0,4.91,2.11,9.31,5.47,12.39c-0.1,1.1-0.16,2.22-0.16,3.35c0,0.03,0,0.07,0,0.1L807.24,152.9z"/>
		<path style="fill:#1A1A1A;" d="M820.72,146.87l8.17-2.26c1.15-0.32,1.83-1.51,1.51-2.66c-0.32-1.15-1.51-1.83-2.66-1.51
			l-8.17,2.26c-1.15,0.32-1.83,1.51-1.51,2.66C818.38,146.52,819.57,147.19,820.72,146.87z M857.41,149.85h-3.7
			c-1.19,0-2.16,0.97-2.16,2.16s0.97,2.16,2.16,2.16h3.7c1.19,0,2.16-0.97,2.16-2.16S858.6,149.85,857.41,149.85z M850.9,144.62
			l8.17,2.26c1.15,0.32,2.34-0.36,2.66-1.51c0.32-1.15-0.36-2.34-1.51-2.66l-8.17-2.26c-1.15-0.32-2.34,0.36-2.66,1.51
			C849.07,143.11,849.75,144.3,850.9,144.62z M864.06,286.06h-60.47v102.18h2.07c3.25-4.09,8.26-6.71,13.89-6.71
			c5.63,0,10.64,2.63,13.89,6.71h2.77l3.68-62.87l3.68,62.87h2.77c3.25-4.09,8.26-6.71,13.89-6.71c5.63,0,10.64,2.63,13.89,6.71
			h2.07v-93.62C870.6,294.62,865.84,291.05,864.06,286.06z M822.38,149.85c-1.19,0-2.16,0.97-2.16,2.16s0.97,2.16,2.16,2.16h3.7
			c1.19,0,2.16-0.97,2.16-2.16s-0.97-2.16-2.16-2.16H822.38z"/>
		<path style="fill:#F7C297;" d="M863.29,226.54v55.17c0,1.53,0.28,2.99,0.77,4.35c1.79,4.99,6.54,8.56,12.15,8.56
			c7.13,0,12.91-5.78,12.91-12.91v-55.17H863.29z M872.55,152.9v-17.45c0-0.3-0.01-0.6-0.02-0.9c-2.32,1.21-4.95,1.9-7.74,1.9
			c-4.25,0-8.12-1.59-11.08-4.18c-3.95,2.64-8.7,4.18-13.81,4.18c-5.34,0-10.29-1.69-14.34-4.55c-3.01,2.82-7.04,4.55-11.49,4.55
			c-2.43,0-4.73-0.53-6.82-1.45c0,0.15-0.01,0.3-0.01,0.46v17.45c0,0.43,0.02,0.85,0.03,1.27c0.47,12.35,7.8,22.95,18.29,28.08
			c4.33,2.12,9.19,3.31,14.33,3.31h0c5.14,0,10.01-1.19,14.33-3.31c10.49-5.13,17.82-15.73,18.29-28.08
			C872.54,153.75,872.55,153.33,872.55,152.9z M826.08,154.17h-3.7c-1.19,0-2.16-0.97-2.16-2.16s0.97-2.16,2.16-2.16h3.7
			c1.19,0,2.16,0.97,2.16,2.16S827.27,154.17,826.08,154.17z M828.89,144.62l-8.17,2.26c-1.15,0.32-2.34-0.36-2.66-1.51
			c-0.32-1.15,0.36-2.34,1.51-2.66l8.17-2.26c1.15-0.32,2.34,0.36,2.66,1.51C830.72,143.11,830.04,144.3,828.89,144.62z
			 M839.89,175.02c-2.13,0-3.86-1.73-3.86-3.86c0-2.13,1.73-3.86,3.86-3.86c2.13,0,3.86,1.73,3.86,3.86
			C843.76,173.29,842.03,175.02,839.89,175.02z M857.41,154.17h-3.7c-1.19,0-2.16-0.97-2.16-2.16s0.97-2.16,2.16-2.16h3.7
			c1.19,0,2.16,0.97,2.16,2.16S858.6,154.17,857.41,154.17z M861.73,145.37c-0.32,1.15-1.51,1.83-2.66,1.51l-8.17-2.26
			c-1.15-0.32-1.83-1.51-1.51-2.66c0.32-1.15,1.51-1.83,2.66-1.51l8.17,2.26C861.37,143.03,862.04,144.22,861.73,145.37z"/>
		<path style="fill:#9E1F63;" d="M889.12,226.54v-22.36c0-7.13-5.78-12.91-12.91-12.91h-21.98c-0.02,7.9-6.43,14.3-14.33,14.3
			s-14.32-6.4-14.33-14.3h-21.98v94.79h60.47c-0.49-1.36-0.77-2.82-0.77-4.35v-55.17H889.12z"/>
		<path style="fill:#EB9877;" d="M839.89,175.02c2.13,0,3.86-1.73,3.86-3.86c0-2.13-1.73-3.86-3.86-3.86
			c-2.13,0-3.86,1.73-3.86,3.86C836.03,173.29,837.76,175.02,839.89,175.02z M802.54,135.45c0-0.03,0-0.07,0-0.1
			c-3.15,1.68-5.3,5-5.3,8.82c0,5.52,4.48,10,10,10c0.01,0,0.02,0,0.03,0c-0.02-0.42-0.03-0.84-0.03-1.27L802.54,135.45z
			 M839.89,185.56c-5.14,0-10.01-1.19-14.33-3.31v8.98c0,0.01,0,0.02,0,0.03c0.02,7.9,6.43,14.3,14.33,14.3s14.32-6.4,14.33-14.3
			c0-0.01,0-0.02,0-0.03v-8.98C849.9,184.37,845.04,185.56,839.89,185.56L839.89,185.56z M877.25,135.36c0,0.03,0,0.07,0,0.1
			l-4.7,17.45c0,0.43-0.02,0.85-0.03,1.27c0.01,0,0.02,0,0.03,0c5.52,0,10-4.48,10-10C882.55,140.36,880.4,137.04,877.25,135.36z"/>
	</g>
	<g>
		<g>
			<polygon style="fill:#EF4136;" points="856.74,244.84 856.12,247.37 860.66,251.49 859.78,254.82 854.44,255.19 856.64,261.28 
				853.62,263.31 847.6,259.37 845.53,261.25 843.27,264.23 840.2,267.36 837.53,261.62 833.69,264.86 832.38,260.18 829.24,259.92 
				828.73,256.3 825.88,255.24 821.44,254.4 817.98,252.06 816.64,248.57 817.94,244.84 823.25,242.15 823.9,239.54 821.48,235.3 
				827.04,235.29 827.79,232.43 828.29,228.46 831.68,228.13 834.36,226.89 836.53,221.65 840.2,222.57 843.53,223.81 
				847.48,222.42 849.43,226.72 850.45,230.72 852.13,232.9 855.08,234.03 855.7,236.94 861.43,237.94 859.59,241.77 			"/>
		</g>
		<g>
			<path style="fill:#F7C297;" d="M844.52,231.6H817.1v-5.06h-25.83v17.97c0,7.13,5.78,12.91,12.91,12.91h40.33
				c7.13,0,12.91-5.78,12.91-12.91C857.43,237.38,851.65,231.6,844.52,231.6z"/>
			<path style="fill:#9E1F63;" d="M817.1,204.18c0-7.13-5.78-12.91-12.91-12.91c-7.13,0-12.91,5.78-12.91,12.91v22.36h25.83V204.18z
				"/>
		</g>
	</g>
</g>
<g>
	<g>
		<path style="fill:#F7C297;" d="M570.6,231.6h-27.42v-5.06h-25.83v17.97c0,6.93,5.46,12.57,12.31,12.88c0.2,0.01,0.4,0.03,0.6,0.03
			h40.33c7.13,0,12.91-5.78,12.91-12.91C583.52,237.38,577.74,231.6,570.6,231.6z M598.64,152.9v-17.45c0-0.3-0.01-0.6-0.02-0.9
			c-2.32,1.21-4.95,1.9-7.74,1.9c-4.25,0-8.12-1.59-11.08-4.18c-3.95,2.64-8.7,4.18-13.81,4.18c-5.34,0-10.29-1.69-14.34-4.55
			c-3.01,2.82-7.04,4.55-11.49,4.55c-2.43,0-4.73-0.53-6.82-1.45c0,0.15-0.01,0.3-0.01,0.46v17.45c0,0.43,0.02,0.85,0.03,1.27
			c0.47,12.35,7.8,22.95,18.29,28.08c4.33,2.12,9.19,3.31,14.33,3.31h0c5.14,0,10.01-1.19,14.33-3.31
			c10.49-5.13,17.82-15.73,18.29-28.08C598.62,153.75,598.64,153.33,598.64,152.9z M589.38,226.54v55.17c0,1.53,0.28,2.99,0.77,4.35
			c1.79,4.99,6.54,8.56,12.15,8.56c7.13,0,12.91-5.78,12.91-12.91v-55.17H589.38z"/>
		<path style="fill:#A97C50;" d="M545.63,381.53c-5.63,0-10.64,2.63-13.89,6.71c-2.42,3.03-3.87,6.87-3.87,11.05h35.52
			c0-4.18-1.45-8.01-3.87-11.05C556.27,384.15,551.26,381.53,545.63,381.53z M600.22,388.24c-3.25-4.09-8.26-6.71-13.89-6.71
			c-5.63,0-10.64,2.63-13.89,6.71c-2.42,3.03-3.87,6.87-3.87,11.05h35.52C604.09,395.11,602.63,391.27,600.22,388.24z"/>
		<path style="fill:#414042;" d="M603.08,131.18c2.85-3.02,4.62-7.07,4.62-11.55c0-9.29-7.53-16.83-16.83-16.83
			c-0.53,0-1.05,0.03-1.56,0.08c-3.52-9.47-12.64-16.21-23.33-16.21c-10.74,0-19.89,6.8-23.38,16.33c-0.8-0.12-1.61-0.2-2.45-0.2
			c-9.29,0-16.83,7.53-16.83,16.83c0,4.91,2.11,9.31,5.47,12.39c-0.1,1.1-0.16,2.22-0.16,3.35c0,0.03,0,0.07,0,0.1l4.7,17.45v-17.45
			c0-0.15,0.01-0.3,0.01-0.46c2.09,0.93,4.39,1.45,6.82,1.45c4.45,0,8.48-1.74,11.49-4.55c4.05,2.86,9,4.55,14.34,4.55
			c5.11,0,9.86-1.54,13.81-4.18c2.96,2.6,6.83,4.18,11.08,4.18c2.79,0,5.42-0.69,7.74-1.9c0.01,0.3,0.02,0.6,0.02,0.9v17.45
			l4.7-17.45c0-0.03,0-0.07,0-0.1C603.33,133.94,603.24,132.55,603.08,131.18z"/>
		<path style="fill:#1A1A1A;" d="M576.98,144.62l8.17,2.26c1.15,0.32,2.34-0.36,2.66-1.51c0.32-1.15-0.36-2.34-1.51-2.66l-8.17-2.26
			c-1.15-0.32-2.34,0.36-2.66,1.51C575.16,143.11,575.83,144.3,576.98,144.62z M546.8,146.87l8.17-2.26
			c1.15-0.32,1.83-1.51,1.51-2.66c-0.32-1.15-1.51-1.83-2.66-1.51l-8.17,2.26c-1.15,0.32-1.83,1.51-1.51,2.66
			C544.46,146.52,545.65,147.19,546.8,146.87z M583.49,149.85h-3.7c-1.19,0-2.16,0.97-2.16,2.16s0.97,2.16,2.16,2.16h3.7
			c1.19,0,2.16-0.97,2.16-2.16S584.69,149.85,583.49,149.85z M590.14,286.06h-60.47v102.18h2.07c3.25-4.09,8.26-6.71,13.89-6.71
			c5.63,0,10.64,2.63,13.89,6.71h2.77l3.68-62.87l3.68,62.87h2.77c3.25-4.09,8.26-6.71,13.89-6.71c5.63,0,10.64,2.63,13.89,6.71
			h2.07v-93.62C596.69,294.62,591.93,291.05,590.14,286.06z M548.47,149.85c-1.19,0-2.16,0.97-2.16,2.16s0.97,2.16,2.16,2.16h3.7
			c1.19,0,2.16-0.97,2.16-2.16s-0.97-2.16-2.16-2.16H548.47z"/>
		<path style="fill:#F7C297;" d="M570.6,231.6h-27.42v-5.06h-25.83v17.97c0,6.93,5.46,12.57,12.31,12.88c0.2,0.01,0.4,0.03,0.6,0.03
			h40.33c7.13,0,12.91-5.78,12.91-12.91C583.52,237.38,577.74,231.6,570.6,231.6z M589.38,226.54v55.17c0,1.53,0.28,2.99,0.77,4.35
			c1.79,4.99,6.54,8.56,12.15,8.56c7.13,0,12.91-5.78,12.91-12.91v-55.17H589.38z M598.64,152.9v-17.45c0-0.3-0.01-0.6-0.02-0.9
			c-2.32,1.21-4.95,1.9-7.74,1.9c-4.25,0-8.12-1.59-11.08-4.18c-3.95,2.64-8.7,4.18-13.81,4.18c-5.34,0-10.29-1.69-14.34-4.55
			c-3.01,2.82-7.04,4.55-11.49,4.55c-2.43,0-4.73-0.53-6.82-1.45c0,0.15-0.01,0.3-0.01,0.46v17.45c0,0.43,0.02,0.85,0.03,1.27
			c0.47,12.35,7.8,22.95,18.29,28.08c4.33,2.12,9.19,3.31,14.33,3.31h0c5.14,0,10.01-1.19,14.33-3.31
			c10.49-5.13,17.82-15.73,18.29-28.08C598.62,153.75,598.64,153.33,598.64,152.9z M552.16,154.17h-3.7c-1.19,0-2.16-0.97-2.16-2.16
			s0.97-2.16,2.16-2.16h3.7c1.19,0,2.16,0.97,2.16,2.16S553.36,154.17,552.16,154.17z M554.98,144.62l-8.17,2.26
			c-1.15,0.32-2.34-0.36-2.66-1.51c-0.32-1.15,0.36-2.34,1.51-2.66l8.17-2.26c1.15-0.32,2.34,0.36,2.66,1.51
			C556.8,143.11,556.13,144.3,554.98,144.62z M565.98,175.02c-2.13,0-3.86-1.73-3.86-3.86c0-2.13,1.73-3.86,3.86-3.86
			c2.13,0,3.86,1.73,3.86,3.86C569.84,173.29,568.11,175.02,565.98,175.02z M583.49,154.17h-3.7c-1.19,0-2.16-0.97-2.16-2.16
			s0.97-2.16,2.16-2.16h3.7c1.19,0,2.16,0.97,2.16,2.16S584.69,154.17,583.49,154.17z M587.81,145.37
			c-0.32,1.15-1.51,1.83-2.66,1.51l-8.17-2.26c-1.15-0.32-1.83-1.51-1.51-2.66c0.32-1.15,1.51-1.83,2.66-1.51l8.17,2.26
			C587.46,143.03,588.13,144.22,587.81,145.37z"/>
		<path style="fill:#9E1F63;" d="M615.2,226.54v-22.36c0-7.13-5.78-12.91-12.91-12.91h-21.98c-0.02,7.9-6.43,14.3-14.33,14.3
			s-14.32-6.4-14.33-14.3h-21.98v0.03c-6.85,0.32-12.31,5.95-12.31,12.88v22.36h25.83v5.06h27.42c7.13,0,12.91,5.78,12.91,12.91
			c0,7.13-5.78,12.91-12.91,12.91h-40.33c-0.2,0-0.4-0.02-0.6-0.03v28.67h60.47c-0.49-1.36-0.77-2.82-0.77-4.35v-55.17H615.2z"/>
		<path style="fill:#EB9877;" d="M528.63,135.45c0-0.03,0-0.07,0-0.1c-3.15,1.68-5.3,5-5.3,8.82c0,5.52,4.48,10,10,10
			c0.01,0,0.02,0,0.03,0c-0.02-0.42-0.03-0.84-0.03-1.27L528.63,135.45z M565.98,175.02c2.13,0,3.86-1.73,3.86-3.86
			c0-2.13-1.73-3.86-3.86-3.86c-2.13,0-3.86,1.73-3.86,3.86C562.12,173.29,563.85,175.02,565.98,175.02z M603.33,135.36
			c0,0.03,0,0.07,0,0.1l-4.7,17.45c0,0.43-0.02,0.85-0.03,1.27c0.01,0,0.02,0,0.03,0c5.52,0,10-4.48,10-10
			C608.63,140.36,606.48,137.04,603.33,135.36z M565.98,185.56c-5.14,0-10.01-1.19-14.33-3.31v8.98h0c0,0.01,0,0.02,0,0.03
			c0.02,7.9,6.43,14.3,14.33,14.3s14.32-6.4,14.33-14.3c0-0.01,0-0.02,0-0.03v-8.98C575.99,184.37,571.12,185.56,565.98,185.56
			L565.98,185.56z"/>
	</g>
	<g id="XMLID_436_">
		<g id="XMLID_443_">
			<path id="XMLID_45_" style="fill:#414042;" d="M554.74,168.02c-1.17,0-1.8-0.45-2.26-0.79c-0.34-0.24-0.48-0.35-0.89-0.35
				c-0.41,0-0.55,0.1-0.89,0.34c-0.46,0.33-1.09,0.79-2.26,0.79s-1.8-0.46-2.26-0.79c-0.34-0.24-0.48-0.34-0.88-0.34
				s-0.55,0.1-0.88,0.34c-0.46,0.33-1.09,0.79-2.26,0.79c-1.16,0-1.8-0.46-2.26-0.79c-0.34-0.24-0.48-0.34-0.88-0.34
				c-0.65,0-1.17-0.53-1.17-1.17s0.53-1.17,1.17-1.17c1.16,0,1.8,0.46,2.26,0.79c0.34,0.24,0.48,0.34,0.88,0.34
				c0.41,0,0.55-0.1,0.88-0.34c0.46-0.33,1.09-0.79,2.26-0.79c1.16,0,1.8,0.46,2.26,0.79c0.34,0.24,0.48,0.34,0.88,0.34
				c0.41,0,0.55-0.1,0.88-0.34c0.46-0.33,1.09-0.79,2.26-0.79c1.17,0,1.8,0.45,2.26,0.79c0.34,0.24,0.48,0.35,0.89,0.35
				c0.41,0,0.55-0.1,0.89-0.35c0.46-0.33,1.09-0.79,2.26-0.79c0.65,0,1.17,0.53,1.17,1.17s-0.53,1.17-1.17,1.17
				c-0.41,0-0.55,0.1-0.89,0.35C556.53,167.57,555.9,168.02,554.74,168.02z"/>
		</g>
		<g id="XMLID_440_">
			<path id="XMLID_44_" style="fill:#414042;" d="M554.74,172.9c-1.17,0-1.8-0.45-2.26-0.79c-0.34-0.24-0.48-0.34-0.89-0.34
				c-0.41,0-0.55,0.1-0.89,0.34c-0.46,0.33-1.09,0.79-2.26,0.79c-1.16,0-1.8-0.46-2.26-0.79c-0.34-0.24-0.48-0.34-0.88-0.34
				c-0.41,0-0.55,0.1-0.88,0.34c-0.46,0.33-1.09,0.79-2.26,0.79c-1.16,0-1.8-0.46-2.26-0.79c-0.34-0.24-0.48-0.34-0.88-0.34
				c-0.65,0-1.17-0.53-1.17-1.17s0.53-1.17,1.17-1.17c1.16,0,1.8,0.45,2.26,0.79c0.34,0.24,0.48,0.34,0.88,0.34
				c0.41,0,0.55-0.1,0.88-0.34c0.46-0.33,1.09-0.79,2.26-0.79s1.8,0.46,2.26,0.79c0.34,0.24,0.48,0.34,0.88,0.34
				c0.41,0,0.55-0.1,0.89-0.34c0.46-0.33,1.09-0.79,2.26-0.79c1.16,0,1.8,0.45,2.26,0.79c0.34,0.24,0.48,0.35,0.89,0.35
				c0.41,0,0.55-0.1,0.89-0.35c0.46-0.33,1.09-0.79,2.26-0.79c0.65,0,1.17,0.53,1.17,1.17s-0.53,1.17-1.17,1.17
				c-0.41,0-0.55,0.1-0.89,0.35C556.53,172.44,555.9,172.9,554.74,172.9z"/>
		</g>
		<g id="XMLID_437_">
			<path id="XMLID_42_" style="fill:#414042;" d="M554.74,177.78c-1.17,0-1.8-0.45-2.26-0.79c-0.34-0.24-0.48-0.34-0.89-0.34
				c-0.41,0-0.55,0.1-0.89,0.34c-0.46,0.33-1.09,0.79-2.26,0.79c-1.16,0-1.8-0.46-2.26-0.79c-0.34-0.24-0.48-0.34-0.88-0.34
				c-0.41,0-0.55,0.1-0.88,0.34c-0.46,0.33-1.09,0.79-2.26,0.79c-1.16,0-1.8-0.46-2.26-0.79c-0.34-0.24-0.48-0.34-0.88-0.34
				c-0.65,0-1.17-0.53-1.17-1.17s0.53-1.17,1.17-1.17c1.16,0,1.8,0.45,2.26,0.79c0.34,0.24,0.48,0.34,0.88,0.34
				c0.41,0,0.55-0.1,0.88-0.34c0.46-0.33,1.09-0.79,2.26-0.79s1.8,0.46,2.26,0.79c0.34,0.24,0.48,0.34,0.88,0.34
				c0.41,0,0.55-0.1,0.89-0.34c0.46-0.33,1.09-0.79,2.26-0.79c1.16,0,1.8,0.45,2.26,0.79c0.34,0.24,0.48,0.35,0.89,0.35
				c0.41,0,0.55-0.1,0.89-0.35c0.46-0.33,1.09-0.79,2.26-0.79c0.65,0,1.17,0.53,1.17,1.17s-0.53,1.17-1.17,1.17
				c-0.41,0-0.55,0.1-0.89,0.35C556.53,177.32,555.9,177.78,554.74,177.78z"/>
		</g>
	</g>
</g>
<g>
	<g>
		<path style="fill:#F7C297;" d="M517.36,712.93c0,6.93,5.46,12.57,12.31,12.88c0.2,0.01,0.4,0.03,0.6,0.03
			c5.6,0,10.36-3.58,12.15-8.56c0.49-1.36,0.77-2.82,0.77-4.35v-55.17h-25.83V712.93z M589.38,657.76v55.17
			c0,1.53,0.28,2.99,0.77,4.35c1.79,4.99,6.54,8.56,12.15,8.56c7.13,0,12.91-5.78,12.91-12.91v-55.17H589.38z M598.64,584.12
			C598.64,584.12,598.64,584.12,598.64,584.12v-17.45c0-0.3-0.01-0.6-0.02-0.9c-2.32,1.21-4.95,1.9-7.74,1.9
			c-4.25,0-8.12-1.59-11.08-4.18c-3.95,2.64-8.7,4.18-13.81,4.18c-5.34,0-10.29-1.69-14.34-4.55c-3.01,2.82-7.04,4.55-11.49,4.55
			c-2.43,0-4.73-0.53-6.82-1.45c0,0.15-0.01,0.3-0.01,0.46v17.45c0,0,0,0,0,0c0,0.43,0.02,0.85,0.03,1.27
			c0.47,12.35,7.8,22.95,18.29,28.08c4.33,2.12,9.19,3.31,14.33,3.31h0c5.14,0,10.01-1.19,14.33-3.31
			c10.49-5.13,17.82-15.73,18.29-28.08C598.62,584.97,598.64,584.55,598.64,584.12z"/>
		<path style="fill:#A97C50;" d="M545.63,812.75c-5.63,0-10.64,2.63-13.89,6.71c-2.42,3.03-3.87,6.87-3.87,11.05h35.52
			c0-4.18-1.45-8.01-3.87-11.05C556.27,815.37,551.26,812.75,545.63,812.75z M600.22,819.46c-3.25-4.09-8.26-6.71-13.89-6.71
			c-5.63,0-10.64,2.63-13.89,6.71c-2.42,3.03-3.87,6.87-3.87,11.05h35.52C604.09,826.33,602.63,822.49,600.22,819.46z"/>
		<path style="fill:#414042;" d="M603.08,562.4c2.85-3.02,4.62-7.07,4.62-11.55c0-9.29-7.53-16.83-16.83-16.83
			c-0.53,0-1.05,0.03-1.56,0.08c-3.52-9.47-12.64-16.21-23.33-16.21c-10.74,0-19.89,6.8-23.38,16.33c-0.8-0.12-1.61-0.2-2.45-0.2
			c-9.29,0-16.83,7.53-16.83,16.83c0,4.91,2.11,9.31,5.47,12.39c-0.1,1.1-0.16,2.22-0.16,3.35c0,0.03,0,0.07,0,0.1l4.7,17.45
			c0,0,0,0,0,0v-17.45c0-0.15,0.01-0.3,0.01-0.46c2.09,0.93,4.39,1.45,6.82,1.45c4.45,0,8.48-1.74,11.49-4.55
			c4.05,2.86,9,4.55,14.34,4.55c5.11,0,9.86-1.54,13.81-4.18c2.96,2.6,6.83,4.18,11.08,4.18c2.79,0,5.42-0.69,7.74-1.9
			c0.01,0.3,0.02,0.6,0.02,0.9v17.45c0,0,0,0,0,0l4.7-17.45c0-0.03,0-0.07,0-0.1C603.33,565.16,603.24,563.77,603.08,562.4z"/>
		<path style="fill:#1A1A1A;" d="M576.98,575.84l8.17,2.26c1.15,0.32,2.34-0.36,2.66-1.51c0.32-1.15-0.36-2.34-1.51-2.66l-8.17-2.26
			c-1.15-0.32-2.34,0.36-2.66,1.51C575.16,574.33,575.83,575.52,576.98,575.84z M546.8,578.09l8.17-2.26
			c1.15-0.32,1.83-1.51,1.51-2.66c-0.32-1.15-1.51-1.83-2.66-1.51l-8.17,2.26c-1.15,0.32-1.83,1.51-1.51,2.66
			C544.46,577.74,545.65,578.41,546.8,578.09z M583.49,581.07h-3.7c-1.19,0-2.16,0.97-2.16,2.16c0,1.19,0.97,2.16,2.16,2.16h3.7
			c1.19,0,2.16-0.97,2.16-2.16C585.65,582.04,584.69,581.07,583.49,581.07z M590.14,717.28h-47.72c-1.79,4.99-6.54,8.56-12.15,8.56
			c-0.2,0-0.4-0.02-0.6-0.03v93.65h2.07c3.25-4.09,8.26-6.71,13.89-6.71c5.63,0,10.64,2.63,13.89,6.71h2.77l3.68-62.87l3.68,62.87
			h2.77c3.25-4.09,8.26-6.71,13.89-6.71c5.63,0,10.64,2.63,13.89,6.71h2.07v-93.62C596.69,725.84,591.93,722.27,590.14,717.28z
			 M548.47,581.07c-1.19,0-2.16,0.97-2.16,2.16c0,1.19,0.97,2.16,2.16,2.16h3.7c1.19,0,2.16-0.97,2.16-2.16
			c0-1.19-0.97-2.16-2.16-2.16H548.47z"/>
		<path style="fill:#F7C297;" d="M517.36,712.93c0,6.93,5.46,12.57,12.31,12.88c0.2,0.01,0.4,0.03,0.6,0.03
			c5.6,0,10.36-3.58,12.15-8.56c0.49-1.36,0.77-2.82,0.77-4.35v-55.17h-25.83V712.93z M589.38,657.76v55.17
			c0,1.53,0.28,2.99,0.77,4.35c1.79,4.99,6.54,8.56,12.15,8.56c7.13,0,12.91-5.78,12.91-12.91v-55.17H589.38z M598.64,584.12
			C598.64,584.12,598.64,584.12,598.64,584.12v-17.45c0-0.3-0.01-0.6-0.02-0.9c-2.32,1.21-4.95,1.9-7.74,1.9
			c-4.25,0-8.12-1.59-11.08-4.18c-3.95,2.64-8.7,4.18-13.81,4.18c-5.34,0-10.29-1.69-14.34-4.55c-3.01,2.82-7.04,4.55-11.49,4.55
			c-2.43,0-4.73-0.53-6.82-1.45c0,0.15-0.01,0.3-0.01,0.46v17.45c0,0,0,0,0,0c0,0.43,0.02,0.85,0.03,1.27
			c0.47,12.35,7.8,22.95,18.29,28.08c4.33,2.12,9.19,3.31,14.33,3.31h0c5.14,0,10.01-1.19,14.33-3.31
			c10.49-5.13,17.82-15.73,18.29-28.08C598.62,584.97,598.64,584.55,598.64,584.12z M552.16,585.39h-3.7
			c-1.19,0-2.16-0.97-2.16-2.16c0-1.19,0.97-2.16,2.16-2.16h3.7c1.19,0,2.16,0.97,2.16,2.16
			C554.32,584.43,553.36,585.39,552.16,585.39z M546.8,578.09c-1.15,0.32-2.34-0.36-2.66-1.51c-0.32-1.15,0.36-2.34,1.51-2.66
			l8.17-2.26c1.15-0.32,2.34,0.36,2.66,1.51c0.32,1.15-0.36,2.34-1.51,2.66L546.8,578.09z M575.71,602.99
			c-0.41,0-0.55,0.1-0.89,0.34c-0.46,0.33-1.09,0.79-2.26,0.79c-1.17,0-1.8-0.45-2.26-0.79c-0.34-0.24-0.48-0.34-0.89-0.34
			c-0.41,0-0.55,0.1-0.88,0.34c-0.46,0.33-1.09,0.79-2.26,0.79c-1.16,0-1.8-0.45-2.26-0.79c-0.34-0.24-0.48-0.34-0.88-0.34
			c-0.41,0-0.55,0.1-0.88,0.34c-0.46,0.33-1.09,0.79-2.26,0.79c-1.16,0-1.8-0.45-2.26-0.79c-0.34-0.24-0.48-0.34-0.88-0.34
			c-0.65,0-1.17-0.53-1.17-1.17c0-0.65,0.53-1.17,1.17-1.17c1.16,0,1.8,0.46,2.26,0.79c0.34,0.24,0.48,0.34,0.88,0.34
			s0.55-0.1,0.88-0.34c0.46-0.33,1.09-0.79,2.26-0.79c1.16,0,1.8,0.46,2.26,0.79c0.34,0.24,0.48,0.34,0.88,0.34
			c0.41,0,0.55-0.1,0.88-0.34c0.46-0.33,1.09-0.79,2.26-0.79c1.17,0,1.8,0.45,2.26,0.79c0.34,0.24,0.48,0.34,0.89,0.34
			c0.41,0,0.55-0.1,0.89-0.34c0.46-0.33,1.09-0.79,2.26-0.79c0.65,0,1.17,0.53,1.17,1.17C576.89,602.46,576.36,602.99,575.71,602.99
			z M583.49,585.39h-3.7c-1.19,0-2.16-0.97-2.16-2.16c0-1.19,0.97-2.16,2.16-2.16h3.7c1.19,0,2.16,0.97,2.16,2.16
			C585.65,584.43,584.69,585.39,583.49,585.39z M587.81,576.59c-0.32,1.15-1.51,1.83-2.66,1.51l-8.17-2.26
			c-1.15-0.32-1.83-1.51-1.51-2.66c0.32-1.15,1.51-1.83,2.66-1.51l8.17,2.26C587.46,574.25,588.13,575.44,587.81,576.59z"/>
		<path style="fill:#9E1F63;" d="M615.2,657.76V635.4c0-7.13-5.78-12.91-12.91-12.91h-21.98c-0.02,7.9-6.43,14.3-14.33,14.3
			s-14.32-6.4-14.33-14.3h-21.98v0.03c-2,0.09-3.89,0.62-5.55,1.53c-4.03,2.19-6.76,6.45-6.76,11.35v22.36h25.83v55.17
			c0,1.53-0.28,2.99-0.77,4.35h47.72c-0.49-1.36-0.77-2.82-0.77-4.35v-55.17H615.2z"/>
		<path style="fill:#EB9877;" d="M528.63,566.67c0-0.03,0-0.07,0-0.1c-3.15,1.68-5.3,5-5.3,8.82c0,5.52,4.48,10,10,10
			c0.01,0,0.02,0,0.03,0c-0.02-0.42-0.03-0.84-0.03-1.27L528.63,566.67z M556.85,602.99c0.41,0,0.55,0.1,0.88,0.34
			c0.46,0.33,1.09,0.79,2.26,0.79c1.16,0,1.8-0.46,2.26-0.79c0.34-0.24,0.48-0.34,0.88-0.34c0.41,0,0.55,0.1,0.88,0.34
			c0.46,0.33,1.09,0.79,2.26,0.79c1.16,0,1.8-0.45,2.26-0.79c0.34-0.24,0.48-0.34,0.88-0.34c0.41,0,0.55,0.1,0.89,0.34
			c0.46,0.33,1.09,0.79,2.26,0.79c1.17,0,1.8-0.45,2.26-0.79c0.34-0.24,0.48-0.34,0.89-0.34c0.65,0,1.17-0.53,1.17-1.17
			c0-0.65-0.53-1.17-1.17-1.17c-1.17,0-1.8,0.45-2.26,0.79c-0.34,0.24-0.48,0.34-0.89,0.34c-0.41,0-0.55-0.1-0.89-0.34
			c-0.46-0.33-1.09-0.79-2.26-0.79c-1.16,0-1.8,0.45-2.26,0.79c-0.34,0.24-0.48,0.34-0.88,0.34c-0.41,0-0.55-0.1-0.88-0.34
			c-0.46-0.33-1.09-0.79-2.26-0.79c-1.16,0-1.8,0.46-2.26,0.79c-0.34,0.24-0.48,0.34-0.88,0.34s-0.55-0.1-0.88-0.34
			c-0.46-0.33-1.09-0.79-2.26-0.79c-0.65,0-1.17,0.53-1.17,1.17C555.68,602.46,556.2,602.99,556.85,602.99z M603.33,566.58
			c0,0.03,0,0.07,0,0.1l-4.7,17.45c0,0.43-0.02,0.85-0.03,1.27c0.01,0,0.02,0,0.03,0c5.52,0,10-4.48,10-10
			C608.63,571.58,606.48,568.26,603.33,566.58z M565.98,616.78c-5.14,0-10.01-1.19-14.33-3.31v8.98h0c0,0.01,0,0.02,0,0.03
			c0.02,7.9,6.43,14.3,14.33,14.3s14.32-6.4,14.33-14.3c0-0.01,0-0.02,0-0.03v-8.98C575.99,615.59,571.12,616.78,565.98,616.78
			L565.98,616.78z"/>
	</g>
	<g id="XMLID_80_">
		<path id="XMLID_216_" style="fill:#C4E6E0;" d="M593.53,564.34c-2.1,0-3.8,4.44-3.8,6.54c0,2.1,1.7,3.8,3.8,3.8
			c2.1,0,3.8-1.7,3.8-3.8C597.33,568.78,595.63,564.34,593.53,564.34z"/>
		<path id="XMLID_210_" style="fill:#C4E6E0;" d="M585.32,561.39c-1.48,0-2.69,3.13-2.69,4.62c0,1.48,1.2,2.69,2.69,2.69
			s2.69-1.2,2.69-2.69C588.01,564.52,586.81,561.39,585.32,561.39z"/>
	</g>
</g>
<g>
	<g id="XMLID_255_">
		<g id="XMLID_315_">
			<g id="XMLID_319_">
				<path id="XMLID_314_" style="fill:#58595B;" d="M767.24,692.52c-1.08,0-1.96-0.88-1.96-1.96c0-2.13-0.68-3.07-1.62-4.37
					c-1.05-1.46-2.35-3.27-2.35-6.66c0-3.39,1.3-5.2,2.35-6.66c0.94-1.3,1.62-2.25,1.62-4.37c0-2.12-0.68-3.07-1.62-4.37
					c-1.05-1.46-2.35-3.27-2.35-6.65c0-3.39,1.31-5.2,2.35-6.66c0.94-1.3,1.62-2.24,1.62-4.37c0-2.12-0.68-3.07-1.62-4.37
					c-1.05-1.46-2.35-3.27-2.35-6.65c0-3.39,1.31-5.2,2.35-6.66c0.94-1.3,1.62-2.24,1.62-4.37c0-1.08,0.88-1.96,1.96-1.96
					s1.96,0.88,1.96,1.96c0,3.39-1.31,5.2-2.35,6.66c-0.94,1.3-1.62,2.24-1.62,4.37c0,2.12,0.68,3.07,1.62,4.37
					c1.05,1.46,2.35,3.27,2.35,6.65c0,3.39-1.3,5.2-2.35,6.66c-0.94,1.3-1.62,2.24-1.62,4.37c0,2.12,0.68,3.07,1.62,4.37
					c1.05,1.46,2.35,3.27,2.35,6.65c0,3.39-1.3,5.2-2.35,6.66c-0.94,1.3-1.62,2.25-1.62,4.37c0,2.13,0.68,3.07,1.62,4.37
					c1.05,1.46,2.35,3.27,2.35,6.66C769.19,691.65,768.32,692.52,767.24,692.52z"/>
			</g>
			<g id="XMLID_316_">
				<path id="XMLID_313_" style="fill:#58595B;" d="M760.35,692.52c-1.08,0-1.96-0.88-1.96-1.96c0-2.13-0.68-3.07-1.62-4.37
					c-1.05-1.46-2.35-3.27-2.35-6.66c0-3.39,1.3-5.2,2.35-6.66c0.94-1.3,1.62-2.25,1.62-4.37c0-2.12-0.68-3.07-1.62-4.37
					c-1.05-1.46-2.35-3.27-2.35-6.65c0-3.39,1.31-5.2,2.35-6.66c0.94-1.3,1.62-2.24,1.62-4.37c0-2.12-0.68-3.07-1.62-4.37
					c-1.05-1.46-2.35-3.27-2.35-6.65c0-3.39,1.31-5.2,2.35-6.66c0.94-1.3,1.62-2.24,1.62-4.37c0-1.08,0.88-1.96,1.96-1.96
					c1.08,0,1.96,0.88,1.96,1.96c0,3.39-1.31,5.2-2.35,6.66c-0.94,1.3-1.62,2.24-1.62,4.37c0,2.12,0.68,3.07,1.62,4.37
					c1.05,1.46,2.35,3.27,2.35,6.65c0,3.39-1.3,5.2-2.35,6.66c-0.94,1.3-1.62,2.24-1.62,4.37c0,2.12,0.68,3.07,1.62,4.37
					c1.05,1.46,2.35,3.27,2.35,6.65c0,3.39-1.3,5.2-2.35,6.66c-0.94,1.3-1.62,2.25-1.62,4.37c0,2.13,0.68,3.07,1.62,4.37
					c1.05,1.46,2.35,3.27,2.35,6.66C762.31,691.65,761.43,692.52,760.35,692.52z"/>
			</g>
		</g>
		<g id="XMLID_257_">
			<g id="XMLID_312_">
				<path id="XMLID_311_" style="fill:#58595B;" d="M876.55,692.52c-1.08,0-1.96-0.88-1.96-1.96c0-3.39,1.31-5.2,2.35-6.66
					c0.94-1.3,1.62-2.24,1.62-4.37c0-2.12-0.68-3.07-1.62-4.37c-1.05-1.46-2.35-3.27-2.35-6.65c0-3.39,1.3-5.2,2.35-6.66
					c0.94-1.3,1.62-2.24,1.62-4.37c0-2.12-0.68-3.07-1.62-4.37c-1.05-1.46-2.35-3.27-2.35-6.65c0-3.39,1.3-5.2,2.35-6.66
					c0.94-1.3,1.62-2.25,1.62-4.37c0-2.13-0.68-3.07-1.62-4.37c-1.05-1.46-2.35-3.27-2.35-6.66c0-1.08,0.88-1.96,1.96-1.96
					s1.96,0.88,1.96,1.96c0,2.13,0.68,3.07,1.62,4.37c1.05,1.46,2.35,3.27,2.35,6.66c0,3.39-1.3,5.2-2.35,6.66
					c-0.94,1.3-1.62,2.25-1.62,4.37c0,2.12,0.68,3.07,1.62,4.37c1.05,1.46,2.35,3.27,2.35,6.65c0,3.39-1.31,5.2-2.35,6.66
					c-0.94,1.3-1.62,2.24-1.62,4.37c0,2.12,0.68,3.07,1.62,4.37c1.05,1.46,2.35,3.27,2.35,6.65c0,3.39-1.31,5.2-2.35,6.66
					c-0.94,1.3-1.62,2.24-1.62,4.37C878.51,691.65,877.63,692.52,876.55,692.52z"/>
			</g>
			<g id="XMLID_309_">
				<path id="XMLID_310_" style="fill:#58595B;" d="M883.44,692.52c-1.08,0-1.96-0.88-1.96-1.96c0-3.39,1.3-5.2,2.35-6.66
					c0.94-1.3,1.62-2.24,1.62-4.37c0-2.12-0.68-3.07-1.62-4.37c-1.05-1.46-2.35-3.27-2.35-6.65c0-3.39,1.3-5.2,2.35-6.66
					c0.94-1.3,1.62-2.24,1.62-4.37c0-2.12-0.68-3.07-1.62-4.37c-1.05-1.46-2.35-3.27-2.35-6.65c0-3.39,1.3-5.2,2.35-6.66
					c0.94-1.3,1.62-2.25,1.62-4.37c0-2.13-0.68-3.07-1.62-4.37c-1.05-1.46-2.35-3.27-2.35-6.66c0-1.08,0.88-1.96,1.96-1.96
					s1.96,0.88,1.96,1.96c0,2.13,0.68,3.07,1.62,4.37c1.05,1.46,2.35,3.27,2.35,6.66s-1.3,5.2-2.35,6.66
					c-0.94,1.3-1.62,2.25-1.62,4.37c0,2.12,0.68,3.07,1.62,4.37c1.05,1.46,2.35,3.27,2.35,6.65c0,3.39-1.3,5.2-2.35,6.66
					c-0.94,1.3-1.62,2.24-1.62,4.37c0,2.12,0.68,3.07,1.62,4.37c1.05,1.46,2.35,3.27,2.35,6.65c0,3.39-1.3,5.2-2.35,6.66
					c-0.94,1.3-1.62,2.24-1.62,4.37C885.39,691.65,884.52,692.52,883.44,692.52z"/>
			</g>
		</g>
	</g>
	<g>
		<path style="fill:#F7C297;" d="M807.56,613.47c4.33,2.12,9.19,3.31,14.33,3.31h0c5.14,0,10.01-1.19,14.33-3.31
			c10.49-5.13,17.82-15.73,18.29-28.08c0.02-0.42,0.03-0.84,0.03-1.27c0,0,0,0,0,0v-17.45c0-0.3-0.01-0.6-0.02-0.9
			c-2.32,1.21-4.95,1.9-7.74,1.9c-4.25,0-8.12-1.59-11.08-4.18c-3.95,2.64-8.7,4.18-13.81,4.18c-5.34,0-10.29-1.69-14.34-4.55
			c-3.01,2.82-7.04,4.55-11.49,4.55c-2.43,0-4.73-0.53-6.82-1.45c0,0.15-0.01,0.3-0.01,0.46v17.45c0,0,0,0,0,0
			c0,0.43,0.02,0.85,0.03,1.27C789.74,597.75,797.07,608.34,807.56,613.47z M870.79,632.58c0.21,0.91,0.33,1.85,0.33,2.82v22.36
			h-25.83v5.06H799.1l0-5.06h-25.83v17.97c0,6.93,5.46,12.57,12.31,12.88c0.2,0.01,0.4,0.03,0.6,0.03h72.02
			c7.13,0,12.91-5.78,12.91-12.91V635.4C871.12,634.43,871,633.49,870.79,632.58z"/>
		<path style="fill:#A97C50;" d="M801.55,812.75c-5.63,0-10.64,2.63-13.89,6.71c-2.42,3.03-3.87,6.87-3.87,11.05h35.52
			c0-4.18-1.45-8.01-3.87-11.05C812.18,815.37,807.18,812.75,801.55,812.75z M856.13,819.46c-3.25-4.09-8.26-6.71-13.89-6.71
			c-5.63,0-10.64,2.63-13.89,6.71c-2.42,3.03-3.87,6.87-3.87,11.05H860C860,826.33,858.55,822.49,856.13,819.46z"/>
		<path style="fill:#EB9877;" d="M789.24,584.12l-4.7-17.45c0-0.03,0-0.07,0-0.1c-3.15,1.68-5.3,5-5.3,8.82c0,5.52,4.48,10,10,10
			c0.01,0,0.02,0,0.03,0C789.25,584.97,789.24,584.55,789.24,584.12L789.24,584.12z"/>
		<path style="fill:#EB9877;" d="M854.55,584.12L854.55,584.12c0,0.43-0.02,0.85-0.03,1.27c0.01,0,0.02,0,0.03,0
			c5.52,0,10-4.48,10-10c0-3.82-2.15-7.14-5.3-8.82c0,0.03,0,0.07,0,0.1L854.55,584.12z"/>
		<path style="fill:#414042;" d="M859,562.4c2.85-3.02,4.62-7.07,4.62-11.55c0-9.29-7.53-16.83-16.83-16.83
			c-0.53,0-1.05,0.03-1.56,0.08c-3.52-9.47-12.64-16.21-23.33-16.21c-10.74,0-19.89,6.8-23.38,16.33c-0.8-0.12-1.61-0.2-2.45-0.2
			c-9.29,0-16.83,7.53-16.83,16.83c0,4.91,2.11,9.31,5.47,12.39c-0.1,1.1-0.16,2.22-0.16,3.35c0,0.03,0,0.07,0,0.1l4.7,17.45
			c0,0,0,0,0,0v-17.45c0-0.15,0.01-0.3,0.01-0.46c2.09,0.93,4.39,1.45,6.82,1.45c4.45,0,8.48-1.74,11.49-4.55
			c4.05,2.86,9,4.55,14.34,4.55c5.11,0,9.86-1.54,13.81-4.18c2.96,2.6,6.83,4.18,11.08,4.18c2.79,0,5.42-0.69,7.74-1.9
			c0.01,0.3,0.02,0.6,0.02,0.9v17.45c0,0,0,0,0,0l4.7-17.45c0-0.03,0-0.07,0-0.1C859.24,565.16,859.15,563.77,859,562.4z"/>
		<path style="fill:#1A1A1A;" d="M802.72,578.09l8.17-2.26c1.15-0.32,1.83-1.51,1.51-2.66c-0.32-1.15-1.51-1.83-2.66-1.51
			l-8.17,2.26c-1.15,0.32-1.83,1.51-1.51,2.66C800.38,577.74,801.57,578.41,802.72,578.09z M832.9,575.84l8.17,2.26
			c1.15,0.32,2.34-0.36,2.66-1.51c0.32-1.15-0.36-2.34-1.51-2.66l-8.17-2.26c-1.15-0.32-2.34,0.36-2.66,1.51
			C831.07,574.33,831.75,575.52,832.9,575.84z M839.41,581.07h-3.7c-1.19,0-2.16,0.97-2.16,2.16c0,1.19,0.97,2.16,2.16,2.16h3.7
			c1.19,0,2.16-0.97,2.16-2.16C841.57,582.04,840.6,581.07,839.41,581.07z M785.58,717.28v102.18h2.07
			c3.25-4.09,8.26-6.71,13.89-6.71s10.64,2.63,13.89,6.71h2.77l3.68-62.87l3.68,62.87h2.77c3.25-4.09,8.26-6.71,13.89-6.71
			c5.63,0,10.64,2.63,13.89,6.71h2.07V717.28H785.58z M804.38,581.07c-1.19,0-2.16,0.97-2.16,2.16c0,1.19,0.97,2.16,2.16,2.16h3.7
			c1.19,0,2.16-0.97,2.16-2.16c0-1.19-0.97-2.16-2.16-2.16H804.38z"/>
		<path style="fill:#EB9877;" d="M821.89,636.79c7.91,0,14.32-6.4,14.33-14.3c0-0.01,0-0.02,0-0.03v-8.98
			c-4.33,2.12-9.19,3.31-14.33,3.31h0c-5.14,0-10.01-1.19-14.33-3.31v8.98c0,0.01,0,0.02,0,0.03
			C807.58,630.39,813.99,636.79,821.89,636.79z"/>
		<path style="fill:#F7C297;" d="M871.12,635.4v40.33c0,7.13-5.78,12.91-12.91,12.91h-72.02c-0.2,0-0.4-0.02-0.6-0.03
			c-6.85-0.32-12.31-5.95-12.31-12.88v-17.97h25.83l0,5.06h46.19v-5.06h25.83L871.12,635.4c0-0.97-0.12-1.91-0.33-2.82
			C871,633.49,871.12,634.43,871.12,635.4z M789.27,585.39c-0.02-0.42-0.03-0.84-0.03-1.27c0,0,0,0,0,0v-17.45
			c0-0.15,0.01-0.3,0.01-0.46c2.09,0.93,4.39,1.45,6.82,1.45c4.45,0,8.48-1.74,11.49-4.55c4.05,2.86,9,4.55,14.34,4.55
			c5.11,0,9.86-1.54,13.81-4.18c2.96,2.6,6.83,4.18,11.08,4.18c2.79,0,5.42-0.69,7.74-1.9c0.01,0.3,0.02,0.6,0.02,0.9v17.45
			c0,0,0,0,0,0c0,0.43-0.02,0.85-0.03,1.27c-0.47,12.35-7.8,22.94-18.29,28.08c-4.33,2.12-9.19,3.31-14.33,3.31h0
			c-5.14,0-10.01-1.19-14.33-3.31C797.07,608.34,789.74,597.75,789.27,585.39z M810.24,583.23c0-1.19-0.97-2.16-2.16-2.16h-3.7
			c-1.19,0-2.16,0.97-2.16,2.16c0,1.19,0.97,2.16,2.16,2.16h3.7C809.27,585.39,810.24,584.43,810.24,583.23z M841.57,583.23
			c0-1.19-0.97-2.16-2.16-2.16h-3.7c-1.19,0-2.16,0.97-2.16,2.16c0,1.19,0.97,2.16,2.16,2.16h3.7
			C840.6,585.39,841.57,584.43,841.57,583.23z M832.9,575.84l8.17,2.26c1.15,0.32,2.34-0.36,2.66-1.51
			c0.32-1.15-0.36-2.34-1.51-2.66l-8.17-2.26c-1.15-0.32-2.34,0.36-2.66,1.51C831.07,574.33,831.75,575.52,832.9,575.84z
			 M818.33,602.38c0,2.13,1.73,3.86,3.86,3.86c2.13,0,3.86-1.73,3.86-3.86s-1.73-3.86-3.86-3.86
			C820.06,598.52,818.33,600.25,818.33,602.38z M800.06,576.59c0.32,1.15,1.51,1.83,2.66,1.51l8.17-2.26
			c1.15-0.32,1.83-1.51,1.51-2.66c-0.32-1.15-1.51-1.83-2.66-1.51l-8.17,2.26C800.42,574.25,799.74,575.44,800.06,576.59z"/>
		<path style="fill:#9E1F63;" d="M786.19,688.64h72.02v28.64h-72.62v-28.67C785.79,688.62,785.98,688.64,786.19,688.64z
			 M869.3,628.83c-0.29-0.48-0.6-0.95-0.95-1.39c-0.32-0.41-0.66-0.8-1.02-1.17c-2.34-2.34-5.57-3.78-9.13-3.78h-21.98
			c-0.02,7.9-6.43,14.3-14.33,14.3c-7.91,0-14.32-6.4-14.33-14.3h-21.98v0.03c-6.85,0.32-12.31,5.95-12.31,12.88v22.36h25.83l0,5.06
			h46.19v-5.06h25.83V635.4C871.12,633,870.45,630.75,869.3,628.83z"/>
		<circle style="fill:#EB9877;" cx="822.2" cy="602.38" r="3.86"/>
	</g>
</g>
<g>
	<path id="XMLID_451_" style="fill:#D1D3D4;" d="M1164.42,527.27h-98.61c-17.07,0-30.91,13.84-30.91,30.91v45.78
		c0,17.07,13.84,30.91,30.91,30.91h98.61c17.07,0,30.91-13.84,30.91-30.91v-45.78C1195.33,541.11,1181.49,527.27,1164.42,527.27z"/>
	<g>
		<path style="fill:#F7C297;" d="M1138.21,657.76v55.17c0,1.53,0.28,2.99,0.77,4.35c1.79,4.99,6.54,8.56,12.15,8.56
			c7.13,0,12.91-5.78,12.91-12.91v-55.17H1138.21z M1066.19,712.93c0,6.93,5.46,12.57,12.31,12.88c0.2,0.01,0.4,0.03,0.6,0.03
			c5.6,0,10.36-3.58,12.15-8.56c0.49-1.36,0.77-2.82,0.77-4.35v-55.17h-25.83V712.93z M1147.47,584.12
			C1147.47,584.12,1147.47,584.12,1147.47,584.12v-17.45c0-0.3-0.01-0.6-0.02-0.9c-2.32,1.21-4.95,1.9-7.74,1.9
			c-4.25,0-8.12-1.59-11.08-4.18c-3.95,2.64-8.7,4.18-13.81,4.18c-5.34,0-10.29-1.69-14.34-4.55c-3.01,2.82-7.04,4.55-11.49,4.55
			c-2.43,0-4.73-0.53-6.82-1.45c0,0.15-0.01,0.3-0.01,0.46v17.45c0,0,0,0,0,0c0,0.43,0.02,0.85,0.03,1.27
			c0.47,12.35,7.8,22.94,18.29,28.08c4.33,2.12,9.19,3.31,14.33,3.31s10.01-1.19,14.33-3.31c10.49-5.13,17.82-15.73,18.29-28.08
			C1147.46,584.97,1147.47,584.55,1147.47,584.12z"/>
		<path style="fill:#A97C50;" d="M1094.46,812.75c-5.63,0-10.64,2.63-13.89,6.71c-2.42,3.03-3.87,6.87-3.87,11.05h35.52
			c0-4.18-1.45-8.01-3.87-11.05C1105.1,815.37,1100.09,812.75,1094.46,812.75z M1149.05,819.46c-3.25-4.09-8.26-6.71-13.89-6.71
			s-10.64,2.63-13.89,6.71c-2.42,3.03-3.87,6.87-3.87,11.05h35.52C1152.92,826.33,1151.47,822.49,1149.05,819.46z"/>
		<path style="fill:#414042;" d="M1151.91,562.4c2.85-3.02,4.62-7.07,4.62-11.55c0-9.29-7.53-16.83-16.83-16.83
			c-0.53,0-1.05,0.03-1.56,0.08c-3.52-9.47-12.64-16.21-23.33-16.21c-10.74,0-19.89,6.8-23.38,16.33c-0.8-0.12-1.61-0.2-2.45-0.2
			c-9.29,0-16.83,7.53-16.83,16.83c0,4.91,2.11,9.31,5.47,12.39c-0.1,1.1-0.16,2.22-0.16,3.35c0,0.03,0,0.07,0,0.1l4.7,17.45
			c0,0,0,0,0,0v-17.45c0-0.15,0.01-0.3,0.01-0.46c2.09,0.93,4.39,1.45,6.82,1.45c4.45,0,8.48-1.74,11.49-4.55
			c4.05,2.86,9,4.55,14.34,4.55c5.11,0,9.86-1.54,13.81-4.18c2.96,2.6,6.83,4.18,11.08,4.18c2.8,0,5.42-0.69,7.74-1.9
			c0.01,0.3,0.02,0.6,0.02,0.9v17.45c0,0,0,0,0,0l4.7-17.45c0-0.03,0-0.07,0-0.1C1152.16,565.16,1152.07,563.77,1151.91,562.4z"/>
		<path style="fill:#1A1A1A;" d="M1125.82,575.84l8.17,2.26c1.15,0.32,2.34-0.36,2.66-1.51c0.32-1.15-0.36-2.34-1.51-2.66
			l-8.17-2.26c-1.15-0.32-2.34,0.36-2.66,1.51C1123.99,574.33,1124.67,575.52,1125.82,575.84z M1132.33,581.07h-3.7
			c-1.19,0-2.16,0.97-2.16,2.16c0,1.19,0.97,2.16,2.16,2.16h3.7c1.19,0,2.16-0.97,2.16-2.16
			C1134.49,582.04,1133.52,581.07,1132.33,581.07z M1138.98,717.28h-47.72c-1.79,4.99-6.54,8.56-12.15,8.56
			c-0.2,0-0.4-0.02-0.6-0.03v93.65h2.07c3.25-4.09,8.26-6.71,13.89-6.71s10.64,2.63,13.89,6.71h2.77l3.68-62.87l3.68,62.87h2.77
			c3.25-4.09,8.26-6.71,13.89-6.71s10.64,2.63,13.89,6.71h2.07v-93.62C1145.52,725.84,1140.76,722.27,1138.98,717.28z
			 M1095.64,578.09l8.17-2.26c1.15-0.32,1.83-1.51,1.51-2.66c-0.32-1.15-1.51-1.83-2.66-1.51l-8.17,2.26
			c-1.15,0.32-1.83,1.51-1.51,2.66C1093.3,577.74,1094.49,578.41,1095.64,578.09z M1097.3,581.07c-1.19,0-2.16,0.97-2.16,2.16
			c0,1.19,0.97,2.16,2.16,2.16h3.7c1.19,0,2.16-0.97,2.16-2.16c0-1.19-0.97-2.16-2.16-2.16H1097.3z"/>
		<path style="fill:#F7C297;" d="M1066.19,712.93c0,6.93,5.46,12.57,12.31,12.88c0.2,0.01,0.4,0.03,0.6,0.03
			c5.6,0,10.36-3.58,12.15-8.56c0.49-1.36,0.77-2.82,0.77-4.35v-55.17h-25.83V712.93z M1147.47,584.12
			C1147.47,584.12,1147.47,584.12,1147.47,584.12v-17.45c0-0.3-0.01-0.6-0.02-0.9c-2.32,1.21-4.95,1.9-7.74,1.9
			c-4.25,0-8.12-1.59-11.08-4.18c-3.95,2.64-8.7,4.18-13.81,4.18c-5.34,0-10.29-1.69-14.34-4.55c-3.01,2.82-7.04,4.55-11.49,4.55
			c-2.43,0-4.73-0.53-6.82-1.45c0,0.15-0.01,0.3-0.01,0.46v17.45c0,0,0,0,0,0c0,0.43,0.02,0.85,0.03,1.27
			c0.47,12.35,7.8,22.94,18.29,28.08c4.33,2.12,9.19,3.31,14.33,3.31h0c5.14,0,10.01-1.19,14.33-3.31
			c10.49-5.13,17.82-15.73,18.29-28.08C1147.46,584.97,1147.47,584.55,1147.47,584.12z M1101,585.39h-3.7
			c-1.19,0-2.16-0.97-2.16-2.16c0-1.19,0.97-2.16,2.16-2.16h3.7c1.19,0,2.16,0.97,2.16,2.16
			C1103.16,584.43,1102.19,585.39,1101,585.39z M1103.81,575.84l-8.17,2.26c-1.15,0.32-2.34-0.36-2.66-1.51
			c-0.32-1.15,0.36-2.34,1.51-2.66l8.17-2.26c1.15-0.32,2.34,0.36,2.66,1.51C1105.63,574.33,1104.96,575.52,1103.81,575.84z
			 M1114.81,606.24c-2.13,0-3.86-1.73-3.86-3.86s1.73-3.86,3.86-3.86c2.13,0,3.86,1.73,3.86,3.86S1116.95,606.24,1114.81,606.24z
			 M1132.33,585.39h-3.7c-1.19,0-2.16-0.97-2.16-2.16c0-1.19,0.97-2.16,2.16-2.16h3.7c1.19,0,2.16,0.97,2.16,2.16
			C1134.49,584.43,1133.52,585.39,1132.33,585.39z M1136.65,576.59c-0.32,1.15-1.51,1.83-2.66,1.51l-8.17-2.26
			c-1.15-0.32-1.83-1.51-1.51-2.66c0.32-1.15,1.51-1.83,2.66-1.51l8.17,2.26C1136.29,574.25,1136.96,575.44,1136.65,576.59z
			 M1138.21,657.76v55.17c0,1.53,0.28,2.99,0.77,4.35c1.79,4.99,6.54,8.56,12.15,8.56c7.13,0,12.91-5.78,12.91-12.91v-55.17H1138.21
			z"/>
		<path style="fill:#9E1F63;" d="M1164.04,657.76V635.4c0-7.13-5.78-12.91-12.91-12.91h-21.98c-0.02,7.9-6.43,14.3-14.33,14.3
			c-7.91,0-14.32-6.4-14.33-14.3h-21.98v0.03c-2.88,0.13-5.52,1.2-7.61,2.92c-2.87,2.37-4.7,5.95-4.7,9.96v22.36h25.83v55.17
			c0,1.53-0.28,2.99-0.77,4.35h47.72c-0.49-1.36-0.77-2.82-0.77-4.35v-55.17H1164.04z"/>
		<path style="fill:#EB9877;" d="M1114.81,606.24c2.13,0,3.86-1.73,3.86-3.86s-1.73-3.86-3.86-3.86c-2.13,0-3.86,1.73-3.86,3.86
			S1112.68,606.24,1114.81,606.24z M1077.46,566.67c0-0.03,0-0.07,0-0.1c-3.15,1.68-5.3,5-5.3,8.82c0,5.52,4.48,10,10,10
			c0.01,0,0.02,0,0.03,0c-0.02-0.42-0.03-0.84-0.03-1.27L1077.46,566.67z M1152.16,566.58c0,0.03,0,0.07,0,0.1l-4.7,17.45
			c0,0.43-0.02,0.85-0.03,1.27c0.01,0,0.02,0,0.03,0c5.52,0,10-4.48,10-10C1157.47,571.58,1155.32,568.26,1152.16,566.58z
			 M1114.81,616.78c-5.14,0-10.01-1.19-14.33-3.31v8.98c0,0.01,0,0.02,0,0.03c0.02,7.9,6.43,14.3,14.33,14.3
			c7.91,0,14.32-6.4,14.33-14.3c0-0.01,0-0.02,0-0.03v-8.98C1124.82,615.59,1119.96,616.78,1114.81,616.78L1114.81,616.78z"/>
	</g>
	<g id="XMLID_330_">
		<g id="XMLID_335_">
			<path id="XMLID_452_" style="fill:#414042;" d="M1104.75,603.55h-11.21c-0.65,0-1.17-0.53-1.17-1.17c0-0.65,0.53-1.17,1.17-1.17
				h11.21c0.65,0,1.17,0.53,1.17,1.17C1105.93,603.03,1105.4,603.55,1104.75,603.55z"/>
		</g>
		<g id="XMLID_333_">
			<path id="XMLID_334_" style="fill:#414042;" d="M1104.75,598.97c-0.15,0-0.3-0.03-0.45-0.09l-11.21-4.64
				c-0.6-0.25-0.88-0.93-0.64-1.53c0.25-0.6,0.94-0.88,1.53-0.64l11.21,4.64c0.6,0.25,0.88,0.93,0.64,1.53
				C1105.65,598.7,1105.21,598.97,1104.75,598.97z"/>
		</g>
		<g id="XMLID_331_">
			<path id="XMLID_332_" style="fill:#414042;" d="M1093.54,612.78c-0.46,0-0.9-0.27-1.08-0.73c-0.25-0.6,0.04-1.29,0.64-1.53
				l11.21-4.64c0.6-0.25,1.29,0.04,1.53,0.64c0.25,0.6-0.04,1.29-0.64,1.53l-11.21,4.64
				C1093.84,612.75,1093.69,612.78,1093.54,612.78z"/>
		</g>
	</g>
</g>
<g>
	<g>
		<path style="fill:#F7C297;" d="M300.62,662.82H273.2v-5.06h-25.83v17.97c0,6.93,5.46,12.57,12.31,12.88
			c0.2,0.01,0.4,0.03,0.6,0.03h40.33c7.13,0,12.91-5.78,12.91-12.91C313.53,668.6,307.75,662.82,300.62,662.82z M328.65,584.12
			C328.65,584.12,328.65,584.12,328.65,584.12v-17.45c0-0.3-0.01-0.6-0.02-0.9c-2.32,1.21-4.95,1.9-7.74,1.9
			c-4.25,0-8.12-1.59-11.08-4.18c-3.95,2.64-8.7,4.18-13.81,4.18c-5.34,0-10.29-1.69-14.34-4.55c-3.01,2.82-7.04,4.55-11.49,4.55
			c-2.43,0-4.73-0.53-6.82-1.45c0,0.15-0.01,0.3-0.01,0.46v17.45c0,0,0,0,0,0c0,0.43,0.02,0.85,0.03,1.27
			c0.47,12.35,7.8,22.95,18.29,28.08c4.33,2.12,9.19,3.31,14.33,3.31h0c5.14,0,10.01-1.19,14.33-3.31
			c10.49-5.13,17.82-15.73,18.29-28.08C328.63,584.97,328.65,584.55,328.65,584.12z M319.39,657.76v55.17
			c0,1.53,0.28,2.99,0.77,4.35c1.79,4.99,6.54,8.56,12.15,8.56c7.13,0,12.91-5.78,12.91-12.91v-55.17H319.39z"/>
		<path style="fill:#A97C50;" d="M275.64,812.75c-5.63,0-10.64,2.63-13.89,6.71c-2.42,3.03-3.87,6.87-3.87,11.05h35.52
			c0-4.18-1.45-8.01-3.87-11.05C286.28,815.37,281.27,812.75,275.64,812.75z M330.23,819.46c-3.25-4.09-8.26-6.71-13.89-6.71
			c-5.63,0-10.64,2.63-13.89,6.71c-2.42,3.03-3.87,6.87-3.87,11.05h35.52C334.1,826.33,332.65,822.49,330.23,819.46z"/>
		<path style="fill:#414042;" d="M333.09,562.4c2.85-3.02,4.62-7.07,4.62-11.55c0-9.29-7.53-16.83-16.83-16.83
			c-0.53,0-1.05,0.03-1.56,0.08c-3.52-9.47-12.64-16.21-23.33-16.21c-10.74,0-19.89,6.8-23.38,16.33c-0.8-0.12-1.61-0.2-2.45-0.2
			c-9.29,0-16.83,7.53-16.83,16.83c0,4.91,2.11,9.31,5.47,12.39c-0.1,1.1-0.16,2.22-0.16,3.35c0,0.03,0,0.07,0,0.1l4.7,17.45
			c0,0,0,0,0,0v-17.45c0-0.15,0.01-0.3,0.01-0.46c2.09,0.93,4.39,1.45,6.82,1.45c4.45,0,8.48-1.74,11.49-4.55
			c4.05,2.86,9,4.55,14.34,4.55c5.11,0,9.86-1.54,13.81-4.18c2.96,2.6,6.83,4.18,11.08,4.18c2.79,0,5.42-0.69,7.74-1.9
			c0.01,0.3,0.02,0.6,0.02,0.9v17.45c0,0,0,0,0,0l4.7-17.45c0-0.03,0-0.07,0-0.1C333.34,565.16,333.25,563.77,333.09,562.4z"/>
		<path style="fill:#1A1A1A;" d="M313.5,581.07h-3.7c-1.19,0-2.16,0.97-2.16,2.16c0,1.19,0.97,2.16,2.16,2.16h3.7
			c1.19,0,2.16-0.97,2.16-2.16C315.66,582.04,314.7,581.07,313.5,581.07z M276.82,578.09l8.17-2.26c1.15-0.32,1.83-1.51,1.51-2.66
			c-0.32-1.15-1.51-1.83-2.66-1.51l-8.17,2.26c-1.15,0.32-1.83,1.51-1.51,2.66C274.48,577.74,275.67,578.41,276.82,578.09z
			 M307,575.84l8.17,2.26c1.15,0.32,2.34-0.36,2.66-1.51c0.32-1.15-0.36-2.34-1.51-2.66l-8.17-2.26c-1.15-0.32-2.34,0.36-2.66,1.51
			C305.17,574.33,305.85,575.52,307,575.84z M320.15,717.28h-60.47v102.18h2.07c3.25-4.09,8.26-6.71,13.89-6.71
			c5.63,0,10.64,2.63,13.89,6.71h2.77l3.68-62.87l3.68,62.87h2.77c3.25-4.09,8.26-6.71,13.89-6.71c5.63,0,10.64,2.63,13.89,6.71
			h2.07v-93.62C326.7,725.84,321.94,722.27,320.15,717.28z M278.48,581.07c-1.19,0-2.16,0.97-2.16,2.16c0,1.19,0.97,2.16,2.16,2.16
			h3.7c1.19,0,2.16-0.97,2.16-2.16c0-1.19-0.97-2.16-2.16-2.16H278.48z"/>
		<path style="fill:#EB9877;" d="M296.29,606.24c2.13,0,3.86-1.73,3.86-3.86s-1.73-3.86-3.86-3.86c-2.13,0-3.86,1.73-3.86,3.86
			S294.16,606.24,296.29,606.24z M258.64,566.67c0-0.03,0-0.07,0-0.1c-3.15,1.68-5.3,5-5.3,8.82c0,5.52,4.48,10,10,10
			c0.01,0,0.02,0,0.03,0c-0.02-0.42-0.03-0.84-0.03-1.27L258.64,566.67z M295.99,616.78c-5.14,0-10.01-1.19-14.33-3.31v8.98
			c0,0.01,0,0.02,0,0.03c0.02,7.9,6.43,14.3,14.33,14.3c7.91,0,14.32-6.4,14.33-14.3c0-0.01,0-0.02,0-0.03v-8.98
			C306,615.59,301.13,616.78,295.99,616.78L295.99,616.78z M333.34,566.58c0,0.03,0,0.07,0,0.1l-4.7,17.45
			c0,0.43-0.02,0.85-0.03,1.27c0.01,0,0.02,0,0.03,0c5.52,0,10-4.48,10-10C338.64,571.58,336.5,568.26,333.34,566.58z"/>
		<path style="fill:#F7C297;" d="M300.62,662.82H273.2v-5.06h-25.83v17.97c0,6.93,5.46,12.57,12.31,12.88
			c0.2,0.01,0.4,0.03,0.6,0.03h40.33c7.13,0,12.91-5.78,12.91-12.91C313.53,668.6,307.75,662.82,300.62,662.82z M319.39,657.76
			v55.17c0,1.53,0.28,2.99,0.77,4.35c1.79,4.99,6.54,8.56,12.15,8.56c7.13,0,12.91-5.78,12.91-12.91v-55.17H319.39z M328.65,584.12
			C328.65,584.12,328.65,584.12,328.65,584.12v-17.45c0-0.3-0.01-0.6-0.02-0.9c-2.32,1.21-4.95,1.9-7.74,1.9
			c-4.25,0-8.12-1.59-11.08-4.18c-3.95,2.64-8.7,4.18-13.81,4.18c-5.34,0-10.29-1.69-14.34-4.55c-3.01,2.82-7.04,4.55-11.49,4.55
			c-2.43,0-4.73-0.53-6.82-1.45c0,0.15-0.01,0.3-0.01,0.46v17.45c0,0,0,0,0,0c0,0.43,0.02,0.85,0.03,1.27
			c0.47,12.35,7.8,22.95,18.29,28.08c4.33,2.12,9.19,3.31,14.33,3.31h0c5.14,0,10.01-1.19,14.33-3.31
			c10.49-5.13,17.82-15.73,18.29-28.08C328.63,584.97,328.65,584.55,328.65,584.12z M282.17,585.39h-3.7
			c-1.19,0-2.16-0.97-2.16-2.16c0-1.19,0.97-2.16,2.16-2.16h3.7c1.19,0,2.16,0.97,2.16,2.16
			C284.33,584.43,283.37,585.39,282.17,585.39z M284.99,575.84l-8.17,2.26c-1.15,0.32-2.34-0.36-2.66-1.51
			c-0.32-1.15,0.36-2.34,1.51-2.66l8.17-2.26c1.15-0.32,2.34,0.36,2.66,1.51C286.81,574.33,286.14,575.52,284.99,575.84z
			 M296.29,606.24c-2.13,0-3.86-1.73-3.86-3.86s1.73-3.86,3.86-3.86c2.13,0,3.86,1.73,3.86,3.86S298.43,606.24,296.29,606.24z
			 M313.5,585.39h-3.7c-1.19,0-2.16-0.97-2.16-2.16c0-1.19,0.97-2.16,2.16-2.16h3.7c1.19,0,2.16,0.97,2.16,2.16
			C315.66,584.43,314.7,585.39,313.5,585.39z M317.82,576.59c-0.32,1.15-1.51,1.83-2.66,1.51l-8.17-2.26
			c-1.15-0.32-1.83-1.51-1.51-2.66c0.32-1.15,1.51-1.83,2.66-1.51l8.17,2.26C317.47,574.25,318.14,575.44,317.82,576.59z"/>
		<path style="fill:#9E1F63;" d="M345.21,657.76V635.4c0-7.13-5.78-12.91-12.91-12.91h-21.98c-0.02,7.9-6.43,14.3-14.33,14.3
			c-7.91,0-14.32-6.4-14.33-14.3h-21.98v0.03c-6.85,0.32-12.31,5.95-12.31,12.88v22.36h25.83v5.06h27.42
			c7.13,0,12.91,5.78,12.91,12.91c0,7.13-5.78,12.91-12.91,12.91h-40.33c-0.2,0-0.4-0.02-0.6-0.03v28.67h60.47
			c-0.49-1.36-0.77-2.82-0.77-4.35v-55.17H345.21z"/>
	</g>
	<path id="XMLID_253_" style="fill:#E6E6E6;" d="M288.62,602.38c-3.81,0-7.26-0.92-9.73-2.41c0.29-0.59,0.46-1.24,0.46-1.94
		c0-2.41-1.95-4.35-4.35-4.35c-2.41,0-4.35,1.95-4.35,4.35c-2.41,0-4.35,1.95-4.35,4.35c0,2.41,1.95,4.35,4.35,4.35
		c0,2.41,1.95,4.35,4.35,4.35c2.41,0,4.35-1.95,4.35-4.35c0-0.7-0.17-1.36-0.46-1.94C281.36,603.3,284.81,602.38,288.62,602.38z"/>
</g>
<path style="fill:#9E1F63;" d="M247.33,438.96c1.24,1.25,1.85,2.76,1.85,4.52v3.05H245v-3.13c0-0.64-0.23-1.19-0.68-1.64
	s-1-0.68-1.64-0.68c-0.64,0-1.18,0.23-1.63,0.68c-0.45,0.45-0.67,1-0.67,1.64v14.62c0,0.64,0.22,1.18,0.67,1.63
	c0.45,0.45,0.99,0.67,1.63,0.67c0.64,0,1.19-0.22,1.64-0.67c0.45-0.45,0.68-0.99,0.68-1.63v-3.69h4.18v3.73
	c0,1.78-0.63,3.28-1.88,4.52c-1.25,1.24-2.75,1.85-4.5,1.85c-1.78,0-3.28-0.62-4.53-1.86c-1.24-1.24-1.86-2.75-1.86-4.51v-14.57
	c0-1.78,0.62-3.28,1.88-4.53c1.25-1.24,2.76-1.86,4.52-1.86C244.58,437.09,246.09,437.71,247.33,438.96z M263.32,438.92
	c1.24,1.25,1.86,2.76,1.86,4.52v14.57c0,1.78-0.63,3.28-1.88,4.53c-1.25,1.24-2.76,1.86-4.52,1.86c-1.78,0-3.28-0.62-4.52-1.88
	s-1.85-2.76-1.85-4.52v-14.57c0-1.78,0.62-3.28,1.88-4.53s2.75-1.86,4.5-1.86C260.56,437.04,262.07,437.67,263.32,438.92z
	 M260.98,443.35c0-0.64-0.22-1.18-0.67-1.63c-0.45-0.45-0.99-0.67-1.63-0.67c-0.64,0-1.19,0.22-1.64,0.67
	c-0.45,0.45-0.68,0.99-0.68,1.63v14.62c0,0.64,0.23,1.18,0.68,1.63c0.45,0.45,1,0.67,1.64,0.67c0.64,0,1.18-0.22,1.63-0.67
	c0.45-0.45,0.67-0.99,0.67-1.63V443.35z M277.26,457.99c0,0.64-0.22,1.18-0.67,1.63c-0.45,0.45-0.99,0.67-1.63,0.67
	c-0.64,0-1.19-0.22-1.64-0.67c-0.45-0.45-0.68-0.99-0.68-1.63v-20.6h-3.94v20.65c0,1.76,0.62,3.26,1.85,4.5
	c1.24,1.24,2.74,1.85,4.52,1.85c1.76,0,3.27-0.61,4.52-1.83c1.25-1.22,1.88-2.73,1.88-4.52v-20.65h-4.2V457.99z M291.37,437.09
	c-1.76,0-3.27,0.62-4.52,1.86c-1.25,1.24-1.88,2.75-1.88,4.53v14.57c0,1.75,0.62,3.25,1.86,4.5c1.24,1.25,2.75,1.88,4.53,1.88
	c1.75,0,3.25-0.62,4.5-1.85c1.25-1.24,1.88-2.74,1.88-4.52v-9.33h-6.41v4.05h2.24v5.25c0,0.64-0.23,1.18-0.68,1.63
	s-1,0.67-1.64,0.67c-0.64,0-1.18-0.22-1.63-0.67c-0.45-0.45-0.67-0.99-0.67-1.63v-14.62c0-0.64,0.22-1.19,0.67-1.64
	c0.45-0.45,0.99-0.68,1.63-0.68c0.64,0,1.19,0.23,1.64,0.68s0.68,1,0.68,1.64v3.13h4.18v-3.05c0-1.76-0.62-3.27-1.85-4.52
	S293.14,437.09,291.37,437.09z M310.12,448.72h-4.86v-11.33h-4.03v26.7h4.03v-11.31h4.86v11.31h4.03v-26.7h-4.03V448.72z
	 M317.74,464.08h4.03v-26.7h-4.03V464.08z M335.24,455.32l-5.34-17.96h-4.52v26.72h4.03v-17.11l5.54,17.11h4.33v-26.72h-4.03V455.32
	z M355.56,446.53v-3.05c0-1.76-0.62-3.27-1.85-4.52s-2.74-1.88-4.52-1.88c-1.76,0-3.27,0.62-4.52,1.86
	c-1.25,1.24-1.88,2.75-1.88,4.53v14.57c0,1.75,0.62,3.25,1.86,4.5c1.24,1.25,2.75,1.88,4.53,1.88c1.75,0,3.25-0.62,4.5-1.85
	c1.25-1.24,1.88-2.74,1.88-4.52v-9.33h-6.41v4.05h2.24v5.25c0,0.64-0.23,1.18-0.68,1.63s-1,0.67-1.64,0.67
	c-0.64,0-1.18-0.22-1.63-0.67c-0.45-0.45-0.67-0.99-0.67-1.63v-14.62c0-0.64,0.22-1.19,0.67-1.64c0.45-0.45,0.99-0.68,1.63-0.68
	c0.64,0,1.19,0.23,1.64,0.68s0.68,1,0.68,1.64v3.13H355.56z"/>
<path style="fill:#9E1F63;" d="M482.44,866.62h11.46v4.05h-7.44v7.29h5.43V882h-5.43v11.34h-4.03V866.62z M496.67,893.33h11.46
	v-4.05h-7.44V882h5.43v-4.05h-5.43v-7.29h7.44v-4.05h-11.46V893.33z M510.9,893.33h11.46v-4.05h-7.44V882h5.43v-4.05h-5.43v-7.29
	h7.44v-4.05H510.9V893.33z M529.16,866.64h-4.03v26.7h10.97v-4.01h-6.95V866.64z M538.88,893.33h4.03v-26.7h-4.03V893.33z
	 M556.37,884.57l-5.34-17.96h-4.52v26.72h4.03v-17.11l5.54,17.11h4.33v-26.72h-4.03V884.57z M570.33,866.34
	c-1.76,0-3.27,0.62-4.52,1.86c-1.25,1.24-1.88,2.75-1.88,4.53v14.57c0,1.75,0.62,3.25,1.86,4.5c1.24,1.25,2.75,1.88,4.53,1.88
	c1.75,0,3.25-0.62,4.5-1.85c1.25-1.24,1.88-2.74,1.88-4.52v-9.33h-6.41v4.05h2.24v5.25c0,0.64-0.23,1.18-0.68,1.63
	s-1,0.67-1.64,0.67c-0.64,0-1.18-0.22-1.63-0.67c-0.45-0.45-0.67-0.99-0.67-1.63v-14.62c0-0.64,0.22-1.19,0.67-1.64
	c0.45-0.45,0.99-0.68,1.63-0.68c0.64,0,1.19,0.23,1.64,0.68c0.45,0.46,0.68,1,0.68,1.64v3.13h4.18v-3.05c0-1.76-0.62-3.27-1.85-4.52
	S572.1,866.34,570.33,866.34z M582.24,870.69h4.28v22.65h4.03v-22.65h4.26v-4.05h-12.57V870.69z M598.05,893.33h4.03v-26.7h-4.03
	V893.33z M616.2,881.68l2.98,11.66h-4.35l-2.44-10.06c-0.11,0-0.23,0-0.36,0h-2.32v10.06h-4.03v-26.7h6.35
	c2.24,0,3.89,0.62,4.94,1.85c0.92,1.08,1.38,2.58,1.38,4.52v3.88C618.35,878.78,617.63,880.37,616.2,881.68z M614.43,873.07
	c0-1.55-0.77-2.32-2.3-2.32h-2.43v8.54h2.43c0.64,0,1.18-0.23,1.63-0.68c0.45-0.45,0.67-1,0.67-1.64V873.07z M622.63,893.33h11.46
	v-4.05h-7.44V882h5.43v-4.05h-5.43v-7.29h7.44v-4.05h-11.46V893.33z M649.52,872.99v13.96c0,1.76-0.62,3.27-1.85,4.52
	s-2.73,1.88-4.47,1.88h-6.33v-26.72h6.33c1.76,0,3.26,0.62,4.49,1.88C648.91,869.74,649.52,871.24,649.52,872.99z M645.6,873.05
	c0-0.64-0.22-1.19-0.67-1.64c-0.45-0.45-0.98-0.68-1.61-0.68h-2.43v18.62h2.43c0.64,0,1.18-0.23,1.62-0.69
	c0.44-0.46,0.66-1,0.66-1.63V873.05z"/>
<path style="fill:#9E1F63;" d="M803.75,868.21c1.24,1.25,1.85,2.76,1.85,4.52v3.05h-4.18v-3.13c0-0.64-0.23-1.19-0.68-1.64
	c-0.45-0.45-1-0.68-1.64-0.68c-0.64,0-1.18,0.23-1.63,0.68c-0.45,0.46-0.67,1-0.67,1.64v14.62c0,0.64,0.22,1.18,0.67,1.63
	c0.45,0.45,0.99,0.67,1.63,0.67c0.64,0,1.19-0.22,1.64-0.67c0.46-0.45,0.68-0.99,0.68-1.63v-3.69h4.18v3.73
	c0,1.78-0.62,3.28-1.88,4.52c-1.25,1.24-2.75,1.85-4.5,1.85c-1.78,0-3.28-0.62-4.53-1.86s-1.86-2.75-1.86-4.51v-14.57
	c0-1.78,0.62-3.29,1.88-4.53c1.25-1.24,2.76-1.86,4.52-1.86C801,866.34,802.51,866.96,803.75,868.21z M819.74,868.17
	c1.24,1.25,1.86,2.76,1.86,4.52v14.57c0,1.78-0.62,3.28-1.88,4.53s-2.76,1.86-4.52,1.86c-1.78,0-3.28-0.62-4.52-1.88
	c-1.24-1.25-1.85-2.76-1.85-4.52v-14.57c0-1.78,0.62-3.28,1.88-4.53s2.75-1.87,4.5-1.87C816.98,866.3,818.49,866.92,819.74,868.17z
	 M817.4,872.6c0-0.64-0.22-1.18-0.67-1.63c-0.45-0.45-0.99-0.67-1.63-0.67c-0.64,0-1.19,0.22-1.64,0.67
	c-0.45,0.45-0.68,0.99-0.68,1.63v14.62c0,0.64,0.23,1.18,0.68,1.63c0.46,0.45,1,0.67,1.64,0.67c0.64,0,1.18-0.22,1.63-0.67
	c0.45-0.45,0.67-0.99,0.67-1.63V872.6z M829.18,866.64h-4.03v26.7h10.97v-4.01h-6.95V866.64z M851.56,872.99v13.96
	c0,1.76-0.62,3.27-1.85,4.52c-1.24,1.25-2.73,1.88-4.47,1.88h-6.33v-26.72h6.33c1.76,0,3.26,0.62,4.49,1.88
	S851.56,871.24,851.56,872.99z M847.64,873.05c0-0.64-0.22-1.19-0.67-1.64c-0.45-0.45-0.98-0.68-1.61-0.68h-2.43v18.62h2.43
	c0.64,0,1.18-0.23,1.62-0.69c0.44-0.46,0.66-1,0.66-1.63V873.05z"/>
<path style="fill:#9E1F63;" d="M1021.8,866.64h12.57v4.05h-4.26v22.65h-4.03v-22.65h-4.28V866.64z M1048.14,881.68l2.98,11.66h-4.36
	l-2.44-10.06c-0.11,0-0.23,0-0.36,0h-2.32v10.06h-4.03v-26.7h6.35c2.24,0,3.89,0.62,4.94,1.85c0.92,1.08,1.38,2.58,1.38,4.52v3.88
	C1050.29,878.78,1049.57,880.37,1048.14,881.68z M1046.37,873.07c0-1.55-0.77-2.32-2.3-2.32h-2.43v8.54h2.43
	c0.64,0,1.18-0.23,1.63-0.68c0.45-0.45,0.67-1,0.67-1.64V873.07z M1060.26,893.65c-1.78,0-3.28-0.62-4.52-1.88
	c-1.24-1.25-1.85-2.76-1.85-4.52v-14.57c0-1.78,0.62-3.28,1.88-4.53s2.75-1.87,4.5-1.87c1.78,0,3.28,0.63,4.53,1.88
	c1.24,1.25,1.87,2.76,1.87,4.52v14.57c0,1.78-0.63,3.28-1.88,4.53C1063.53,893.03,1062.02,893.65,1060.26,893.65z M1060.15,889.52
	c0.64,0,1.18-0.22,1.63-0.67s0.67-0.99,0.67-1.63V872.6c0-0.64-0.22-1.18-0.67-1.63c-0.45-0.45-0.99-0.67-1.63-0.67
	s-1.19,0.22-1.64,0.67c-0.46,0.45-0.68,0.99-0.68,1.63v14.62c0,0.64,0.23,1.18,0.68,1.63
	C1058.97,889.3,1059.51,889.52,1060.15,889.52z M1081.05,891.8c1.25-1.22,1.88-2.73,1.88-4.52v-20.65h-4.2v20.6
	c0,0.64-0.22,1.18-0.67,1.63c-0.45,0.45-0.99,0.67-1.63,0.67c-0.64,0-1.19-0.22-1.64-0.67c-0.45-0.45-0.68-0.99-0.68-1.63v-20.6
	h-3.94v20.65c0,1.76,0.62,3.26,1.85,4.5c1.24,1.24,2.74,1.85,4.52,1.85C1078.3,893.63,1079.8,893.02,1081.05,891.8z M1093.96,893.33
	h-7.46v-26.72h6.03c1.59,0,3.03,0.42,4.3,1.26c1.09,0.71,1.88,1.81,2.34,3.3c0.26,0.8,0.38,1.74,0.38,2.83
	c0,1.79-0.48,3.22-1.43,4.3c-0.4,0.46-0.87,0.8-1.41,1.04c0.89,0.34,1.65,1.02,2.28,2.02c0.41,0.68,0.72,1.56,0.92,2.64
	c0.1,0.55,0.15,1.17,0.15,1.85c0,1.69-0.32,3.13-0.96,4.3c-0.5,0.92-1.2,1.66-2.11,2.22
	C1095.99,893.02,1094.97,893.33,1093.96,893.33z M1090.85,877.53h1.68c1.25,0,2.09-0.61,2.51-1.83c0.16-0.45,0.23-1.01,0.23-1.68
	c0-1.11-0.27-1.95-0.81-2.51c-0.5-0.53-1.14-0.79-1.94-0.79h-1.68V877.53z M1092.54,889.35c1.36,0,2.31-0.7,2.83-2.11
	c0.18-0.48,0.28-1.04,0.28-1.66c0-1.49-0.28-2.58-0.85-3.26c-0.51-0.62-1.26-0.94-2.26-0.94h-1.68v7.97H1092.54z M1114.55,889.33
	h-6.95v-22.69h-4.03v26.7h10.97V889.33z M1128.78,889.29h-7.44V882h5.43v-4.05h-5.43v-7.29h7.44v-4.05h-11.46v26.72h11.46V889.29z
	 M1148.91,880.92l-2.11-14.28h-4.22l-1.94,14.3l-2.11-14.3h-4.22l4.47,26.7h3.85l2.14-14.69l2.3,14.69h3.83l4.18-26.7h-4.23
	L1148.91,880.92z M1167.37,877.97h-4.86v-11.33h-4.03v26.7h4.03v-11.31h4.86v11.31h4.03v-26.7h-4.03V877.97z M1174.99,893.33h4.03
	v-26.7h-4.03V893.33z M1186.65,866.64h-4.03v26.7h10.97v-4.01h-6.95V866.64z M1207.83,870.66v-4.05h-11.46v26.72h11.46v-4.05h-7.44
	V882h5.43v-4.05h-5.43v-7.29H1207.83z M1070.63,918.87c-0.54-0.97-1.31-1.95-2.3-2.94c-0.3-0.31-0.92-0.86-1.85-1.64
	c-0.8-0.65-1.39-1.22-1.79-1.7c-1.05-1.26-1.58-2.51-1.58-3.73c0-0.78,0.16-1.43,0.47-1.96c0.38-0.65,0.94-0.98,1.68-0.98
	c0.7,0,1.23,0.22,1.6,0.66c0.51,0.61,0.82,1.46,0.94,2.56l3.86-0.7c-0.1-1.16-0.39-2.19-0.88-3.09c-0.49-0.89-1.13-1.59-1.93-2.09
	c-1.02-0.64-2.25-0.96-3.69-0.96c-1.49,0-2.74,0.38-3.75,1.13c-1.63,1.25-2.45,3.09-2.45,5.52c0,1.35,0.3,2.6,0.89,3.75
	c0.55,1.02,1.5,2.18,2.83,3.48c1.59,1.51,2.78,2.64,3.58,3.39c1.01,1.09,1.51,2.2,1.51,3.31c0,0.77-0.14,1.36-0.41,1.77
	c-0.53,0.84-1.23,1.27-2.11,1.3c-0.62,0.03-1.18-0.22-1.66-0.75c-0.65-0.7-1.07-1.83-1.24-3.38l-3.84,0.28
	c0.09,1.42,0.38,2.68,0.88,3.78c0.5,1.1,1.19,1.97,2.06,2.61c1.04,0.78,2.34,1.17,3.92,1.17c0.85,0,1.6-0.1,2.24-0.3
	c1.19-0.37,2.12-1,2.77-1.9c0.99-1.32,1.48-2.91,1.45-4.77c-0.01-0.75-0.21-1.6-0.6-2.56
	C1071.1,919.75,1070.89,919.33,1070.63,918.87z M1079.22,902.64h-4.03v26.7h10.97v-4.01h-6.95V902.64z M1088.94,929.33h11.46v-4.05
	h-7.44V918h5.43v-4.05h-5.43v-7.29h7.44v-4.05h-11.46V929.33z M1103.17,929.33h11.46v-4.05h-7.44V918h5.43v-4.05h-5.43v-7.29h7.44
	v-4.05h-11.46V929.33z M1128.44,904.49c1.08,1.18,1.62,2.68,1.62,4.52v3.88c0,1.76-0.61,3.27-1.84,4.52s-2.72,1.88-4.46,1.88h-2.32
	v10.06h-4.03v-26.7h6.35C1125.71,902.64,1127.27,903.25,1128.44,904.49z M1126.16,909.07c0-0.7-0.21-1.26-0.63-1.68
	s-0.98-0.64-1.67-0.64h-2.43v8.54h2.43c0.64,0,1.18-0.23,1.63-0.68c0.45-0.45,0.67-1,0.67-1.64V909.07z M1133.28,929.33h4.03v-26.7
	h-4.03V929.33z M1150.77,920.57l-5.34-17.96h-4.52v26.72h4.03v-17.11l5.54,17.11h4.33v-26.72h-4.03V920.57z M1164.72,902.34
	c-1.76,0-3.27,0.62-4.52,1.86c-1.25,1.24-1.88,2.75-1.88,4.53v14.57c0,1.75,0.62,3.25,1.87,4.5c1.24,1.25,2.75,1.88,4.53,1.88
	c1.75,0,3.25-0.62,4.5-1.85c1.25-1.24,1.88-2.74,1.88-4.52v-9.33h-6.41v4.05h2.24v5.25c0,0.64-0.23,1.18-0.68,1.63
	c-0.46,0.45-1,0.67-1.64,0.67s-1.18-0.22-1.63-0.67c-0.45-0.45-0.67-0.99-0.67-1.63v-14.62c0-0.64,0.22-1.19,0.67-1.64
	c0.45-0.45,0.99-0.68,1.63-0.68s1.19,0.23,1.64,0.68c0.45,0.46,0.68,1,0.68,1.64v3.13h4.18v-3.05c0-1.76-0.62-3.27-1.85-4.52
	C1168,902.96,1166.5,902.34,1164.72,902.34z"/>
<path style="fill:#9E1F63;" d="M219.66,884.13c0.38,0.95,0.58,1.8,0.6,2.56c0.03,1.86-0.45,3.45-1.45,4.77
	c-0.65,0.89-1.58,1.53-2.77,1.9c-0.64,0.2-1.38,0.3-2.24,0.3c-1.58,0-2.88-0.39-3.92-1.17c-0.87-0.64-1.55-1.51-2.06-2.61
	c-0.5-1.1-0.8-2.36-0.88-3.78l3.84-0.28c0.17,1.56,0.58,2.68,1.24,3.38c0.48,0.53,1.04,0.78,1.66,0.75c0.88-0.03,1.58-0.46,2.11-1.3
	c0.27-0.41,0.41-1,0.41-1.77c0-1.11-0.5-2.21-1.51-3.31c-0.8-0.75-1.99-1.88-3.58-3.39c-1.33-1.29-2.28-2.45-2.83-3.48
	c-0.6-1.15-0.9-2.4-0.9-3.75c0-2.43,0.82-4.27,2.45-5.52c1.01-0.75,2.26-1.13,3.75-1.13c1.43,0,2.66,0.32,3.69,0.96
	c0.8,0.5,1.44,1.19,1.93,2.09c0.49,0.9,0.78,1.93,0.88,3.09l-3.86,0.7c-0.11-1.09-0.43-1.95-0.94-2.56c-0.37-0.44-0.9-0.66-1.6-0.66
	c-0.74,0-1.3,0.33-1.68,0.98c-0.31,0.53-0.47,1.18-0.47,1.96c0,1.22,0.53,2.46,1.58,3.73c0.4,0.48,0.99,1.05,1.79,1.7
	c0.94,0.78,1.56,1.33,1.85,1.64c0.99,0.99,1.76,1.97,2.3,2.94C219.3,883.33,219.5,883.75,219.66,884.13z M232.49,877.97h-4.86
	v-11.33h-4.03v26.7h4.03v-11.31h4.86v11.31h4.03v-26.7h-4.03V877.97z M250.96,891.79c-1.25,1.24-2.76,1.86-4.52,1.86
	c-1.78,0-3.28-0.62-4.52-1.88s-1.85-2.76-1.85-4.52v-14.57c0-1.78,0.62-3.28,1.88-4.53s2.75-1.87,4.5-1.87
	c1.78,0,3.28,0.63,4.53,1.88c1.24,1.25,1.86,2.76,1.86,4.52v14.57C252.84,889.04,252.21,890.55,250.96,891.79z M248.64,872.6
	c0-0.64-0.22-1.18-0.67-1.63c-0.45-0.45-0.99-0.67-1.63-0.67c-0.64,0-1.19,0.22-1.64,0.67c-0.45,0.45-0.68,0.99-0.68,1.63v14.62
	c0,0.64,0.23,1.18,0.68,1.63s1,0.67,1.64,0.67c0.64,0,1.18-0.22,1.63-0.67c0.45-0.45,0.67-0.99,0.67-1.63V872.6z M269.9,893.33
	h-4.35l-2.44-10.06c-0.11,0-0.23,0-0.36,0h-2.32v10.06h-4.03v-26.7h6.35c2.24,0,3.89,0.62,4.94,1.85c0.92,1.08,1.38,2.58,1.38,4.52
	v3.88c0,1.89-0.72,3.49-2.15,4.79L269.9,893.33z M265.15,873.07c0-1.55-0.77-2.32-2.3-2.32h-2.43v8.54h2.43
	c0.64,0,1.18-0.23,1.63-0.68c0.45-0.45,0.67-1,0.67-1.64V873.07z M276.31,893.33h4.03v-22.65h4.26v-4.05h-12.57v4.05h4.28V893.33z
	 M301.73,866.62h-4.03v17.96l-5.34-17.96h-4.52v26.72h4.03v-17.11l5.54,17.11h4.33V866.62z M316.8,889.29h-7.44V882h5.43v-4.05
	h-5.43v-7.29h7.44v-4.05h-11.46v26.72h11.46V889.29z M331.44,891.46c0.99-1.32,1.48-2.91,1.45-4.77c-0.01-0.75-0.21-1.6-0.6-2.56
	c-0.16-0.38-0.36-0.8-0.62-1.26c-0.54-0.97-1.31-1.95-2.3-2.94c-0.3-0.31-0.92-0.86-1.85-1.64c-0.8-0.65-1.39-1.22-1.79-1.7
	c-1.05-1.26-1.58-2.51-1.58-3.73c0-0.78,0.16-1.43,0.47-1.96c0.38-0.65,0.94-0.98,1.68-0.98c0.7,0,1.23,0.22,1.6,0.66
	c0.51,0.61,0.82,1.46,0.94,2.56l3.86-0.7c-0.1-1.16-0.39-2.19-0.88-3.09c-0.49-0.89-1.13-1.59-1.93-2.09
	c-1.02-0.64-2.25-0.96-3.69-0.96c-1.49,0-2.74,0.38-3.75,1.13c-1.63,1.25-2.45,3.09-2.45,5.52c0,1.35,0.3,2.6,0.9,3.75
	c0.55,1.02,1.5,2.18,2.83,3.48c1.59,1.51,2.78,2.64,3.58,3.39c1.01,1.09,1.51,2.2,1.51,3.31c0,0.77-0.14,1.36-0.41,1.77
	c-0.53,0.84-1.23,1.27-2.11,1.3c-0.62,0.03-1.18-0.22-1.66-0.75c-0.65-0.7-1.07-1.83-1.24-3.38l-3.84,0.28
	c0.09,1.42,0.38,2.68,0.88,3.78c0.5,1.1,1.19,1.97,2.06,2.61c1.04,0.78,2.34,1.17,3.92,1.17c0.85,0,1.6-0.1,2.24-0.3
	C329.86,892.99,330.78,892.35,331.44,891.46z M347.76,882.87c-0.54-0.97-1.31-1.95-2.3-2.94c-0.3-0.31-0.92-0.86-1.85-1.64
	c-0.8-0.65-1.39-1.22-1.79-1.7c-1.05-1.26-1.58-2.51-1.58-3.73c0-0.78,0.16-1.43,0.47-1.96c0.38-0.65,0.94-0.98,1.68-0.98
	c0.7,0,1.23,0.22,1.6,0.66c0.51,0.61,0.82,1.46,0.94,2.56l3.86-0.7c-0.1-1.16-0.39-2.19-0.88-3.09c-0.49-0.89-1.13-1.59-1.93-2.09
	c-1.02-0.64-2.25-0.96-3.69-0.96c-1.49,0-2.74,0.38-3.75,1.13c-1.63,1.25-2.45,3.09-2.45,5.52c0,1.35,0.3,2.6,0.9,3.75
	c0.55,1.02,1.5,2.18,2.83,3.48c1.59,1.51,2.78,2.64,3.58,3.39c1.01,1.09,1.51,2.2,1.51,3.31c0,0.77-0.14,1.36-0.41,1.77
	c-0.53,0.84-1.23,1.27-2.11,1.3c-0.62,0.03-1.18-0.22-1.66-0.75c-0.65-0.7-1.07-1.83-1.24-3.38l-3.84,0.28
	c0.09,1.42,0.38,2.68,0.88,3.78c0.5,1.1,1.19,1.97,2.06,2.61c1.04,0.78,2.34,1.17,3.92,1.17c0.85,0,1.6-0.1,2.24-0.3
	c1.19-0.37,2.12-1,2.77-1.9c0.99-1.32,1.48-2.91,1.45-4.77c-0.01-0.75-0.21-1.6-0.6-2.56C348.22,883.75,348.01,883.33,347.76,882.87
	z M365.41,868.17c1.24,1.25,1.86,2.76,1.86,4.52v14.57c0,1.78-0.63,3.28-1.88,4.53c-1.25,1.24-2.76,1.86-4.52,1.86
	c-1.78,0-3.28-0.62-4.52-1.88s-1.85-2.76-1.85-4.52v-14.57c0-1.78,0.62-3.28,1.88-4.53s2.75-1.87,4.5-1.87
	C362.66,866.3,364.16,866.92,365.41,868.17z M363.07,872.6c0-0.64-0.22-1.18-0.67-1.63c-0.45-0.45-0.99-0.67-1.63-0.67
	c-0.64,0-1.19,0.22-1.64,0.67c-0.45,0.45-0.68,0.99-0.68,1.63v14.62c0,0.64,0.23,1.18,0.68,1.63s1,0.67,1.64,0.67
	c0.64,0,1.18-0.22,1.63-0.67c0.45-0.45,0.67-0.99,0.67-1.63V872.6z M382.27,870.66v-4.05h-11.46v26.72h4.03V882h5.43v-4.05h-5.43
	v-7.29H382.27z M263.84,920.02c0.1,0.55,0.15,1.17,0.15,1.85c0,1.69-0.32,3.13-0.96,4.3c-0.5,0.92-1.2,1.66-2.11,2.22
	c-1.02,0.62-2.04,0.94-3.05,0.94h-7.46v-26.72h6.03c1.59,0,3.03,0.42,4.3,1.26c1.09,0.71,1.88,1.81,2.34,3.3
	c0.26,0.8,0.38,1.74,0.38,2.83c0,1.79-0.48,3.22-1.43,4.3c-0.4,0.46-0.87,0.8-1.41,1.04c0.9,0.34,1.65,1.02,2.28,2.02
	C263.33,918.06,263.64,918.94,263.84,920.02z M254.76,913.53h1.68c1.25,0,2.09-0.61,2.51-1.83c0.16-0.45,0.23-1.01,0.23-1.68
	c0-1.11-0.27-1.95-0.81-2.51c-0.5-0.53-1.14-0.79-1.94-0.79h-1.68V913.53z M259.56,921.58c0-1.49-0.28-2.58-0.85-3.26
	c-0.51-0.62-1.26-0.94-2.26-0.94h-1.68v7.97h1.68c1.36,0,2.31-0.7,2.83-2.11C259.46,922.76,259.56,922.2,259.56,921.58z
	 M278.01,917.68l2.98,11.66h-4.35l-2.44-10.06c-0.11,0-0.23,0-0.36,0h-2.32v10.06h-4.03v-26.7h6.35c2.24,0,3.89,0.62,4.94,1.85
	c0.92,1.08,1.38,2.58,1.38,4.52v3.88C280.16,914.78,279.44,916.37,278.01,917.68z M276.24,909.07c0-1.55-0.77-2.32-2.3-2.32h-2.43
	v8.54h2.43c0.64,0,1.18-0.23,1.63-0.68c0.45-0.45,0.67-1,0.67-1.64V909.07z M284.44,929.33h11.46v-4.05h-7.44V918h5.43v-4.05h-5.43
	v-7.29h7.44v-4.05h-11.46V929.33z M308.75,902.64l4.47,26.7h-4.23l-0.94-6.14h-4.2l-0.98,6.14h-4.19l4.54-26.7H308.75z
	 M307.45,919.28l-1.49-10.53l-1.49,10.53H307.45z M312.84,906.69h4.28v22.65h4.03v-22.65h4.26v-4.05h-12.57V906.69z M337.54,913.97
	h-4.86v-11.33h-4.03v26.7h4.03v-11.31h4.86v11.31h4.03v-26.7h-4.03V913.97z"/>
<path style="fill:#9E1F63;" d="M521.49,437.39h4.23l-4.18,26.7h-3.83l-2.3-14.69l-2.14,14.69h-3.85l-4.47-26.7h4.22l2.11,14.3
	l1.94-14.3h4.22l2.11,14.28L521.49,437.39z M537.99,448.72h-4.86v-11.33h-4.03v26.7h4.03v-11.31h4.86v11.31h4.03v-26.7h-4.03V448.72
	z M545.62,464.08h11.46v-4.05h-7.44v-7.29h5.43v-4.05h-5.43v-7.29h7.44v-4.05h-11.46V464.08z M559.85,464.08h11.46v-4.05h-7.44
	v-7.29h5.43v-4.05h-5.43v-7.29h7.44v-4.05h-11.46V464.08z M574.09,441.43l7.44-0.02l-7.44,18.64v4.03h11.76v-4.01h-7.42l7.42-18.64
	v-4.05h-11.76V441.43z M589.19,464.08h4.03v-26.7h-4.03V464.08z M606.69,455.32l-5.34-17.96h-4.52v26.72h4.03v-17.11l5.54,17.11
	h4.33v-26.72h-4.03V455.32z M627.01,446.53v-3.05c0-1.76-0.62-3.27-1.85-4.52s-2.74-1.88-4.52-1.88c-1.76,0-3.27,0.62-4.52,1.86
	c-1.25,1.24-1.88,2.75-1.88,4.53v14.57c0,1.75,0.62,3.25,1.86,4.5c1.24,1.25,2.75,1.88,4.53,1.88c1.75,0,3.25-0.62,4.5-1.85
	c1.25-1.24,1.88-2.74,1.88-4.52v-9.33h-6.41v4.05h2.24v5.25c0,0.64-0.23,1.18-0.68,1.63s-1,0.67-1.64,0.67
	c-0.64,0-1.18-0.22-1.63-0.67c-0.45-0.45-0.67-0.99-0.67-1.63v-14.62c0-0.64,0.22-1.19,0.67-1.64c0.45-0.45,0.99-0.68,1.63-0.68
	c0.64,0,1.19,0.23,1.64,0.68s0.68,1,0.68,1.64v3.13H627.01z"/>
<path style="fill:#9E1F63;" d="M783.46,438.96c1.24,1.25,1.85,2.76,1.85,4.52v3.05h-4.18v-3.13c0-0.64-0.23-1.19-0.68-1.64
	c-0.46-0.45-1-0.68-1.64-0.68s-1.18,0.23-1.63,0.68s-0.67,1-0.67,1.64v14.62c0,0.64,0.22,1.18,0.67,1.63
	c0.45,0.45,0.99,0.67,1.63,0.67s1.19-0.22,1.64-0.67c0.45-0.45,0.68-0.99,0.68-1.63v-3.69h4.18v3.73c0,1.78-0.63,3.28-1.88,4.52
	c-1.25,1.24-2.75,1.85-4.5,1.85c-1.78,0-3.29-0.62-4.53-1.86c-1.24-1.24-1.87-2.75-1.87-4.51v-14.57c0-1.78,0.62-3.28,1.88-4.53
	c1.25-1.24,2.76-1.86,4.52-1.86C780.72,437.09,782.23,437.71,783.46,438.96z M797.5,448.72h-4.86v-11.33h-4.03v26.7h4.03v-11.31
	h4.86v11.31h4.03v-26.7h-4.03V448.72z M805.13,464.08h11.46v-4.05h-7.44v-7.29h5.43v-4.05h-5.43v-7.29h7.44v-4.05h-11.46V464.08z
	 M831.46,453.62c-0.54-0.97-1.31-1.95-2.3-2.94c-0.3-0.31-0.92-0.86-1.85-1.64c-0.8-0.65-1.39-1.22-1.79-1.7
	c-1.05-1.26-1.58-2.51-1.58-3.73c0-0.78,0.16-1.43,0.47-1.96c0.38-0.65,0.94-0.98,1.68-0.98c0.7,0,1.23,0.22,1.6,0.66
	c0.51,0.61,0.82,1.46,0.94,2.56l3.86-0.7c-0.1-1.16-0.39-2.19-0.88-3.09c-0.49-0.89-1.13-1.59-1.93-2.09
	c-1.02-0.64-2.25-0.96-3.69-0.96c-1.49,0-2.74,0.38-3.75,1.13c-1.63,1.25-2.45,3.09-2.45,5.52c0,1.35,0.3,2.6,0.9,3.75
	c0.55,1.02,1.5,2.18,2.83,3.48c1.59,1.51,2.78,2.64,3.58,3.39c1.01,1.09,1.51,2.2,1.51,3.31c0,0.77-0.13,1.36-0.41,1.77
	c-0.53,0.84-1.23,1.27-2.11,1.3c-0.62,0.03-1.18-0.22-1.66-0.75c-0.65-0.7-1.07-1.83-1.24-3.38l-3.83,0.28
	c0.08,1.42,0.38,2.68,0.88,3.78c0.5,1.1,1.19,1.97,2.06,2.61c1.04,0.78,2.34,1.17,3.92,1.17c0.85,0,1.6-0.1,2.24-0.3
	c1.19-0.37,2.12-1,2.77-1.9c0.99-1.32,1.48-2.91,1.45-4.77c-0.01-0.75-0.21-1.6-0.6-2.56C831.93,454.5,831.72,454.08,831.46,453.62z
	 M835.45,441.43h4.28v22.65h4.03v-22.65h4.26v-4.05h-12.57V441.43z M864.6,439.24c1.08,1.18,1.62,2.68,1.62,4.52v3.88
	c0,1.76-0.61,3.27-1.84,4.52s-2.72,1.88-4.46,1.88h-2.32v10.06h-4.03v-26.7h6.35C861.87,437.39,863.43,438,864.6,439.24z
	 M862.32,443.82c0-0.7-0.21-1.26-0.63-1.68c-0.42-0.43-0.98-0.64-1.67-0.64h-2.43v8.54h2.43c0.64,0,1.18-0.23,1.63-0.68
	c0.45-0.45,0.67-1,0.67-1.64V443.82z M876.93,437.39l4.47,26.7h-4.23l-0.94-6.14h-4.2l-0.98,6.14h-4.19l4.54-26.7H876.93z
	 M875.63,454.03l-1.49-10.53l-1.49,10.53H875.63z M884.79,464.08h4.03v-26.7h-4.03V464.08z M902.29,437.36v17.96l-5.34-17.96h-4.52
	v26.72h4.03v-17.11l5.54,17.11h4.33v-26.72H902.29z"/>
<path style="fill:#9E1F63;" d="M1076.02,437.39l-4.54,26.7h4.19l0.98-6.14h4.2l0.94,6.14h4.23l-4.47-26.7H1076.02z M1077.27,454.03
	l1.49-10.53l1.49,10.53H1077.27z M1093.44,460.08h6.95v4.01h-10.97v-26.7h4.03V460.08z M1107.19,460.08h6.95v4.01h-10.97v-26.7h4.03
	V460.08z M1116.9,437.36h11.46v4.05h-7.44v7.29h5.43v4.05h-5.43v7.29h7.44v4.05h-11.46V437.36z M1143.81,447.63v-3.88
	c0-1.93-0.46-3.44-1.38-4.52c-1.05-1.24-2.7-1.85-4.94-1.85h-6.35v26.7h4.03v-10.06h2.32c0.13,0,0.25,0,0.36,0l2.44,10.06h4.35
	l-2.98-11.65C1143.09,451.12,1143.81,449.52,1143.81,447.63z M1139.89,447.72c0,0.64-0.22,1.19-0.67,1.64
	c-0.45,0.46-0.99,0.68-1.63,0.68h-2.43v-8.54h2.43c1.53,0,2.3,0.77,2.3,2.32V447.72z M1158.32,438.96c1.24,1.25,1.85,2.76,1.85,4.52
	v3.05H1156v-3.13c0-0.64-0.23-1.19-0.68-1.64c-0.45-0.45-1-0.68-1.64-0.68c-0.64,0-1.18,0.23-1.63,0.68c-0.45,0.45-0.67,1-0.67,1.64
	v14.62c0,0.64,0.22,1.18,0.67,1.63c0.45,0.45,0.99,0.67,1.63,0.67c0.64,0,1.19-0.22,1.64-0.67c0.46-0.45,0.68-0.99,0.68-1.63v-5.25
	h-2.24v-4.05h6.41v9.33c0,1.78-0.62,3.28-1.88,4.52s-2.75,1.85-4.5,1.85c-1.78,0-3.28-0.62-4.53-1.88c-1.24-1.25-1.86-2.75-1.86-4.5
	v-14.57c0-1.78,0.62-3.28,1.88-4.53c1.25-1.24,2.76-1.86,4.52-1.86C1155.58,437.09,1157.09,437.71,1158.32,438.96z M1163.67,437.39
	h4.03v26.7h-4.03V437.39z M1171.3,437.36h11.46v4.05h-7.44v7.29h5.43v4.05h-5.43v7.29h7.44v4.05h-11.46V437.36z M1198.85,457.44
	c0.03,1.86-0.46,3.45-1.45,4.77c-0.65,0.9-1.58,1.53-2.77,1.9c-0.64,0.2-1.38,0.3-2.24,0.3c-1.58,0-2.88-0.39-3.92-1.17
	c-0.87-0.64-1.55-1.51-2.06-2.61c-0.5-1.1-0.8-2.36-0.88-3.78l3.84-0.28c0.17,1.56,0.58,2.68,1.24,3.38
	c0.48,0.53,1.04,0.78,1.66,0.75c0.88-0.03,1.58-0.46,2.11-1.3c0.27-0.41,0.41-1,0.41-1.77c0-1.11-0.5-2.21-1.51-3.31
	c-0.79-0.75-1.99-1.88-3.58-3.39c-1.33-1.29-2.28-2.45-2.83-3.48c-0.6-1.15-0.89-2.4-0.89-3.75c0-2.43,0.82-4.27,2.45-5.52
	c1.01-0.75,2.26-1.13,3.75-1.13c1.43,0,2.66,0.32,3.69,0.96c0.8,0.5,1.44,1.19,1.93,2.09c0.49,0.9,0.78,1.93,0.88,3.09l-3.86,0.7
	c-0.11-1.09-0.43-1.95-0.94-2.56c-0.37-0.44-0.9-0.66-1.6-0.66c-0.74,0-1.3,0.33-1.68,0.98c-0.31,0.53-0.47,1.18-0.47,1.96
	c0,1.22,0.53,2.46,1.58,3.73c0.4,0.48,0.99,1.05,1.79,1.7c0.94,0.78,1.55,1.33,1.85,1.64c0.99,0.99,1.76,1.97,2.3,2.94
	c0.26,0.45,0.46,0.87,0.62,1.26C1198.63,455.83,1198.83,456.68,1198.85,457.44z"/>
<g>
	<g>
		<g>
			<path style="fill:#F7C297;" d="M237.85,165.64l-29.4,29.4c-0.3,0.3-0.59,0.62-0.86,0.95c-0.12,0.15-0.23,0.3-0.34,0.45
				c-0.14,0.19-0.28,0.37-0.41,0.56c-0.12,0.18-0.23,0.37-0.34,0.56c-0.1,0.18-0.21,0.35-0.31,0.53c-0.1,0.19-0.19,0.39-0.28,0.58
				c-0.09,0.19-0.18,0.37-0.26,0.56c-0.08,0.19-0.14,0.38-0.21,0.58c-0.07,0.21-0.15,0.41-0.22,0.62c-0.06,0.19-0.1,0.39-0.15,0.58
				c-0.05,0.21-0.11,0.43-0.16,0.65c-0.04,0.22-0.07,0.45-0.1,0.67c-0.03,0.19-0.06,0.38-0.08,0.58c-0.04,0.42-0.06,0.83-0.06,1.25
				c0,0.01,0,0.01,0,0.02c0,0.01,0,0.02,0,0.02c0,0.42,0.02,0.83,0.06,1.25c0.02,0.2,0.06,0.39,0.08,0.58
				c0.03,0.22,0.06,0.45,0.1,0.67c0.04,0.22,0.1,0.43,0.16,0.65c0.05,0.19,0.09,0.39,0.15,0.58c0.06,0.21,0.14,0.41,0.22,0.62
				c0.07,0.19,0.13,0.38,0.21,0.57c0.08,0.19,0.17,0.38,0.26,0.57c0.09,0.19,0.18,0.39,0.28,0.58c0.1,0.18,0.21,0.35,0.31,0.53
				c0.11,0.19,0.22,0.38,0.34,0.56c0.13,0.19,0.27,0.37,0.41,0.56c0.11,0.15,0.22,0.31,0.34,0.45c0.54,0.66,1.14,1.26,1.8,1.8
				c0.15,0.12,0.3,0.23,0.46,0.34c0.18,0.14,0.37,0.28,0.56,0.41c0.18,0.12,0.37,0.23,0.56,0.34c0.17,0.1,0.34,0.21,0.52,0.31
				c0.19,0.1,0.39,0.19,0.58,0.28c0.19,0.09,0.37,0.18,0.56,0.26c0.19,0.08,0.38,0.14,0.58,0.21c0.2,0.07,0.41,0.15,0.61,0.21
				c0.19,0.06,0.39,0.1,0.58,0.15c0.21,0.05,0.42,0.11,0.64,0.16c0.22,0.04,0.45,0.07,0.68,0.1c0.19,0.03,0.38,0.06,0.57,0.08
				c0.42,0.04,0.85,0.06,1.27,0.06h21.23v-25.83h9.95l7.36-7.36c5.04-5.04,5.04-13.22,0-18.26S242.9,160.6,237.85,165.64z"/>
			<path style="fill:#F7C297;" d="M319.39,226.54v55.17c0,1.53,0.28,2.99,0.77,4.35c1.79,4.99,6.54,8.56,12.15,8.56h0
				c7.13,0,12.91-5.78,12.91-12.91v-55.17H319.39z"/>
			<path style="fill:#F7C297;" d="M328.65,152.9v-17.45c0-0.3-0.01-0.6-0.02-0.9c-2.32,1.21-4.95,1.9-7.74,1.9
				c-4.25,0-8.12-1.59-11.08-4.18c-3.95,2.64-8.7,4.18-13.81,4.18c-5.34,0-10.29-1.69-14.34-4.55c-3.01,2.82-7.04,4.55-11.49,4.55
				c-2.43,0-4.73-0.53-6.82-1.45c0,0.15-0.01,0.3-0.01,0.46v17.45c0,0.43,0.02,0.85,0.03,1.27c0.47,12.35,7.8,22.95,18.29,28.08
				c4.33,2.12,9.19,3.31,14.33,3.31h0c5.14,0,10.01-1.19,14.33-3.31c10.49-5.13,17.82-15.73,18.29-28.08
				C328.63,153.75,328.65,153.33,328.65,152.9z"/>
		</g>
		<path style="fill:#A97C50;" d="M330.23,388.24c-3.25-4.09-8.26-6.71-13.89-6.71c-5.63,0-10.64,2.63-13.89,6.71
			c-2.42,3.03-3.87,6.87-3.87,11.05h35.52C334.1,395.11,332.65,391.27,330.23,388.24z M275.64,381.53c-5.63,0-10.64,2.63-13.89,6.71
			c-2.42,3.03-3.87,6.87-3.87,11.05h35.52c0-4.18-1.45-8.01-3.87-11.05C286.28,384.15,281.27,381.53,275.64,381.53z"/>
		<path style="fill:#414042;" d="M333.09,131.18c2.85-3.02,4.62-7.07,4.62-11.55c0-9.29-7.53-16.83-16.83-16.83
			c-0.53,0-1.05,0.03-1.56,0.08c-3.52-9.47-12.64-16.21-23.33-16.21c-10.74,0-19.89,6.8-23.38,16.33c-0.8-0.12-1.61-0.2-2.45-0.2
			c-9.29,0-16.83,7.53-16.83,16.83c0,4.91,2.11,9.31,5.47,12.39c-0.1,1.1-0.16,2.22-0.16,3.35c0,0.03,0,0.07,0,0.1l4.7,17.45v-17.45
			c0-0.15,0.01-0.3,0.01-0.46c2.09,0.93,4.39,1.45,6.82,1.45c4.45,0,8.48-1.74,11.49-4.55c4.05,2.86,9,4.55,14.34,4.55
			c5.11,0,9.86-1.54,13.81-4.18c2.96,2.6,6.83,4.18,11.08,4.18c2.79,0,5.42-0.69,7.74-1.9c0.01,0.3,0.02,0.6,0.02,0.9v17.45
			l4.7-17.45c0-0.03,0-0.07,0-0.1C333.34,133.94,333.25,132.55,333.09,131.18z"/>
		<path style="fill:#1A1A1A;" d="M313.5,149.85h-3.7c-1.19,0-2.16,0.97-2.16,2.16s0.97,2.16,2.16,2.16h3.7
			c1.19,0,2.16-0.97,2.16-2.16S314.7,149.85,313.5,149.85z M276.82,146.87l8.17-2.26c1.15-0.32,1.83-1.51,1.51-2.66
			c-0.32-1.15-1.51-1.83-2.66-1.51l-8.17,2.26c-1.15,0.32-1.83,1.51-1.51,2.66C274.48,146.52,275.67,147.19,276.82,146.87z
			 M306.99,144.62l8.17,2.26c1.15,0.32,2.34-0.36,2.66-1.51c0.32-1.15-0.36-2.34-1.51-2.66l-8.17-2.26
			c-1.15-0.32-2.34,0.36-2.66,1.51C305.17,143.11,305.84,144.3,306.99,144.62z M332.3,294.62c-5.6,0-10.36-3.58-12.15-8.56h-60.47
			v102.18h2.07c3.25-4.09,8.26-6.71,13.89-6.71s10.64,2.63,13.89,6.71h2.77l3.68-62.87l3.68,62.87h2.77
			c3.25-4.09,8.26-6.71,13.89-6.71c5.63,0,10.64,2.63,13.89,6.71h2.07L332.3,294.62L332.3,294.62z M278.48,149.85
			c-1.19,0-2.16,0.97-2.16,2.16s0.97,2.16,2.16,2.16h3.7c1.19,0,2.16-0.97,2.16-2.16s-0.97-2.16-2.16-2.16H278.48z"/>
		<path style="fill:#9E1F63;" d="M345.21,226.54v-22.36c0-7.13-5.78-12.91-12.91-12.91h-21.98c-0.02,7.9-6.43,14.3-14.33,14.3
			c-7.91,0-14.32-6.4-14.33-14.3h-42.85v25.83h20.87v68.97h60.47c-0.49-1.36-0.77-2.82-0.77-4.35v-55.17H345.21z"/>
		<path style="fill:#EB9877;" d="M258.64,135.45c0-0.03,0-0.07,0-0.1c-3.15,1.68-5.3,5-5.3,8.82c0,5.52,4.48,10,10,10
			c0.01,0,0.02,0,0.03,0c-0.02-0.42-0.03-0.84-0.03-1.27L258.64,135.45z M295.99,175.02c2.13,0,3.86-1.73,3.86-3.86
			c0-2.13-1.73-3.86-3.86-3.86c-2.13,0-3.86,1.73-3.86,3.86C292.13,173.29,293.86,175.02,295.99,175.02z M333.34,135.36
			c0,0.03,0,0.07,0,0.1l-4.7,17.45c0,0.43-0.02,0.85-0.03,1.27c0.01,0,0.02,0,0.03,0c5.52,0,10-4.48,10-10
			C338.64,140.36,336.5,137.04,333.34,135.36z M295.99,185.56c-5.14,0-10.01-1.19-14.33-3.31v8.98c0,0.01,0,0.02,0,0.03
			c0.02,7.9,6.43,14.3,14.33,14.3c7.91,0,14.32-6.4,14.33-14.3c0-0.01,0-0.02,0-0.03v-8.98C306,184.37,301.13,185.56,295.99,185.56
			L295.99,185.56z"/>
	</g>
	<path style="fill:#414042;" d="M287.1,171.2c0,0.65-0.53,1.17-1.17,1.17h-11.21c-0.65,0-1.17-0.53-1.17-1.17s0.53-1.17,1.17-1.17
		h11.21C286.58,170.02,287.1,170.55,287.1,171.2z M274.27,163.05l11.21,4.64c0.15,0.06,0.3,0.09,0.45,0.09
		c0.46,0,0.9-0.27,1.08-0.73c0.25-0.6-0.04-1.29-0.64-1.53l-11.21-4.64c-0.6-0.25-1.29,0.04-1.53,0.64
		C273.39,162.12,273.67,162.81,274.27,163.05z M285.48,174.7l-11.21,4.64c-0.6,0.25-0.88,0.93-0.64,1.53
		c0.19,0.45,0.62,0.73,1.08,0.73c0.15,0,0.3-0.03,0.45-0.09l11.21-4.64c0.6-0.25,0.88-0.93,0.64-1.53
		C286.77,174.73,286.08,174.45,285.48,174.7z"/>
</g>
</svg>
