<?xml version="1.0" encoding="iso-8859-1"?>
<!-- Generator: Adobe Illustrator 18.0.0, SVG Export Plug-In . SVG Version: 6.00 Build 0)  -->
<!DOCTYPE svg PUBLIC "-//W3C//DTD SVG 1.0//EN" "http://www.w3.org/TR/2001/REC-SVG-20010904/DTD/svg10.dtd">
<svg version="1.0" id="artwork" xmlns="http://www.w3.org/2000/svg" xmlns:xlink="http://www.w3.org/1999/xlink" x="0px" y="0px"
	 width="1400px" height="980px" viewBox="0 0 1400 980" style="enable-background:new 0 0 1400 980;" xml:space="preserve">
<g>
	<g>
		<path style="fill:#00A79D;" d="M482.57,399.12h4.23l-4.18,26.7h-3.83l-2.3-14.69l-2.14,14.69h-3.85l-4.47-26.7h4.22l2.11,14.3
			l1.94-14.3h4.22l2.11,14.28L482.57,399.12z"/>
		<path style="fill:#00A79D;" d="M494.21,414.51v11.31h-4.03v-26.7h4.03v11.33h4.86v-11.33h4.03v26.7h-4.03v-11.31H494.21z"/>
		<path style="fill:#00A79D;" d="M506.69,425.82V399.1h11.46v4.05h-7.44v7.29h5.43v4.05h-5.43v7.29h7.44v4.05H506.69z"/>
		<path style="fill:#00A79D;" d="M520.93,425.82V399.1h11.46v4.05h-7.44v7.29h5.43v4.05h-5.43v7.29h7.44v4.05H520.93z"/>
		<path style="fill:#00A79D;" d="M546.92,399.12v4.05l-7.42,18.64h7.42v4.01h-11.76v-4.03l7.44-18.64l-7.44,0.02v-4.05H546.92z"/>
		<path style="fill:#00A79D;" d="M554.29,425.82h-4.03v-26.7h4.03V425.82z"/>
		<path style="fill:#00A79D;" d="M562.41,399.1l5.34,17.96V399.1h4.03v26.72h-4.33l-5.54-17.11v17.11h-4.03V399.1H562.41z"/>
		<path style="fill:#00A79D;" d="M581.71,426.16c-1.78,0-3.28-0.62-4.53-1.88c-1.24-1.25-1.86-2.75-1.86-4.5v-14.57
			c0-1.78,0.62-3.28,1.88-4.53c1.25-1.24,2.76-1.86,4.52-1.86c1.78,0,3.28,0.62,4.52,1.88s1.85,2.76,1.85,4.52v3.05h-4.18v-3.13
			c0-0.64-0.23-1.19-0.68-1.64s-1-0.68-1.64-0.68c-0.64,0-1.18,0.23-1.63,0.68c-0.45,0.45-0.67,1-0.67,1.64v14.62
			c0,0.64,0.22,1.18,0.67,1.63c0.45,0.45,0.99,0.67,1.63,0.67c0.64,0,1.19-0.22,1.64-0.67s0.68-0.99,0.68-1.63v-5.25h-2.24v-4.05
			h6.41v9.33c0,1.78-0.63,3.28-1.88,4.52C584.96,425.54,583.46,426.16,581.71,426.16z"/>
	</g>
	<g>
		<path style="fill:#F7C297;" d="M566.74,173.36c0-5.03-4.08-9.11-9.11-9.11c0-9.59-7.77-17.36-17.36-17.36h-54.95v44.17
			c0.03,0,0.06,0,0.09,0c0.37-0.01,0.5-0.06,0.65-0.13c0.15-0.07,0.35-0.22,0.69-0.46c0.23-0.16,0.52-0.35,0.89-0.51
			c0.49-0.22,1.11-0.35,1.79-0.35c0.83,0,1.5,0.67,1.5,1.5s-0.67,1.5-1.5,1.5c-0.37,0.01-0.5,0.06-0.65,0.13
			c-0.15,0.07-0.35,0.22-0.69,0.46c-0.23,0.16-0.52,0.35-0.89,0.51c-0.49,0.22-1.11,0.35-1.79,0.35c-0.03,0-0.06,0-0.09,0v2.84
			c0,0.13,0.01,0.26,0.01,0.39c0.03,0,0.05,0,0.08,0c0.37-0.01,0.5-0.06,0.65-0.13c0.15-0.07,0.35-0.22,0.69-0.46
			c0.23-0.16,0.52-0.35,0.89-0.51c0.49-0.22,1.11-0.35,1.79-0.35c0.83,0,1.5,0.67,1.5,1.5s-0.67,1.5-1.5,1.5
			c-0.37,0.01-0.5,0.06-0.65,0.13c-0.15,0.07-0.35,0.22-0.69,0.46c-0.23,0.16-0.52,0.35-0.89,0.51c-0.46,0.2-1.04,0.33-1.67,0.34
			c0.13,1.06,0.31,2.09,0.55,3.11c0.15-0.07,0.35-0.22,0.68-0.46c0.23-0.16,0.52-0.35,0.89-0.51c0.49-0.22,1.11-0.35,1.79-0.35
			c0.83,0,1.5,0.67,1.5,1.5s-0.67,1.5-1.5,1.5c-0.37,0.01-0.5,0.06-0.65,0.13c-0.15,0.07-0.35,0.22-0.69,0.46
			c-0.23,0.16-0.52,0.35-0.89,0.51c-0.09,0.04-0.2,0.06-0.29,0.09c3.62,10.34,13.06,17.95,24.4,18.88c0.78,0.06,1.56,0.11,2.36,0.11
			h13.7c7.49,0,14.51-2,20.58-5.48c6.45-3.7,11.8-9.08,15.47-15.55c-0.75,0.07-1.51,0.11-2.28,0.11h-3.5v-21.87
			C562.66,182.46,566.74,178.39,566.74,173.36z"/>
		<path style="fill:#333333;" d="M557.63,164.25c5.03,0,9.11,4.08,9.11,9.11s-4.08,9.11-9.11,9.11v21.87h3.5
			c0.77,0,1.53-0.04,2.28-0.11c12.18-1.15,21.72-11.4,21.72-23.89v-27.53c0-25.64-20.79-46.43-46.43-46.43h-35.52
			c-4.43-4.85-10.78-7.91-17.86-7.91c-13.37,0-24.21,10.84-24.21,24.21s10.84,24.21,24.21,24.21h54.95
			C549.86,146.89,557.63,154.66,557.63,164.25z"/>
		<path style="fill:#333333;" d="M502.44,158.84c-0.41-1.47-1.93-2.33-3.4-1.93l-10.44,2.88c-1.47,0.41-2.33,1.93-1.93,3.4
			s1.93,2.33,3.4,1.93l10.44-2.88C501.98,161.83,502.85,160.31,502.44,158.84z"/>
		<path style="fill:#333333;" d="M516.07,162.24l10.44,2.88c1.47,0.41,2.99-0.46,3.4-1.93c0.41-1.47-0.46-2.99-1.93-3.4l-10.44-2.88
			c-1.47-0.41-2.99,0.46-3.4,1.93C513.74,160.31,514.6,161.83,516.07,162.24z"/>
		<path style="fill:#333333;" d="M496.92,168.93h-4.72c-1.52,0-2.76,1.24-2.76,2.76c0,1.52,1.24,2.76,2.76,2.76h4.72
			c1.52,0,2.76-1.24,2.76-2.76C499.68,170.16,498.45,168.93,496.92,168.93z"/>
		<path style="fill:#333333;" d="M524.39,168.93h-4.72c-1.52,0-2.76,1.24-2.76,2.76c0,1.52,1.24,2.76,2.76,2.76h4.72
			c1.52,0,2.76-1.24,2.76-2.76C527.15,170.16,525.92,168.93,524.39,168.93z"/>
		<path style="fill:#EB9877;" d="M529.63,250.82c10.1,0,18.29-8.18,18.31-18.28c0-0.01,0-0.03,0-0.04v-12.73
			c-6.06,3.48-13.08,5.48-20.58,5.48h-13.7c-0.8,0-1.58-0.04-2.36-0.11v7.35c0,0.01,0,0.03,0,0.04
			C511.34,242.64,519.53,250.82,529.63,250.82z"/>
		<path style="fill:#F7C297;" d="M559.53,335.27v12.83c0,9.11,7.39,16.5,16.5,16.5c9.11,0,16.5-7.39,16.5-16.5v-70.5h-33V335.27z"/>
		<path style="fill:#00A79D;" d="M576.03,232.54h-28.08c-0.02,10.1-8.21,18.28-18.31,18.28c-10.1,0-18.29-8.18-18.31-18.28h-28.08
			c-9.11,0-16.5,7.39-16.5,16.5v28.57h33v6.47h35.03c9.11,0,16.5,7.39,16.5,16.5s-7.39,16.5-16.5,16.5h-35.03h-16.5v18.2h76.29
			v-57.67h33v-28.57C592.53,239.93,585.14,232.54,576.03,232.54z"/>
		<path style="fill:#F7C297;" d="M534.77,317.07c9.11,0,16.5-7.39,16.5-16.5s-7.39-16.5-16.5-16.5h-35.03v-6.47h-33v22.97
			c0,9.11,7.39,16.5,16.5,16.5h16.5H534.77z"/>
		<circle style="fill:#EB9877;" cx="506.61" cy="198.07" r="4.32"/>
		<path style="fill:#333333;" d="M463.84,191.12c0-0.83,0.67-1.5,1.5-1.5c0.76-0.01,1.45,0.17,1.97,0.43
			c0.52,0.26,0.86,0.54,1.09,0.7c0.16,0.11,0.26,0.17,0.36,0.22c0.13,0.05,0.27,0.1,0.6,0.1c0.36-0.01,0.49-0.06,0.65-0.13
			c0.15-0.07,0.35-0.22,0.69-0.46c0.23-0.16,0.52-0.35,0.89-0.51c0.49-0.22,1.11-0.35,1.79-0.35c0.76-0.01,1.45,0.17,1.97,0.43
			c0.52,0.26,0.86,0.54,1.09,0.7c0.16,0.11,0.26,0.17,0.36,0.22c0.13,0.05,0.27,0.1,0.6,0.1c0.37-0.01,0.49-0.06,0.65-0.13
			c0.15-0.07,0.35-0.22,0.69-0.46c0.23-0.16,0.52-0.35,0.89-0.51c0.49-0.22,1.11-0.35,1.79-0.35c0.76-0.01,1.45,0.17,1.97,0.43
			c0.52,0.26,0.86,0.54,1.09,0.7c0.16,0.11,0.26,0.17,0.36,0.22c0.12,0.05,0.25,0.09,0.51,0.1c0.03,0,0.06,0,0.09,0
			c0.37-0.01,0.5-0.06,0.65-0.13c0.15-0.07,0.35-0.22,0.69-0.46c0.23-0.16,0.52-0.35,0.89-0.51c0.49-0.22,1.11-0.35,1.79-0.35
			c0.83,0,1.5,0.67,1.5,1.5s-0.67,1.5-1.5,1.5c-0.37,0.01-0.5,0.06-0.65,0.13c-0.15,0.07-0.35,0.22-0.69,0.46
			c-0.23,0.16-0.52,0.35-0.89,0.51c-0.49,0.22-1.11,0.35-1.79,0.35c-0.03,0-0.06,0-0.09,0c-0.73-0.01-1.38-0.18-1.87-0.43
			c-0.52-0.26-0.86-0.54-1.09-0.7c-0.16-0.11-0.26-0.17-0.36-0.22c-0.13-0.05-0.27-0.1-0.6-0.1c-0.37,0.01-0.49,0.06-0.65,0.13
			c-0.15,0.07-0.35,0.22-0.69,0.46c-0.23,0.16-0.52,0.35-0.89,0.51c-0.49,0.22-1.11,0.35-1.79,0.35c-0.76,0.01-1.45-0.17-1.97-0.43
			c-0.52-0.26-0.86-0.54-1.09-0.7c-0.16-0.11-0.26-0.17-0.36-0.22c-0.13-0.05-0.27-0.1-0.6-0.1c-0.36,0.01-0.49,0.06-0.65,0.13
			c-0.15,0.07-0.35,0.22-0.69,0.46c-0.23,0.16-0.52,0.35-0.89,0.51c-0.49,0.22-1.11,0.35-1.79,0.35c-0.76,0.01-1.45-0.17-1.97-0.43
			c-0.52-0.26-0.86-0.54-1.09-0.7c-0.16-0.11-0.26-0.17-0.36-0.22c-0.13-0.05-0.27-0.1-0.6-0.1
			C464.51,192.62,463.84,191.95,463.84,191.12z M489.44,195.85c-0.68,0-1.29,0.13-1.79,0.35c-0.37,0.16-0.66,0.35-0.89,0.51
			c-0.34,0.24-0.54,0.39-0.69,0.46c-0.16,0.07-0.28,0.12-0.65,0.13c-0.03,0-0.06,0-0.08,0c-0.26-0.01-0.39-0.05-0.52-0.1
			c-0.1-0.04-0.21-0.11-0.36-0.22c-0.23-0.16-0.57-0.44-1.09-0.7c-0.52-0.26-1.2-0.44-1.97-0.43c-0.68,0-1.29,0.13-1.79,0.35
			c-0.37,0.16-0.66,0.35-0.89,0.51c-0.34,0.24-0.54,0.39-0.69,0.46c-0.15,0.07-0.28,0.12-0.65,0.13c-0.32,0-0.46-0.05-0.6-0.1
			c-0.1-0.04-0.21-0.11-0.36-0.22c-0.23-0.16-0.57-0.44-1.09-0.7c-0.52-0.26-1.2-0.44-1.97-0.43c-0.68,0-1.29,0.13-1.79,0.35
			c-0.37,0.16-0.66,0.35-0.89,0.51c-0.34,0.24-0.54,0.39-0.69,0.46c-0.15,0.07-0.28,0.12-0.65,0.13c-0.32,0-0.46-0.05-0.6-0.1
			c-0.1-0.04-0.21-0.11-0.36-0.22c-0.23-0.16-0.57-0.44-1.09-0.7c-0.52-0.26-1.2-0.44-1.97-0.43c-0.83,0-1.5,0.67-1.5,1.5
			s0.67,1.5,1.5,1.5c0.32,0,0.46,0.05,0.6,0.1c0.1,0.04,0.21,0.11,0.36,0.22c0.23,0.16,0.57,0.44,1.09,0.7
			c0.52,0.26,1.2,0.44,1.97,0.43c0.68,0,1.29-0.13,1.79-0.35c0.37-0.16,0.66-0.35,0.89-0.51c0.34-0.24,0.54-0.39,0.69-0.46
			c0.15-0.07,0.28-0.12,0.65-0.13c0.32,0,0.46,0.05,0.6,0.1c0.1,0.04,0.21,0.11,0.36,0.22c0.23,0.16,0.57,0.44,1.09,0.7
			c0.52,0.26,1.2,0.44,1.97,0.43c0.68,0,1.29-0.13,1.79-0.35c0.37-0.16,0.66-0.35,0.89-0.51c0.34-0.24,0.54-0.39,0.69-0.46
			c0.15-0.07,0.28-0.12,0.65-0.13c0.33,0,0.46,0.05,0.6,0.1c0.1,0.04,0.21,0.11,0.36,0.22c0.23,0.16,0.57,0.44,1.09,0.7
			c0.52,0.26,1.2,0.44,1.97,0.43c0.04,0,0.07-0.01,0.11-0.01c0.63-0.01,1.21-0.13,1.67-0.34c0.37-0.16,0.66-0.35,0.89-0.51
			c0.34-0.24,0.54-0.39,0.69-0.46c0.16-0.07,0.28-0.12,0.65-0.13c0.83,0,1.5-0.67,1.5-1.5S490.27,195.85,489.44,195.85z
			 M489.44,202.08c-0.68,0-1.29,0.13-1.79,0.35c-0.37,0.16-0.66,0.35-0.89,0.51c-0.34,0.24-0.53,0.38-0.68,0.46
			c0,0-0.01,0-0.01,0.01c-0.16,0.07-0.28,0.12-0.65,0.13c-0.33,0-0.46-0.05-0.6-0.1c-0.1-0.04-0.21-0.11-0.36-0.22
			c-0.23-0.16-0.57-0.44-1.09-0.7c-0.52-0.26-1.2-0.44-1.97-0.43c-0.68,0-1.29,0.13-1.79,0.35c-0.37,0.16-0.66,0.35-0.89,0.51
			c-0.34,0.24-0.54,0.39-0.69,0.46c-0.15,0.07-0.28,0.12-0.65,0.13c-0.32,0-0.46-0.05-0.6-0.1c-0.1-0.04-0.21-0.11-0.36-0.22
			c-0.23-0.16-0.57-0.44-1.09-0.7c-0.52-0.26-1.2-0.44-1.97-0.43c-0.68,0-1.29,0.13-1.79,0.35c-0.37,0.16-0.66,0.35-0.89,0.51
			c-0.34,0.24-0.54,0.39-0.69,0.46c-0.15,0.07-0.28,0.12-0.65,0.13c-0.32,0-0.46-0.05-0.6-0.1c-0.1-0.04-0.21-0.11-0.36-0.22
			c-0.23-0.16-0.57-0.44-1.09-0.7c-0.52-0.26-1.2-0.44-1.97-0.43c-0.83,0-1.5,0.67-1.5,1.5s0.67,1.5,1.5,1.5
			c0.32,0,0.46,0.05,0.6,0.1c0.1,0.04,0.21,0.11,0.36,0.22c0.23,0.16,0.57,0.44,1.09,0.7c0.52,0.26,1.2,0.44,1.97,0.43
			c0.68,0,1.29-0.13,1.79-0.35c0.37-0.16,0.66-0.35,0.89-0.51c0.34-0.24,0.54-0.39,0.69-0.46c0.15-0.07,0.28-0.12,0.65-0.13
			c0.32,0,0.46,0.05,0.6,0.1c0.1,0.04,0.21,0.11,0.36,0.22c0.23,0.16,0.57,0.44,1.09,0.7c0.52,0.26,1.2,0.44,1.97,0.43
			c0.68,0,1.29-0.13,1.79-0.35c0.37-0.16,0.66-0.35,0.89-0.51c0.34-0.24,0.54-0.39,0.69-0.46c0.15-0.07,0.28-0.12,0.65-0.13
			c0.33,0,0.46,0.05,0.6,0.1c0.1,0.04,0.21,0.11,0.36,0.22c0.23,0.16,0.57,0.44,1.09,0.7c0.52,0.26,1.2,0.44,1.97,0.43
			c0.56,0,1.06-0.1,1.5-0.26c0.09-0.03,0.2-0.05,0.29-0.09c0.37-0.16,0.66-0.35,0.89-0.51c0.34-0.24,0.54-0.39,0.69-0.46
			c0.16-0.07,0.28-0.12,0.65-0.13c0.83,0,1.5-0.67,1.5-1.5S490.27,202.08,489.44,202.08z"/>
	</g>
</g>
<g>
	<g>
		<path style="fill:#00A79D;" d="M126.83,426.16c-1.78,0-3.28-0.62-4.53-1.86c-1.24-1.24-1.86-2.75-1.86-4.51v-14.57
			c0-1.78,0.62-3.28,1.88-4.53c1.25-1.24,2.76-1.86,4.52-1.86c1.78,0,3.28,0.62,4.52,1.88s1.85,2.76,1.85,4.52v3.05h-4.18v-3.13
			c0-0.64-0.23-1.19-0.68-1.64s-1-0.68-1.64-0.68c-0.64,0-1.18,0.23-1.63,0.68c-0.45,0.45-0.67,1-0.67,1.64v14.62
			c0,0.64,0.22,1.18,0.67,1.63c0.45,0.45,0.99,0.67,1.63,0.67c0.64,0,1.19-0.22,1.64-0.67c0.45-0.45,0.68-0.99,0.68-1.63v-3.69h4.18
			v3.73c0,1.78-0.63,3.28-1.88,4.52C130.08,425.54,128.58,426.16,126.83,426.16z"/>
		<path style="fill:#00A79D;" d="M142.81,398.78c1.78,0,3.28,0.63,4.53,1.88c1.24,1.25,1.86,2.76,1.86,4.52v14.57
			c0,1.78-0.63,3.28-1.88,4.53c-1.25,1.24-2.76,1.86-4.52,1.86c-1.78,0-3.28-0.62-4.52-1.88s-1.85-2.76-1.85-4.52v-14.57
			c0-1.78,0.62-3.28,1.88-4.53S141.06,398.78,142.81,398.78z M145,405.09c0-0.64-0.22-1.18-0.67-1.63
			c-0.45-0.45-0.99-0.67-1.63-0.67c-0.64,0-1.19,0.22-1.64,0.67c-0.45,0.45-0.68,0.99-0.68,1.63v14.62c0,0.64,0.23,1.18,0.68,1.63
			c0.45,0.45,1,0.67,1.64,0.67c0.64,0,1.18-0.22,1.63-0.67c0.45-0.45,0.67-0.99,0.67-1.63V405.09z"/>
		<path style="fill:#00A79D;" d="M159.09,426.12c-1.78,0-3.28-0.62-4.52-1.85c-1.24-1.24-1.85-2.73-1.85-4.5v-20.65h3.94v20.6
			c0,0.64,0.23,1.18,0.68,1.63c0.45,0.45,1,0.67,1.64,0.67c0.64,0,1.18-0.22,1.63-0.67c0.45-0.45,0.67-0.99,0.67-1.63v-20.6h4.2
			v20.65c0,1.79-0.63,3.3-1.88,4.52C162.35,425.51,160.85,426.12,159.09,426.12z"/>
		<path style="fill:#00A79D;" d="M175.39,426.16c-1.78,0-3.28-0.62-4.53-1.88c-1.24-1.25-1.86-2.75-1.86-4.5v-14.57
			c0-1.78,0.62-3.28,1.88-4.53c1.25-1.24,2.76-1.86,4.52-1.86c1.78,0,3.28,0.62,4.52,1.88s1.85,2.76,1.85,4.52v3.05h-4.18v-3.13
			c0-0.64-0.23-1.19-0.68-1.64s-1-0.68-1.64-0.68c-0.64,0-1.18,0.23-1.63,0.68c-0.45,0.45-0.67,1-0.67,1.64v14.62
			c0,0.64,0.22,1.18,0.67,1.63c0.45,0.45,0.99,0.67,1.63,0.67c0.64,0,1.19-0.22,1.64-0.67s0.68-0.99,0.68-1.63v-5.25h-2.24v-4.05
			h6.41v9.33c0,1.78-0.63,3.28-1.88,4.52C178.63,425.54,177.13,426.16,175.39,426.16z"/>
		<path style="fill:#00A79D;" d="M189.28,414.51v11.31h-4.03v-26.7h4.03v11.33h4.86v-11.33h4.03v26.7h-4.03v-11.31H189.28z"/>
		<path style="fill:#00A79D;" d="M205.79,425.82h-4.03v-26.7h4.03V425.82z"/>
		<path style="fill:#00A79D;" d="M213.91,399.1l5.34,17.96V399.1h4.03v26.72h-4.33l-5.54-17.11v17.11h-4.03V399.1H213.91z"/>
		<path style="fill:#00A79D;" d="M233.21,426.16c-1.78,0-3.28-0.62-4.53-1.88c-1.24-1.25-1.86-2.75-1.86-4.5v-14.57
			c0-1.78,0.62-3.28,1.88-4.53c1.25-1.24,2.76-1.86,4.52-1.86c1.78,0,3.28,0.62,4.52,1.88s1.85,2.76,1.85,4.52v3.05h-4.18v-3.13
			c0-0.64-0.23-1.19-0.68-1.64s-1-0.68-1.64-0.68c-0.64,0-1.18,0.23-1.63,0.68c-0.45,0.45-0.67,1-0.67,1.64v14.62
			c0,0.64,0.22,1.18,0.67,1.63c0.45,0.45,0.99,0.67,1.63,0.67c0.64,0,1.19-0.22,1.64-0.67s0.68-0.99,0.68-1.63v-5.25h-2.24v-4.05
			h6.41v9.33c0,1.78-0.63,3.28-1.88,4.52C236.46,425.54,234.96,426.16,233.21,426.16z"/>
	</g>
	<g>
		<path style="fill:#333333;" d="M131.53,198.07c0,0.83-0.67,1.5-1.5,1.5H115.7c-0.83,0-1.5-0.67-1.5-1.5s0.67-1.5,1.5-1.5h14.33
			C130.85,196.57,131.53,197.24,131.53,198.07z M115.13,187.67l14.33,5.93c0.77,0.32,1.64-0.05,1.96-0.81
			c0.32-0.77-0.05-1.64-0.81-1.96l-14.33-5.93c-0.77-0.32-1.64,0.05-1.96,0.81C114,186.47,114.36,187.35,115.13,187.67z
			 M129.45,202.54l-14.33,5.93c-0.77,0.32-1.13,1.19-0.81,1.96c0.32,0.77,1.19,1.13,1.96,0.81l14.33-5.93
			c0.77-0.32,1.13-1.19,0.81-1.96C131.09,202.59,130.22,202.23,129.45,202.54z"/>
		<path style="fill:#F7C297;" d="M209.53,277.61v57.67v12.83c0,9.11,7.39,16.5,16.5,16.5s16.5-7.39,16.5-16.5v-70.5H209.53z"/>
		<path style="fill:#F7C297;" d="M104.82,251.46V200.1c0-9.11-7.39-16.5-16.5-16.5c-9.11,0-16.5,7.39-16.5,16.5v60.13
			c0,9.6,4.64,18.75,12.68,23.99c4.69,3.06,10.02,4.57,15.33,4.57c5.42,0,10.83-1.58,15.52-4.7l9.77-6.51l-12.77-31.15
			L104.82,251.46z"/>
		<path style="fill:#00A79D;" d="M226.03,232.54h-28.08c-0.02,10.1-8.21,18.28-18.31,18.28c-10.1,0-18.29-8.18-18.31-18.28h-18.98
			c-5.94,0-11.74,1.76-16.68,5.05l-13.29,8.85l12.77,31.15c3.47-2.31,8.11,0.18,8.11,4.34v53.35h76.29v-57.67h33v-28.57
			C242.53,239.93,235.14,232.54,226.03,232.54z"/>
		<path style="fill:#F7C297;" d="M216.74,173.36c0-5.03-4.08-9.11-9.11-9.11c0-9.59-7.77-17.36-17.36-17.36h-54.95v50.01
			c0,14.86,11.44,27.05,25.99,28.25c0.78,0.06,1.56,0.11,2.36,0.11h13.7c7.49,0,14.51-2,20.58-5.48c6.45-3.7,11.8-9.08,15.47-15.55
			c-0.75,0.07-1.51,0.11-2.28,0.11h-3.5v-21.87C212.66,182.46,216.74,178.39,216.74,173.36z"/>
		<path style="fill:#333333;" d="M207.63,164.25c5.03,0,9.11,4.08,9.11,9.11s-4.08,9.11-9.11,9.11v21.87h3.5
			c0.77,0,1.53-0.04,2.28-0.11c12.18-1.15,21.72-11.4,21.72-23.89v-27.53c0-25.64-20.79-46.43-46.43-46.43h-35.52
			c-4.43-4.85-10.78-7.91-17.86-7.91c-13.37,0-24.21,10.84-24.21,24.21s10.84,24.21,24.21,24.21h54.95
			C199.86,146.89,207.63,154.66,207.63,164.25z"/>
		<path style="fill:#333333;" d="M140.07,165.12l10.44-2.88c1.47-0.41,2.33-1.93,1.93-3.4s-1.93-2.33-3.4-1.93l-10.44,2.88
			c-1.47,0.41-2.33,1.93-1.93,3.4S138.61,165.53,140.07,165.12z"/>
		<path style="fill:#333333;" d="M166.07,162.24l10.44,2.88c1.47,0.41,2.99-0.46,3.4-1.93c0.41-1.47-0.46-2.99-1.93-3.4l-10.44-2.88
			c-1.47-0.41-2.99,0.46-3.4,1.93C163.74,160.31,164.6,161.83,166.07,162.24z"/>
		<path style="fill:#333333;" d="M146.92,168.93h-4.72c-1.52,0-2.76,1.24-2.76,2.76c0,1.52,1.24,2.76,2.76,2.76h4.72
			c1.52,0,2.76-1.24,2.76-2.76C149.68,170.16,148.45,168.93,146.92,168.93z"/>
		<path style="fill:#333333;" d="M174.39,174.45c1.52,0,2.76-1.24,2.76-2.76c0-1.52-1.24-2.76-2.76-2.76h-4.72
			c-1.52,0-2.76,1.24-2.76,2.76c0,1.52,1.24,2.76,2.76,2.76H174.39z"/>
		<path style="fill:#EB9877;" d="M179.63,250.82c10.1,0,18.29-8.18,18.31-18.28c0-0.01,0-0.03,0-0.04v-12.73
			c-6.06,3.48-13.08,5.48-20.58,5.48h-13.7c-0.8,0-1.58-0.04-2.36-0.11v7.35c0,0.01,0,0.03,0,0.04
			C161.34,242.64,169.53,250.82,179.63,250.82z"/>
		<circle style="fill:#EB9877;" cx="156.61" cy="198.07" r="7.44"/>
	</g>
</g>
<g>
	<g>
		<path style="fill:#00A79D;" d="M1148.66,419.69l-0.98,6.14h-4.19l4.54-26.7h5.54l4.47,26.7h-4.23l-0.94-6.14H1148.66z
			 M1150.78,405.24l-1.49,10.53h2.98L1150.78,405.24z"/>
		<path style="fill:#00A79D;" d="M1172.4,425.82h-10.97v-26.7h4.03v22.69h6.95V425.82z"/>
		<path style="fill:#00A79D;" d="M1186.14,425.82h-10.97v-26.7h4.03v22.69h6.95V425.82z"/>
		<path style="fill:#00A79D;" d="M1188.91,425.82V399.1h11.46v4.05h-7.44v7.29h5.43v4.05h-5.43v7.29h7.44v4.05H1188.91z"/>
		<path style="fill:#00A79D;" d="M1209.5,399.12c2.24,0,3.89,0.62,4.94,1.85c0.92,1.08,1.38,2.59,1.38,4.52v3.88
			c0,1.89-0.72,3.49-2.15,4.79l2.98,11.65h-4.35l-2.44-10.06c-0.11,0-0.23,0-0.36,0h-2.32v10.06h-4.03v-26.7H1209.5z M1211.9,405.56
			c0-1.55-0.77-2.32-2.3-2.32h-2.43v8.54h2.43c0.64,0,1.18-0.23,1.63-0.68c0.45-0.45,0.67-1,0.67-1.64V405.56z"/>
		<path style="fill:#00A79D;" d="M1225.82,426.16c-1.78,0-3.28-0.62-4.53-1.88c-1.24-1.25-1.86-2.75-1.86-4.5v-14.57
			c0-1.78,0.62-3.28,1.88-4.53c1.25-1.24,2.76-1.86,4.52-1.86c1.78,0,3.28,0.62,4.52,1.88c1.24,1.25,1.85,2.76,1.85,4.52v3.05h-4.18
			v-3.13c0-0.64-0.23-1.19-0.68-1.64c-0.45-0.45-1-0.68-1.64-0.68c-0.64,0-1.18,0.23-1.63,0.68c-0.45,0.45-0.67,1-0.67,1.64v14.62
			c0,0.64,0.22,1.18,0.67,1.63c0.45,0.45,0.99,0.67,1.63,0.67c0.64,0,1.19-0.22,1.64-0.67c0.46-0.45,0.68-0.99,0.68-1.63v-5.25
			h-2.24v-4.05h6.41v9.33c0,1.78-0.62,3.28-1.88,4.52S1227.56,426.16,1225.82,426.16z"/>
		<path style="fill:#00A79D;" d="M1239.71,425.82h-4.03v-26.7h4.03V425.82z"/>
		<path style="fill:#00A79D;" d="M1243.31,425.82V399.1h11.46v4.05h-7.44v7.29h5.43v4.05h-5.43v7.29h7.44v4.05H1243.31z"/>
		<path style="fill:#00A79D;" d="M1270.86,419.17c0.03,1.86-0.46,3.45-1.45,4.77c-0.65,0.9-1.58,1.53-2.77,1.9
			c-0.64,0.2-1.38,0.3-2.24,0.3c-1.58,0-2.88-0.39-3.92-1.17c-0.87-0.64-1.55-1.51-2.06-2.61c-0.5-1.1-0.8-2.36-0.88-3.78l3.84-0.28
			c0.17,1.56,0.58,2.68,1.24,3.38c0.48,0.53,1.04,0.78,1.66,0.75c0.88-0.03,1.58-0.46,2.11-1.3c0.27-0.41,0.41-1,0.41-1.77
			c0-1.11-0.5-2.21-1.51-3.31c-0.79-0.75-1.99-1.88-3.58-3.39c-1.33-1.29-2.28-2.45-2.83-3.48c-0.6-1.15-0.89-2.4-0.89-3.75
			c0-2.43,0.82-4.27,2.45-5.52c1.01-0.75,2.26-1.13,3.75-1.13c1.43,0,2.66,0.32,3.69,0.96c0.8,0.5,1.44,1.19,1.93,2.09
			c0.49,0.9,0.78,1.93,0.88,3.09l-3.86,0.7c-0.11-1.09-0.43-1.95-0.94-2.56c-0.37-0.44-0.9-0.66-1.6-0.66
			c-0.74,0-1.3,0.33-1.68,0.98c-0.31,0.53-0.47,1.18-0.47,1.96c0,1.22,0.53,2.46,1.58,3.73c0.4,0.48,0.99,1.05,1.79,1.7
			c0.94,0.78,1.55,1.33,1.85,1.64c0.99,0.99,1.76,1.97,2.3,2.94c0.26,0.45,0.46,0.87,0.62,1.26
			C1270.65,417.57,1270.84,418.42,1270.86,419.17z"/>
	</g>
	<g>
		<path style="fill:#F7C297;" d="M1259.53,277.61v57.67v12.83c0,9.11,7.39,16.5,16.5,16.5s16.5-7.39,16.5-16.5v-70.5H1259.53z"/>
		<path style="fill:#F7C297;" d="M1154.82,251.46V200.1c0-9.11-7.39-16.5-16.5-16.5c-9.11,0-16.5,7.39-16.5,16.5v60.13
			c0,9.6,4.64,18.75,12.68,23.99c4.69,3.06,10.02,4.57,15.33,4.57c5.42,0,10.83-1.58,15.52-4.7l9.77-6.51l-12.77-31.15
			L1154.82,251.46z"/>
		<path style="fill:#00A79D;" d="M1276.03,232.54h-28.08c-0.02,10.1-8.21,18.28-18.31,18.28c-10.1,0-18.29-8.18-18.31-18.28h-18.98
			c-5.94,0-11.74,1.76-16.68,5.05l-13.29,8.85l12.77,31.15c3.47-2.31,8.11,0.18,8.11,4.34v53.35h76.29v-57.67h33v-28.57
			C1292.53,239.93,1285.14,232.54,1276.03,232.54z"/>
		<path style="fill:#F7C297;" d="M1266.74,173.36c0-5.03-4.08-9.11-9.11-9.11c0-9.59-7.77-17.36-17.36-17.36h-54.95v50.01
			c0,14.86,11.44,27.05,25.99,28.25c0.78,0.06,1.56,0.11,2.36,0.11h13.7c7.49,0,14.51-2,20.58-5.48c6.45-3.7,11.8-9.08,15.47-15.55
			c-0.75,0.07-1.51,0.11-2.28,0.11h-3.5v-21.87C1262.66,182.46,1266.74,178.39,1266.74,173.36z"/>
		<path style="fill:#333333;" d="M1257.63,164.25c5.03,0,9.11,4.08,9.11,9.11s-4.08,9.11-9.11,9.11v21.87h3.5
			c0.77,0,1.53-0.04,2.28-0.11c12.18-1.15,21.72-11.4,21.72-23.89v-27.53c0-25.64-20.79-46.43-46.43-46.43h-35.52
			c-4.43-4.85-10.78-7.91-17.86-7.91c-13.37,0-24.21,10.84-24.21,24.21s10.84,24.21,24.21,24.21h54.95
			C1249.86,146.89,1257.63,154.66,1257.63,164.25z"/>
		<path style="fill:#333333;" d="M1190.07,165.12l10.44-2.88c1.47-0.41,2.33-1.93,1.93-3.4c-0.41-1.47-1.93-2.33-3.4-1.93
			l-10.44,2.88c-1.47,0.41-2.33,1.93-1.93,3.4C1187.08,164.66,1188.61,165.53,1190.07,165.12z"/>
		<path style="fill:#333333;" d="M1216.07,162.24l10.44,2.88c1.47,0.41,2.99-0.46,3.4-1.93c0.41-1.47-0.46-2.99-1.93-3.4
			l-10.44-2.88c-1.47-0.41-2.99,0.46-3.4,1.93C1213.74,160.31,1214.6,161.83,1216.07,162.24z"/>
		<path style="fill:#333333;" d="M1196.92,168.93h-4.72c-1.52,0-2.76,1.24-2.76,2.76c0,1.52,1.24,2.76,2.76,2.76h4.72
			c1.52,0,2.76-1.24,2.76-2.76C1199.68,170.16,1198.45,168.93,1196.92,168.93z"/>
		<path style="fill:#333333;" d="M1224.39,174.45c1.52,0,2.76-1.24,2.76-2.76c0-1.52-1.24-2.76-2.76-2.76h-4.72
			c-1.52,0-2.76,1.24-2.76,2.76c0,1.52,1.24,2.76,2.76,2.76H1224.39z"/>
		<path style="fill:#EB9877;" d="M1229.63,250.82c10.1,0,18.29-8.18,18.31-18.28c0-0.01,0-0.03,0-0.04v-12.73
			c-6.06,3.48-13.08,5.48-20.58,5.48h-13.7c-0.8,0-1.58-0.04-2.36-0.11v7.35c0,0.01,0,0.03,0,0.04
			C1211.34,242.64,1219.53,250.82,1229.63,250.82z"/>
		<circle style="fill:#EB9877;" cx="1206.61" cy="198.07" r="7.44"/>
		<path style="fill:#C4E6E0;" d="M1180.99,204.59c1.04,1.04-0.31,4.07-1.35,5.1c-1.04,1.04-2.72,1.04-3.76,0
			c-1.04-1.04-1.04-2.72,0-3.76C1176.92,204.91,1179.95,203.56,1180.99,204.59z M1180.99,193.98c1.04-1.04-0.31-4.07-1.35-5.1
			c-1.04-1.04-2.72-1.04-3.76,0c-1.04,1.04-1.04,2.72,0,3.76C1176.92,193.66,1179.95,195.01,1180.99,193.98z M1176.11,199.29
			c0-1.47-3.1-2.66-4.56-2.66s-2.66,1.19-2.66,2.66c0,1.47,1.19,2.66,2.66,2.66S1176.11,200.75,1176.11,199.29z"/>
	</g>
</g>
<g>
	<g>
		<path style="fill:#00A79D;" d="M799.88,426.16c-1.78,0-3.28-0.62-4.53-1.86c-1.24-1.24-1.86-2.75-1.86-4.51v-14.57
			c0-1.78,0.62-3.28,1.88-4.53c1.25-1.24,2.76-1.86,4.52-1.86c1.78,0,3.28,0.62,4.52,1.88c1.24,1.25,1.85,2.76,1.85,4.52v3.05h-4.18
			v-3.13c0-0.64-0.23-1.19-0.68-1.64c-0.45-0.45-1-0.68-1.64-0.68c-0.64,0-1.18,0.23-1.63,0.68c-0.45,0.45-0.67,1-0.67,1.64v14.62
			c0,0.64,0.22,1.18,0.67,1.63c0.45,0.45,0.99,0.67,1.63,0.67c0.64,0,1.19-0.22,1.64-0.67c0.46-0.45,0.68-0.99,0.68-1.63v-3.69h4.18
			v3.73c0,1.78-0.62,3.28-1.88,4.52S801.62,426.16,799.88,426.16z"/>
		<path style="fill:#00A79D;" d="M813.58,414.51v11.31h-4.03v-26.7h4.03v11.33h4.86v-11.33h4.03v26.7h-4.03v-11.31H813.58z"/>
		<path style="fill:#00A79D;" d="M826.06,425.82V399.1h11.46v4.05h-7.44v7.29h5.43v4.05h-5.43v7.29h7.44v4.05H826.06z"/>
		<path style="fill:#00A79D;" d="M853.61,419.17c0.03,1.86-0.46,3.45-1.45,4.77c-0.65,0.9-1.58,1.53-2.77,1.9
			c-0.64,0.2-1.38,0.3-2.24,0.3c-1.58,0-2.88-0.39-3.92-1.17c-0.87-0.64-1.55-1.51-2.06-2.61c-0.5-1.1-0.8-2.36-0.88-3.78l3.84-0.28
			c0.17,1.56,0.58,2.68,1.24,3.38c0.48,0.53,1.04,0.78,1.66,0.75c0.88-0.03,1.58-0.46,2.11-1.3c0.27-0.41,0.41-1,0.41-1.77
			c0-1.11-0.5-2.21-1.51-3.31c-0.79-0.75-1.99-1.88-3.58-3.39c-1.33-1.29-2.28-2.45-2.83-3.48c-0.6-1.15-0.89-2.4-0.89-3.75
			c0-2.43,0.82-4.27,2.45-5.52c1.01-0.75,2.26-1.13,3.75-1.13c1.43,0,2.66,0.32,3.69,0.96c0.8,0.5,1.44,1.19,1.93,2.09
			c0.49,0.9,0.78,1.93,0.88,3.09l-3.86,0.7c-0.11-1.09-0.43-1.95-0.94-2.56c-0.37-0.44-0.9-0.66-1.6-0.66
			c-0.74,0-1.3,0.33-1.68,0.98c-0.31,0.53-0.47,1.18-0.47,1.96c0,1.22,0.53,2.46,1.58,3.73c0.4,0.48,0.99,1.05,1.79,1.7
			c0.94,0.78,1.55,1.33,1.85,1.64c0.99,0.99,1.76,1.97,2.3,2.94c0.26,0.45,0.46,0.87,0.62,1.26
			C853.4,417.57,853.6,418.42,853.61,419.17z"/>
		<path style="fill:#00A79D;" d="M860.66,403.17h-4.28v-4.05h12.57v4.05h-4.26v22.65h-4.03V403.17z"/>
		<path style="fill:#00A79D;" d="M880.84,399.12c1.96,0,3.52,0.62,4.69,1.85c1.08,1.18,1.62,2.68,1.62,4.52v3.88
			c0,1.76-0.61,3.27-1.84,4.52c-1.23,1.25-2.72,1.88-4.46,1.88h-2.32v10.06h-4.03v-26.7H880.84z M883.25,405.56
			c0-0.7-0.21-1.26-0.63-1.68c-0.42-0.43-0.98-0.64-1.67-0.64h-2.43v8.54h2.43c0.64,0,1.18-0.23,1.63-0.68
			c0.45-0.45,0.67-1,0.67-1.64V405.56z"/>
		<path style="fill:#00A79D;" d="M892.96,419.69l-0.98,6.14h-4.19l4.54-26.7h5.54l4.47,26.7h-4.23l-0.94-6.14H892.96z
			 M895.08,405.24l-1.49,10.53h2.98L895.08,405.24z"/>
		<path style="fill:#00A79D;" d="M909.75,425.82h-4.03v-26.7h4.03V425.82z"/>
		<path style="fill:#00A79D;" d="M917.88,399.1l5.34,17.96V399.1h4.03v26.72h-4.33l-5.54-17.11v17.11h-4.03V399.1H917.88z"/>
	</g>
	<g>
		<path style="fill:#F7C297;" d="M897.09,173.36c0-5.03-4.08-9.11-9.11-9.11c0-9.59-7.77-17.36-17.36-17.36h-54.95v50.01
			c0,14.86,11.44,27.05,25.99,28.25c0.78,0.06,1.56,0.11,2.36,0.11h13.7c7.49,0,14.51-2,20.58-5.48c6.45-3.7,11.8-9.08,15.47-15.55
			c-0.75,0.07-1.51,0.11-2.28,0.11h-3.5v-21.87C893.02,182.46,897.09,178.39,897.09,173.36z"/>
		<path style="fill:#333333;" d="M887.99,164.25c5.03,0,9.11,4.08,9.11,9.11s-4.08,9.11-9.11,9.11v21.87h3.5
			c0.77,0,1.53-0.04,2.28-0.11c12.18-1.15,21.72-11.4,21.72-23.89v-27.53c0-25.64-20.79-46.43-46.43-46.43h-35.52
			c-4.43-4.85-10.78-7.91-17.86-7.91c-13.37,0-24.21,10.84-24.21,24.21s10.84,24.21,24.21,24.21h54.95
			C880.22,146.89,887.99,154.66,887.99,164.25z"/>
		<path style="fill:#333333;" d="M832.8,158.84c-0.41-1.47-1.93-2.33-3.4-1.93l-10.44,2.88c-1.47,0.41-2.33,1.93-1.93,3.4
			s1.93,2.33,3.4,1.93l10.44-2.88C832.34,161.83,833.2,160.31,832.8,158.84z"/>
		<path style="fill:#333333;" d="M846.43,162.24l10.44,2.88c1.47,0.41,2.99-0.46,3.4-1.93c0.41-1.47-0.46-2.99-1.93-3.4l-10.44-2.88
			c-1.47-0.41-2.99,0.46-3.4,1.93C844.1,160.31,844.96,161.83,846.43,162.24z"/>
		<path style="fill:#333333;" d="M827.28,168.93h-4.72c-1.52,0-2.76,1.24-2.76,2.76c0,1.52,1.24,2.76,2.76,2.76h4.72
			c1.52,0,2.76-1.24,2.76-2.76C830.04,170.16,828.8,168.93,827.28,168.93z"/>
		<path style="fill:#333333;" d="M854.75,174.45c1.52,0,2.76-1.24,2.76-2.76c0-1.52-1.24-2.76-2.76-2.76h-4.72
			c-1.52,0-2.76,1.24-2.76,2.76c0,1.52,1.24,2.76,2.76,2.76H854.75z"/>
		<path style="fill:#EB9877;" d="M859.99,250.82c10.1,0,18.29-8.18,18.31-18.28c0-0.01,0-0.03,0-0.04v-12.73
			c-6.06,3.48-13.08,5.48-20.58,5.48h-13.7c-0.8,0-1.58-0.04-2.36-0.11v7.35c0,0.01,0,0.03,0,0.04
			C841.69,242.64,849.88,250.82,859.99,250.82z"/>
		<path style="fill:#F7C297;" d="M889.88,270.06v65.22v12.83c0,9.11,7.39,16.5,16.5,16.5s16.5-7.39,16.5-16.5v-78.05H889.88z"/>
		<circle style="fill:#EB9877;" cx="836.97" cy="198.07" r="4.32"/>
		<path style="fill:#EF4136;" d="M876.49,291.07c0,9.11-7.39,16.5-16.5,16.5l0,0H835.6l0.22,2.05l3.07,2.55l4.73,0.23l5.07-1.75
			l3.37-0.44l1.76,3.86l3.29-1.19l2.88,5.08l2.84-5.37l4.61,6.28l2.15-4.62l1.42-4.09l1.66-2.57l7.95,4.1l2.94-2.54l-4.09-6.84
			l6.47-0.49l0.6-3.64l-6.12-4.42l0.71-2.7l7.02-3.7l-4.58-2.62l2.84-4.63l-8.41,0.55l3.88-6.41l-3.81-1.28l-1.34-3.74l-6.49,4.05
			l-0.65-5.41l-2.22-4.37l-4.48,5.52l-2.91-1.46l-2.82,2.11l-2.95-0.15l-4.17-2.48l-5.11-2.06l-1.5,4.5l-3.56,1.46l-3.67,1.87
			l0.83,1.76h22.97C869.1,274.57,876.49,281.96,876.49,291.07z"/>
		<path style="fill:#F7C297;" d="M835.6,307.57h24.39l0,0c9.11,0,16.5-7.39,16.5-16.5c0-9.11-7.39-16.5-16.5-16.5h-22.97h-6.93
			v-4.52h-33v21.02c0,9.11,7.39,16.5,16.5,16.5h16.5H835.6z"/>
		<path style="fill:#00A79D;" d="M906.38,232.54H878.3c-0.02,10.1-8.21,18.28-18.31,18.28s-18.29-8.18-18.31-18.28h-28.08
			c-3.42,0-6.59,1.04-9.23,2.82c-4.39,2.97-7.27,7.99-7.27,13.68v21.02h33v4.52h6.93l-0.83-1.76l3.67-1.87l3.56-1.46l1.5-4.5
			l5.11,2.06l4.17,2.48l2.95,0.15l2.82-2.11l2.91,1.46l4.48-5.52l2.22,4.37l0.65,5.41l6.49-4.05l1.34,3.74l3.81,1.28l-3.88,6.41
			l8.41-0.55l-2.84,4.63l4.58,2.62l-7.02,3.7l-0.71,2.7l6.12,4.42l-0.6,3.64l-6.47,0.49l4.09,6.84l-2.94,2.54l-7.95-4.1l-1.66,2.57
			l-1.42,4.09l-2.15,4.62l-4.61-6.28l-2.84,5.37l-2.88-5.08l-3.29,1.19l-1.76-3.86l-3.37,0.44l-5.07,1.75l-4.73-0.23l-3.07-2.55
			l-0.22-2.05h-5.51h-16.5v27.7h76.29v-65.22h33v-21.02C922.88,239.93,915.49,232.54,906.38,232.54z"/>
	</g>
</g>
<g>
	<g>
		<path style="fill:#00A79D;" d="M784.25,838.54c0.03,1.86-0.45,3.45-1.45,4.77c-0.65,0.89-1.58,1.53-2.77,1.9
			c-0.64,0.2-1.38,0.3-2.24,0.3c-1.58,0-2.88-0.39-3.92-1.17c-0.87-0.64-1.55-1.51-2.06-2.61c-0.5-1.1-0.8-2.36-0.88-3.78l3.83-0.28
			c0.17,1.56,0.58,2.68,1.24,3.38c0.48,0.53,1.04,0.78,1.66,0.75c0.88-0.03,1.58-0.46,2.11-1.3c0.27-0.41,0.41-1,0.41-1.77
			c0-1.11-0.5-2.21-1.51-3.31c-0.8-0.75-1.99-1.88-3.58-3.39c-1.33-1.29-2.28-2.45-2.83-3.48c-0.6-1.15-0.9-2.4-0.9-3.75
			c0-2.43,0.82-4.27,2.45-5.52c1.01-0.75,2.26-1.13,3.75-1.13c1.43,0,2.66,0.32,3.69,0.96c0.79,0.5,1.44,1.19,1.93,2.09
			c0.49,0.9,0.79,1.93,0.88,3.09l-3.86,0.7c-0.11-1.09-0.43-1.95-0.94-2.56c-0.37-0.44-0.9-0.66-1.6-0.66
			c-0.74,0-1.3,0.33-1.68,0.98c-0.31,0.53-0.47,1.18-0.47,1.96c0,1.22,0.53,2.46,1.58,3.73c0.4,0.48,0.99,1.05,1.79,1.7
			c0.94,0.78,1.56,1.33,1.85,1.64c0.99,0.99,1.76,1.97,2.3,2.94c0.25,0.46,0.46,0.87,0.62,1.26
			C784.04,836.93,784.24,837.79,784.25,838.54z"/>
		<path style="fill:#00A79D;" d="M791.62,833.87v11.31h-4.03v-26.7h4.03v11.33h4.86v-11.33h4.03v26.7h-4.03v-11.31H791.62z"/>
		<path style="fill:#00A79D;" d="M810.44,818.15c1.78,0,3.28,0.63,4.53,1.88c1.24,1.25,1.87,2.76,1.87,4.52v14.57
			c0,1.78-0.63,3.28-1.88,4.53c-1.25,1.24-2.76,1.86-4.52,1.86c-1.78,0-3.28-0.62-4.52-1.88c-1.24-1.25-1.85-2.76-1.85-4.52v-14.57
			c0-1.78,0.62-3.28,1.88-4.53S808.69,818.15,810.44,818.15z M812.63,824.46c0-0.64-0.22-1.18-0.67-1.63
			c-0.45-0.45-0.99-0.67-1.63-0.67s-1.19,0.22-1.64,0.67c-0.46,0.45-0.68,0.99-0.68,1.63v14.62c0,0.64,0.23,1.18,0.68,1.63
			c0.45,0.45,1,0.67,1.64,0.67s1.18-0.22,1.63-0.67s0.67-0.99,0.67-1.63V824.46z"/>
		<path style="fill:#00A79D;" d="M826.74,818.49c2.24,0,3.89,0.62,4.94,1.85c0.92,1.08,1.38,2.58,1.38,4.52v3.88
			c0,1.89-0.72,3.49-2.15,4.79l2.98,11.66h-4.36l-2.44-10.06c-0.11,0-0.23,0-0.36,0h-2.32v10.06h-4.03v-26.7H826.74z M829.15,824.92
			c0-1.55-0.77-2.32-2.3-2.32h-2.43v8.54h2.43c0.64,0,1.18-0.23,1.63-0.68c0.45-0.45,0.67-1,0.67-1.64V824.92z"/>
		<path style="fill:#00A79D;" d="M840.31,822.54h-4.28v-4.05h12.57v4.05h-4.26v22.65h-4.03V822.54z"/>
		<path style="fill:#00A79D;" d="M856.36,818.47l5.34,17.96v-17.96h4.03v26.72h-4.33l-5.54-17.11v17.11h-4.03v-26.72H856.36z"/>
		<path style="fill:#00A79D;" d="M869.33,845.19v-26.72h11.46v4.05h-7.44v7.29h5.43v4.05h-5.43v7.29h7.44v4.05H869.33z"/>
		<path style="fill:#00A79D;" d="M896.88,838.54c0.03,1.86-0.45,3.45-1.45,4.77c-0.65,0.89-1.58,1.53-2.77,1.9
			c-0.64,0.2-1.38,0.3-2.24,0.3c-1.58,0-2.88-0.39-3.92-1.17c-0.87-0.64-1.55-1.51-2.06-2.61c-0.5-1.1-0.8-2.36-0.88-3.78l3.83-0.28
			c0.17,1.56,0.58,2.68,1.24,3.38c0.48,0.53,1.04,0.78,1.66,0.75c0.88-0.03,1.58-0.46,2.11-1.3c0.27-0.41,0.41-1,0.41-1.77
			c0-1.11-0.5-2.21-1.51-3.31c-0.8-0.75-1.99-1.88-3.58-3.39c-1.33-1.29-2.28-2.45-2.83-3.48c-0.6-1.15-0.9-2.4-0.9-3.75
			c0-2.43,0.82-4.27,2.45-5.52c1.01-0.75,2.26-1.13,3.75-1.13c1.43,0,2.66,0.32,3.69,0.96c0.79,0.5,1.44,1.19,1.93,2.09
			c0.49,0.9,0.79,1.93,0.88,3.09l-3.86,0.7c-0.11-1.09-0.43-1.95-0.94-2.56c-0.37-0.44-0.9-0.66-1.6-0.66
			c-0.74,0-1.3,0.33-1.68,0.98c-0.31,0.53-0.47,1.18-0.47,1.96c0,1.22,0.53,2.46,1.58,3.73c0.4,0.48,0.99,1.05,1.79,1.7
			c0.94,0.78,1.56,1.33,1.85,1.64c0.99,0.99,1.76,1.97,2.3,2.94c0.25,0.46,0.46,0.87,0.62,1.26
			C896.67,836.93,896.87,837.79,896.88,838.54z"/>
		<path style="fill:#00A79D;" d="M912.97,838.54c0.03,1.86-0.46,3.45-1.45,4.77c-0.65,0.89-1.58,1.53-2.77,1.9
			c-0.64,0.2-1.38,0.3-2.24,0.3c-1.58,0-2.88-0.39-3.92-1.17c-0.87-0.64-1.55-1.51-2.06-2.61c-0.5-1.1-0.8-2.36-0.88-3.78l3.84-0.28
			c0.17,1.56,0.58,2.68,1.24,3.38c0.48,0.53,1.04,0.78,1.66,0.75c0.88-0.03,1.58-0.46,2.11-1.3c0.27-0.41,0.41-1,0.41-1.77
			c0-1.11-0.5-2.21-1.51-3.31c-0.79-0.75-1.99-1.88-3.58-3.39c-1.33-1.29-2.28-2.45-2.83-3.48c-0.6-1.15-0.89-2.4-0.89-3.75
			c0-2.43,0.82-4.27,2.45-5.52c1.01-0.75,2.26-1.13,3.75-1.13c1.43,0,2.66,0.32,3.69,0.96c0.8,0.5,1.44,1.19,1.93,2.09
			c0.49,0.9,0.78,1.93,0.88,3.09l-3.86,0.7c-0.11-1.09-0.43-1.95-0.94-2.56c-0.37-0.44-0.9-0.66-1.6-0.66
			c-0.74,0-1.3,0.33-1.68,0.98c-0.31,0.53-0.47,1.18-0.47,1.96c0,1.22,0.53,2.46,1.58,3.73c0.4,0.48,0.99,1.05,1.79,1.7
			c0.94,0.78,1.55,1.33,1.85,1.64c0.99,0.99,1.76,1.97,2.3,2.94c0.26,0.46,0.46,0.87,0.62,1.26
			C912.75,836.93,912.95,837.79,912.97,838.54z"/>
		<path style="fill:#00A79D;" d="M924.88,818.15c1.78,0,3.28,0.63,4.53,1.88c1.24,1.25,1.86,2.76,1.86,4.52v14.57
			c0,1.78-0.62,3.28-1.88,4.53s-2.76,1.86-4.52,1.86c-1.78,0-3.28-0.62-4.52-1.88c-1.24-1.25-1.85-2.76-1.85-4.52v-14.57
			c0-1.78,0.62-3.28,1.88-4.53S923.13,818.15,924.88,818.15z M927.07,824.46c0-0.64-0.22-1.18-0.67-1.63
			c-0.45-0.45-0.99-0.67-1.63-0.67c-0.64,0-1.19,0.22-1.64,0.67c-0.45,0.45-0.68,0.99-0.68,1.63v14.62c0,0.64,0.23,1.18,0.68,1.63
			c0.46,0.45,1,0.67,1.64,0.67c0.64,0,1.18-0.22,1.63-0.67c0.45-0.45,0.67-0.99,0.67-1.63V824.46z"/>
		<path style="fill:#00A79D;" d="M938.83,845.19h-4.03v-26.72h11.46v4.05h-7.44v7.29h5.43v4.05h-5.43V845.19z"/>
		<path style="fill:#00A79D;" d="M814.41,881.19v-26.72h6.03c1.59,0,3.03,0.42,4.3,1.26c1.09,0.71,1.88,1.81,2.34,3.3
			c0.26,0.8,0.38,1.74,0.38,2.83c0,1.79-0.48,3.22-1.43,4.3c-0.4,0.46-0.87,0.8-1.41,1.04c0.9,0.34,1.65,1.02,2.28,2.02
			c0.41,0.68,0.72,1.56,0.92,2.64c0.1,0.55,0.15,1.17,0.15,1.85c0,1.69-0.32,3.13-0.96,4.3c-0.5,0.92-1.2,1.66-2.11,2.22
			c-1.02,0.62-2.04,0.94-3.05,0.94H814.41z M818.76,865.38h1.68c1.25,0,2.09-0.61,2.51-1.83c0.16-0.45,0.23-1.01,0.23-1.68
			c0-1.11-0.27-1.95-0.81-2.51c-0.5-0.53-1.14-0.79-1.94-0.79h-1.68V865.38z M818.76,877.2h1.68c1.36,0,2.31-0.7,2.83-2.11
			c0.18-0.48,0.28-1.04,0.28-1.66c0-1.49-0.28-2.58-0.85-3.26c-0.51-0.62-1.26-0.94-2.26-0.94h-1.68V877.2z"/>
		<path style="fill:#00A79D;" d="M837.83,854.49c2.24,0,3.89,0.62,4.94,1.85c0.92,1.08,1.38,2.58,1.38,4.52v3.88
			c0,1.89-0.72,3.49-2.15,4.79l2.98,11.66h-4.36l-2.44-10.06c-0.11,0-0.23,0-0.36,0h-2.32v10.06h-4.03v-26.7H837.83z M840.24,860.92
			c0-1.55-0.77-2.32-2.3-2.32h-2.43v8.54h2.43c0.64,0,1.18-0.23,1.63-0.68c0.45-0.45,0.67-1,0.67-1.64V860.92z"/>
		<path style="fill:#00A79D;" d="M848.44,881.19v-26.72h11.46v4.05h-7.44v7.29h5.43v4.05h-5.43v7.29h7.44v4.05H848.44z"/>
		<path style="fill:#00A79D;" d="M867.84,875.05l-0.98,6.14h-4.19l4.54-26.7h5.54l4.47,26.7h-4.23l-0.94-6.14H867.84z M869.96,860.6
			l-1.49,10.53h2.98L869.96,860.6z"/>
		<path style="fill:#00A79D;" d="M881.12,858.54h-4.28v-4.05h12.57v4.05h-4.26v22.65h-4.03V858.54z"/>
		<path style="fill:#00A79D;" d="M896.68,869.87v11.31h-4.03v-26.7h4.03v11.33h4.86v-11.33h4.03v26.7h-4.03v-11.31H896.68z"/>
	</g>
	<g>
		<path style="fill:#F7C297;" d="M857.73,648.62c7.49,0,14.51-2,20.58-5.48c6.45-3.7,11.8-9.08,15.47-15.55
			c-0.75,0.07-1.51,0.11-2.28,0.11h-3.5v-21.87c5.03,0,9.11-4.08,9.11-9.11c0-5.03-4.08-9.11-9.11-9.11
			c0-9.59-7.77-17.36-17.36-17.36h-54.95v50.01c0,14.86,11.44,27.05,25.99,28.25c0.78,0.06,1.56,0.11,2.36,0.11H857.73z"/>
		<path style="fill:#F7C297;" d="M847.26,595.06c0-1.52,1.24-2.76,2.76-2.76h4.72c1.52,0,2.76,1.24,2.76,2.76
			c0,1.52-1.24,2.76-2.76,2.76h-4.72C848.5,597.82,847.26,596.58,847.26,595.06z"/>
		<path style="fill:#F7C297;" d="M844.5,582.21c0.41-1.47,1.93-2.33,3.4-1.93l10.44,2.88c1.47,0.41,2.33,1.93,1.93,3.4
			c-0.41,1.47-1.93,2.33-3.4,1.93l-10.44-2.88C844.96,585.2,844.1,583.68,844.5,582.21z"/>
		<path style="fill:#F7C297;" d="M827.28,597.82h-4.72c-1.52,0-2.76-1.24-2.76-2.76c0-1.52,1.24-2.76,2.76-2.76h4.72
			c1.52,0,2.76,1.24,2.76,2.76C830.04,596.58,828.8,597.82,827.28,597.82z"/>
		<path style="fill:#F7C297;" d="M830.87,585.6l-10.44,2.88c-1.47,0.41-2.99-0.46-3.4-1.93s0.46-2.99,1.93-3.4l10.44-2.88
			c1.47-0.41,2.99,0.46,3.4,1.93S832.34,585.2,830.87,585.6z"/>
		<circle style="fill:#F7C297;" cx="836.97" cy="621.44" r="4.32"/>
		<path style="fill:#333333;" d="M887.99,587.62c5.03,0,9.11,4.08,9.11,9.11c0,5.03-4.08,9.11-9.11,9.11v21.87h3.5
			c0.77,0,1.53-0.04,2.28-0.11c12.18-1.15,21.72-11.4,21.72-23.89v-27.53c0-25.64-20.79-46.43-46.43-46.43h-35.52
			c-4.43-4.85-10.78-7.91-17.86-7.91c-13.37,0-24.21,10.84-24.21,24.21s10.84,24.21,24.21,24.21h54.95
			C880.22,570.26,887.99,578.03,887.99,587.62z"/>
		<path style="fill:#333333;" d="M832.8,582.21c-0.41-1.47-1.93-2.33-3.4-1.93l-10.44,2.88c-1.47,0.41-2.33,1.93-1.93,3.4
			s1.93,2.33,3.4,1.93l10.44-2.88C832.34,585.2,833.2,583.68,832.8,582.21z"/>
		<path style="fill:#333333;" d="M846.43,585.6l10.44,2.88c1.47,0.41,2.99-0.46,3.4-1.93c0.41-1.47-0.46-2.99-1.93-3.4l-10.44-2.88
			c-1.47-0.41-2.99,0.46-3.4,1.93C844.1,583.68,844.96,585.2,846.43,585.6z"/>
		<path style="fill:#333333;" d="M827.28,592.29h-4.72c-1.52,0-2.76,1.24-2.76,2.76c0,1.52,1.24,2.76,2.76,2.76h4.72
			c1.52,0,2.76-1.24,2.76-2.76C830.04,593.53,828.8,592.29,827.28,592.29z"/>
		<path style="fill:#333333;" d="M854.75,597.82c1.52,0,2.76-1.24,2.76-2.76c0-1.52-1.24-2.76-2.76-2.76h-4.72
			c-1.52,0-2.76,1.24-2.76,2.76c0,1.52,1.24,2.76,2.76,2.76H854.75z"/>
		<path style="fill:#EB9877;" d="M859.99,674.18c10.1,0,18.29-8.18,18.31-18.28c0-0.01,0-0.03,0-0.04v-12.73
			c-6.06,3.48-13.08,5.48-20.58,5.48h-13.7c-0.8,0-1.58-0.04-2.36-0.11v7.35c0,0.01,0,0.03,0,0.04
			C841.69,666,849.88,674.18,859.99,674.18z"/>
		<path style="fill:#F7C297;" d="M889.88,693.42v65.22v12.83c0,9.11,7.39,16.5,16.5,16.5s16.5-7.39,16.5-16.5v-78.05H889.88z"/>
		<circle style="fill:#EB9877;" cx="836.97" cy="621.44" r="4.32"/>
		<path style="fill:#F7C297;" d="M859.99,730.94L859.99,730.94c9.11,0,16.5-7.39,16.5-16.5c0-9.11-7.39-16.5-16.5-16.5h-29.9v-4.52
			h-33v21.02c0,9.11,7.39,16.5,16.5,16.5h16.5H859.99z"/>
		<path style="fill:#00A79D;" d="M906.38,655.91H878.3c-0.02,10.1-8.21,18.28-18.31,18.28s-18.29-8.18-18.31-18.28h-28.08
			c-3.42,0-6.59,1.04-9.23,2.82c-0.88,0.59-1.7,1.27-2.44,2.01c-1.49,1.49-2.7,3.27-3.54,5.24c-0.83,1.97-1.3,4.14-1.3,6.42v21.02
			h33v4.52h29.9c9.11,0,16.5,7.39,16.5,16.5c0,9.11-7.39,16.5-16.5,16.5l0,0h-29.89h-16.5v27.7h76.29v-65.22h33v-21.02
			C922.88,663.29,915.49,655.91,906.38,655.91z"/>
		<path style="fill:#E6E6E6;" d="M800.11,624.52c0.37,0.75,0.59,1.59,0.59,2.48c0,3.07-2.49,5.56-5.56,5.56s-5.56-2.49-5.56-5.56
			c-3.07,0-5.56-2.49-5.56-5.56c0-3.07,2.49-5.56,5.56-5.56c0-3.07,2.49-5.56,5.56-5.56s5.56,2.49,5.56,5.56
			c0,0.89-0.22,1.73-0.59,2.48c3.16,1.9,7.56,3.08,12.44,3.08C807.68,621.44,803.27,622.62,800.11,624.52z"/>
	</g>
</g>
<g>
	<g>
		<path style="fill:#00A79D;" d="M1136.95,822.54h-4.28v-4.05h12.57v4.05h-4.26v22.65h-4.03V822.54z"/>
		<path style="fill:#00A79D;" d="M1154.82,818.49c2.24,0,3.89,0.62,4.94,1.85c0.92,1.08,1.38,2.58,1.38,4.52v3.88
			c0,1.89-0.72,3.49-2.15,4.79l2.98,11.66h-4.35l-2.44-10.06c-0.11,0-0.23,0-0.36,0h-2.32v10.06h-4.03v-26.7H1154.82z
			 M1157.23,824.92c0-1.55-0.77-2.32-2.3-2.32h-2.43v8.54h2.43c0.64,0,1.18-0.23,1.63-0.68c0.45-0.45,0.67-1,0.67-1.64V824.92z"/>
		<path style="fill:#00A79D;" d="M1171.12,818.15c1.78,0,3.28,0.63,4.53,1.88c1.24,1.25,1.86,2.76,1.86,4.52v14.57
			c0,1.78-0.62,3.28-1.88,4.53s-2.76,1.86-4.52,1.86c-1.78,0-3.28-0.62-4.52-1.88c-1.24-1.25-1.85-2.76-1.85-4.52v-14.57
			c0-1.78,0.62-3.28,1.88-4.53S1169.37,818.15,1171.12,818.15z M1173.32,824.46c0-0.64-0.22-1.18-0.67-1.63
			c-0.45-0.45-0.99-0.67-1.63-0.67c-0.64,0-1.19,0.22-1.64,0.67c-0.45,0.45-0.68,0.99-0.68,1.63v14.62c0,0.64,0.23,1.18,0.68,1.63
			c0.46,0.45,1,0.67,1.64,0.67c0.64,0,1.18-0.22,1.63-0.67c0.45-0.45,0.67-0.99,0.67-1.63V824.46z"/>
		<path style="fill:#00A79D;" d="M1187.4,845.49c-1.78,0-3.28-0.62-4.52-1.85c-1.24-1.24-1.85-2.73-1.85-4.5v-20.65h3.94v20.6
			c0,0.64,0.23,1.18,0.68,1.63c0.45,0.45,1,0.67,1.64,0.67s1.18-0.22,1.63-0.67s0.67-0.99,0.67-1.63v-20.6h4.2v20.65
			c0,1.79-0.63,3.3-1.88,4.52C1190.67,844.88,1189.16,845.49,1187.4,845.49z"/>
		<path style="fill:#00A79D;" d="M1197.37,845.19v-26.72h6.03c1.59,0,3.03,0.42,4.3,1.26c1.09,0.71,1.88,1.81,2.34,3.3
			c0.26,0.8,0.38,1.74,0.38,2.83c0,1.79-0.48,3.22-1.43,4.3c-0.4,0.46-0.87,0.8-1.41,1.04c0.9,0.34,1.65,1.02,2.28,2.02
			c0.41,0.68,0.72,1.56,0.92,2.64c0.1,0.55,0.15,1.17,0.15,1.85c0,1.69-0.32,3.13-0.96,4.3c-0.5,0.92-1.2,1.66-2.11,2.22
			c-1.02,0.62-2.04,0.94-3.05,0.94H1197.37z M1201.72,829.38h1.68c1.25,0,2.09-0.61,2.51-1.83c0.16-0.45,0.23-1.01,0.23-1.68
			c0-1.11-0.27-1.95-0.81-2.51c-0.5-0.53-1.14-0.79-1.94-0.79h-1.68V829.38z M1201.72,841.2h1.68c1.36,0,2.31-0.7,2.83-2.11
			c0.18-0.48,0.28-1.04,0.28-1.66c0-1.49-0.28-2.58-0.85-3.26c-0.51-0.62-1.26-0.94-2.26-0.94h-1.68V841.2z"/>
		<path style="fill:#00A79D;" d="M1225.41,845.19h-10.97v-26.7h4.03v22.69h6.95V845.19z"/>
		<path style="fill:#00A79D;" d="M1228.18,845.19v-26.72h11.46v4.05h-7.44v7.29h5.43v4.05h-5.43v7.29h7.44v4.05H1228.18z"/>
		<path style="fill:#00A79D;" d="M1261.73,818.49h4.23l-4.18,26.7h-3.83l-2.3-14.69l-2.14,14.69h-3.85l-4.47-26.7h4.22l2.11,14.3
			l1.94-14.3h4.22l2.11,14.28L1261.73,818.49z"/>
		<path style="fill:#00A79D;" d="M1273.37,833.87v11.31h-4.03v-26.7h4.03v11.33h4.86v-11.33h4.03v26.7h-4.03v-11.31H1273.37z"/>
		<path style="fill:#00A79D;" d="M1289.88,845.19h-4.03v-26.7h4.03V845.19z"/>
		<path style="fill:#00A79D;" d="M1304.46,845.19h-10.97v-26.7h4.03v22.69h6.95V845.19z"/>
		<path style="fill:#00A79D;" d="M1307.22,845.19v-26.72h11.46v4.05h-7.44v7.29h5.43v4.05h-5.43v7.29h7.44v4.05H1307.22z"/>
		<path style="fill:#00A79D;" d="M1182.71,874.54c0.03,1.86-0.45,3.45-1.45,4.77c-0.65,0.89-1.58,1.53-2.77,1.9
			c-0.64,0.2-1.38,0.3-2.24,0.3c-1.58,0-2.88-0.39-3.92-1.17c-0.87-0.64-1.55-1.51-2.06-2.61c-0.5-1.1-0.8-2.36-0.88-3.78l3.83-0.28
			c0.17,1.56,0.58,2.68,1.24,3.38c0.48,0.53,1.04,0.78,1.66,0.75c0.88-0.03,1.58-0.46,2.11-1.3c0.27-0.41,0.41-1,0.41-1.77
			c0-1.11-0.5-2.21-1.51-3.31c-0.8-0.75-1.99-1.88-3.58-3.39c-1.33-1.29-2.28-2.45-2.83-3.48c-0.6-1.15-0.9-2.4-0.9-3.75
			c0-2.43,0.82-4.27,2.45-5.52c1.01-0.75,2.26-1.13,3.75-1.13c1.43,0,2.66,0.32,3.69,0.96c0.79,0.5,1.44,1.19,1.93,2.09
			c0.49,0.9,0.79,1.93,0.88,3.09l-3.86,0.7c-0.11-1.09-0.43-1.95-0.94-2.56c-0.37-0.44-0.9-0.66-1.6-0.66
			c-0.74,0-1.3,0.33-1.68,0.98c-0.31,0.53-0.47,1.18-0.47,1.96c0,1.22,0.53,2.46,1.58,3.73c0.4,0.48,0.99,1.05,1.79,1.7
			c0.94,0.78,1.56,1.33,1.85,1.64c0.99,0.99,1.76,1.97,2.3,2.94c0.25,0.46,0.46,0.87,0.62,1.26
			C1182.5,872.93,1182.7,873.79,1182.71,874.54z"/>
		<path style="fill:#00A79D;" d="M1197.03,881.19h-10.97v-26.7h4.03v22.69h6.95V881.19z"/>
		<path style="fill:#00A79D;" d="M1199.8,881.19v-26.72h11.46v4.05h-7.44v7.29h5.43v4.05h-5.43v7.29h7.44v4.05H1199.8z"/>
		<path style="fill:#00A79D;" d="M1214.03,881.19v-26.72h11.46v4.05h-7.44v7.29h5.43v4.05h-5.43v7.29h7.44v4.05H1214.03z"/>
		<path style="fill:#00A79D;" d="M1234.61,854.49c1.96,0,3.52,0.62,4.69,1.85c1.08,1.18,1.62,2.68,1.62,4.52v3.88
			c0,1.76-0.61,3.27-1.84,4.52c-1.23,1.25-2.72,1.88-4.46,1.88h-2.32v10.06h-4.03v-26.7H1234.61z M1237.02,860.92
			c0-0.7-0.21-1.26-0.63-1.68c-0.42-0.43-0.98-0.64-1.67-0.64h-2.43v8.54h2.43c0.64,0,1.18-0.23,1.63-0.68
			c0.45-0.45,0.67-1,0.67-1.64V860.92z"/>
		<path style="fill:#00A79D;" d="M1248.16,881.19h-4.03v-26.7h4.03V881.19z"/>
		<path style="fill:#00A79D;" d="M1256.29,854.47l5.34,17.96v-17.96h4.03v26.72h-4.33l-5.54-17.11v17.11h-4.03v-26.72H1256.29z"/>
		<path style="fill:#00A79D;" d="M1275.58,881.53c-1.78,0-3.28-0.62-4.53-1.88s-1.86-2.75-1.86-4.5v-14.57
			c0-1.78,0.62-3.29,1.88-4.53c1.25-1.24,2.76-1.86,4.52-1.86c1.78,0,3.28,0.62,4.52,1.88c1.24,1.25,1.85,2.76,1.85,4.52v3.05h-4.18
			v-3.13c0-0.64-0.23-1.19-0.68-1.64c-0.45-0.45-1-0.68-1.64-0.68c-0.64,0-1.18,0.23-1.63,0.68c-0.45,0.46-0.67,1-0.67,1.64v14.62
			c0,0.64,0.22,1.18,0.67,1.63c0.45,0.45,0.99,0.67,1.63,0.67c0.64,0,1.19-0.22,1.64-0.67c0.46-0.45,0.68-0.99,0.68-1.63v-5.25
			h-2.24v-4.05h6.41v9.33c0,1.78-0.62,3.28-1.88,4.52C1278.83,880.91,1277.33,881.53,1275.58,881.53z"/>
	</g>
	<g>
		<path style="fill:#E6E6E6;" d="M1328.18,566.49v58.5c0,21.82-17.68,39.5-39.5,39.5h-126c-21.82,0-39.5-17.68-39.5-39.5v-58.5
			c0-21.82,17.68-39.5,39.5-39.5h126C1310.49,526.99,1328.18,544.68,1328.18,566.49z"/>
		<g>
			<path style="fill:#333333;" d="M1175.37,621.44c0,0.83-0.67,1.5-1.5,1.5h-14.33c-0.83,0-1.5-0.67-1.5-1.5
				c0-0.83,0.67-1.5,1.5-1.5h14.33C1174.7,619.94,1175.37,620.61,1175.37,621.44z M1158.97,611.03l14.32,5.93
				c0.77,0.32,1.64-0.05,1.96-0.81s-0.05-1.64-0.81-1.96l-14.33-5.93c-0.77-0.32-1.64,0.05-1.96,0.81S1158.21,610.72,1158.97,611.03
				z M1173.3,625.91l-14.32,5.93c-0.77,0.32-1.13,1.19-0.81,1.96s1.19,1.13,1.96,0.81l14.33-5.93c0.77-0.32,1.13-1.19,0.81-1.96
				S1174.06,625.59,1173.3,625.91z"/>
			<path style="fill:#F7C297;" d="M1262.84,596.72c0-5.03-4.08-9.11-9.11-9.11c0-9.59-7.77-17.36-17.36-17.36h-54.95v50.01
				c0,14.86,11.44,27.05,25.99,28.25c0.78,0.06,1.56,0.11,2.36,0.11h13.7c7.49,0,14.51-2,20.58-5.48c6.45-3.7,11.8-9.08,15.47-15.55
				c-0.75,0.07-1.51,0.11-2.28,0.11h-3.5v-21.87C1258.77,605.83,1262.84,601.75,1262.84,596.72z"/>
			<path style="fill:#333333;" d="M1253.74,587.62c5.03,0,9.11,4.08,9.11,9.11c0,5.03-4.08,9.11-9.11,9.11v21.87h3.5
				c0.77,0,1.53-0.04,2.28-0.11c12.18-1.15,21.72-11.4,21.72-23.89v-27.53c0-25.64-20.79-46.43-46.43-46.43h-35.52
				c-4.43-4.85-10.78-7.91-17.86-7.91c-13.37,0-24.21,10.84-24.21,24.21s10.84,24.21,24.21,24.21h54.95
				C1245.97,570.26,1253.74,578.03,1253.74,587.62z"/>
			<path style="fill:#333333;" d="M1198.55,582.21c-0.41-1.47-1.93-2.33-3.4-1.93l-10.44,2.88c-1.47,0.41-2.33,1.93-1.93,3.4
				c0.41,1.47,1.93,2.33,3.4,1.93l10.44-2.88C1198.09,585.2,1198.95,583.68,1198.55,582.21z"/>
			<path style="fill:#333333;" d="M1212.18,585.6l10.44,2.88c1.47,0.41,2.99-0.46,3.4-1.93c0.41-1.47-0.46-2.99-1.93-3.4
				l-10.44-2.88c-1.47-0.41-2.99,0.46-3.4,1.93C1209.85,583.68,1210.71,585.2,1212.18,585.6z"/>
			<path style="fill:#333333;" d="M1193.03,592.29h-4.72c-1.52,0-2.76,1.24-2.76,2.76c0,1.52,1.24,2.76,2.76,2.76h4.72
				c1.52,0,2.76-1.24,2.76-2.76C1195.79,593.53,1194.55,592.29,1193.03,592.29z"/>
			<path style="fill:#333333;" d="M1220.5,597.82c1.52,0,2.76-1.24,2.76-2.76c0-1.52-1.24-2.76-2.76-2.76h-4.72
				c-1.52,0-2.76,1.24-2.76,2.76c0,1.52,1.24,2.76,2.76,2.76H1220.5z"/>
			<path style="fill:#EB9877;" d="M1225.74,674.18c10.1,0,18.29-8.18,18.31-18.28c0-0.01,0-0.03,0-0.04v-12.73
				c-6.06,3.48-13.08,5.48-20.58,5.48h-13.7c-0.8,0-1.58-0.04-2.36-0.11v7.35c0,0.01,0,0.03,0,0.04
				C1207.44,666,1215.63,674.18,1225.74,674.18z"/>
			<path style="fill:#F7C297;" d="M1255.63,693.42v65.22v12.83c0,9.11,7.39,16.5,16.5,16.5s16.5-7.39,16.5-16.5v-78.05H1255.63z"/>
			<path style="fill:#F7C297;" d="M1162.84,693.42v78.05c0,9.11,7.39,16.5,16.5,16.5s16.5-7.39,16.5-16.5v-12.83v-65.22H1162.84z"/>
			<circle style="fill:#EB9877;" cx="1202.71" cy="621.44" r="4.32"/>
			<path style="fill:#00A79D;" d="M1272.13,655.91h-28.08c-0.02,10.1-8.21,18.28-18.31,18.28c-10.1,0-18.29-8.18-18.31-18.28h-28.08
				c-9.11,0-16.5,7.39-16.5,16.5v21.02h33v65.22h59.79v-65.22h33v-21.02C1288.63,663.29,1281.24,655.91,1272.13,655.91z"/>
		</g>
	</g>
</g>
<g>
	<g>
		<path style="fill:#00A79D;" d="M506.66,845.53c-1.78,0-3.28-0.62-4.53-1.86c-1.24-1.24-1.86-2.75-1.86-4.51v-14.57
			c0-1.78,0.62-3.29,1.88-4.53c1.25-1.24,2.76-1.86,4.52-1.86c1.78,0,3.28,0.62,4.52,1.88s1.85,2.76,1.85,4.52v3.05h-4.18v-3.13
			c0-0.64-0.23-1.19-0.68-1.64c-0.45-0.45-1-0.68-1.64-0.68c-0.64,0-1.18,0.23-1.63,0.68c-0.45,0.46-0.67,1-0.67,1.64v14.62
			c0,0.64,0.22,1.18,0.67,1.63c0.45,0.45,0.99,0.67,1.63,0.67c0.64,0,1.19-0.22,1.64-0.67c0.45-0.45,0.68-0.99,0.68-1.63v-3.69h4.18
			v3.73c0,1.78-0.63,3.28-1.88,4.52C509.91,844.91,508.41,845.53,506.66,845.53z"/>
		<path style="fill:#00A79D;" d="M522.64,818.15c1.78,0,3.28,0.63,4.53,1.88c1.24,1.25,1.86,2.76,1.86,4.52v14.57
			c0,1.78-0.63,3.28-1.88,4.53c-1.25,1.24-2.76,1.86-4.52,1.86c-1.78,0-3.28-0.62-4.52-1.88s-1.85-2.76-1.85-4.52v-14.57
			c0-1.78,0.62-3.28,1.88-4.53S520.89,818.15,522.64,818.15z M524.84,824.46c0-0.64-0.22-1.18-0.67-1.63
			c-0.45-0.45-0.99-0.67-1.63-0.67c-0.64,0-1.19,0.22-1.64,0.67c-0.45,0.45-0.68,0.99-0.68,1.63v14.62c0,0.64,0.23,1.18,0.68,1.63
			s1,0.67,1.64,0.67c0.64,0,1.18-0.22,1.63-0.67c0.45-0.45,0.67-0.99,0.67-1.63V824.46z"/>
		<path style="fill:#00A79D;" d="M543.56,845.19h-10.97v-26.7h4.03v22.69h6.95V845.19z"/>
		<path style="fill:#00A79D;" d="M558.99,838.8c0,1.76-0.62,3.27-1.85,4.52s-2.73,1.88-4.47,1.88h-6.33v-26.72h6.33
			c1.76,0,3.26,0.62,4.49,1.88c1.23,1.25,1.84,2.75,1.84,4.5V838.8z M550.36,841.2h2.43c0.64,0,1.18-0.23,1.62-0.69
			c0.44-0.46,0.66-1,0.66-1.63V824.9c0-0.64-0.22-1.19-0.67-1.64c-0.45-0.45-0.98-0.68-1.61-0.68h-2.43V841.2z"/>
	</g>
	<g>
		<polygon style="fill:#00A79D;" points="534.77,740.44 524.49,740.44 499.73,740.44 483.23,740.44 483.23,758.64 576.03,758.64 
			576.03,740.44 559.53,740.44 		"/>
		<path style="fill:#F7C297;" d="M566.74,596.72c0-5.03-4.08-9.11-9.11-9.11c0-9.59-7.77-17.36-17.36-17.36h-54.95v50.01
			c0,14.86,11.44,27.05,25.99,28.25c0.78,0.06,1.56,0.11,2.36,0.11h13.7c7.49,0,14.51-2,20.58-5.48c6.45-3.7,11.8-9.08,15.47-15.55
			c-0.75,0.07-1.51,0.11-2.28,0.11h-3.5v-21.87C562.66,605.83,566.74,601.75,566.74,596.72z"/>
		<path style="fill:#333333;" d="M557.63,587.62c5.03,0,9.11,4.08,9.11,9.11c0,5.03-4.08,9.11-9.11,9.11v21.87h3.5
			c0.77,0,1.53-0.04,2.28-0.11c12.18-1.15,21.72-11.4,21.72-23.89v-27.53c0-25.64-20.79-46.43-46.43-46.43h-35.52
			c-4.43-4.85-10.78-7.91-17.86-7.91c-13.37,0-24.21,10.84-24.21,24.21s10.84,24.21,24.21,24.21h54.95
			C549.86,570.26,557.63,578.03,557.63,587.62z"/>
		<path style="fill:#333333;" d="M502.44,582.21c-0.41-1.47-1.93-2.33-3.4-1.93l-10.44,2.88c-1.47,0.41-2.33,1.93-1.93,3.4
			s1.93,2.33,3.4,1.93l10.44-2.88C501.98,585.2,502.85,583.68,502.44,582.21z"/>
		<path style="fill:#333333;" d="M516.07,585.6l10.44,2.88c1.47,0.41,2.99-0.46,3.4-1.93c0.41-1.47-0.46-2.99-1.93-3.4l-10.44-2.88
			c-1.47-0.41-2.99,0.46-3.4,1.93C513.74,583.68,514.6,585.2,516.07,585.6z"/>
		<path style="fill:#333333;" d="M496.92,592.29h-4.72c-1.52,0-2.76,1.24-2.76,2.76c0,1.52,1.24,2.76,2.76,2.76h4.72
			c1.52,0,2.76-1.24,2.76-2.76C499.68,593.53,498.45,592.29,496.92,592.29z"/>
		<path style="fill:#333333;" d="M524.39,597.82c1.52,0,2.76-1.24,2.76-2.76c0-1.52-1.24-2.76-2.76-2.76h-4.72
			c-1.52,0-2.76,1.24-2.76,2.76c0,1.52,1.24,2.76,2.76,2.76H524.39z"/>
		<path style="fill:#EB9877;" d="M529.63,674.18c10.1,0,18.29-8.18,18.31-18.28c0-0.01,0-0.03,0-0.04v-12.73
			c-6.06,3.48-13.08,5.48-20.58,5.48h-13.7c-0.8,0-1.58-0.04-2.36-0.11v7.35c0,0.01,0,0.03,0,0.04
			C511.34,666,519.53,674.18,529.63,674.18z"/>
		<path style="fill:#F7C297;" d="M583.89,657.9c5.14,2.79,8.64,8.24,8.64,14.51v28.57h-33v6.47h-24.76h-10.28h-24.76v-6.47h-33
			v22.97c0,9.11,7.39,16.5,16.5,16.5h16.5h24.76h10.28h24.76h16.5c9.11,0,16.5-7.39,16.5-16.5v-51.53
			C592.53,666.14,589.03,660.69,583.89,657.9z"/>
		<path style="fill:#F7C297;" d="M579.35,656.24c1.07,0.22,2.11,0.54,3.1,0.96C581.46,656.79,580.42,656.46,579.35,656.24z"/>
		<path style="fill:#F7C297;" d="M577.71,655.99c-0.55-0.06-1.12-0.09-1.69-0.09l0,0C576.59,655.91,577.16,655.94,577.71,655.99z"/>
		<path style="fill:#00A79D;" d="M499.73,700.97v6.47h24.76h10.28h24.76v-6.47h33v-28.57c0-6.26-3.49-11.71-8.64-14.51
			c-0.47-0.25-0.95-0.49-1.44-0.69c-0.99-0.42-2.02-0.74-3.1-0.96c-0.54-0.11-1.08-0.19-1.64-0.25s-1.12-0.09-1.69-0.09l0,0h-28.08
			c-0.02,10.1-8.21,18.28-18.31,18.28c-10.1,0-18.29-8.18-18.31-18.28h-28.08c-9.11,0-16.5,7.39-16.5,16.5v28.57H499.73z"/>
		<circle style="fill:#EB9877;" cx="506.61" cy="621.44" r="4.32"/>
		<path style="fill:#333333;" d="M462.29,740.44c0,1.38-1.12,2.5-2.5,2.5c-1.38,0-2.5-1.12-2.5-2.5c-0.01-1.65-0.3-2.61-0.72-3.49
			c-0.42-0.87-1.06-1.69-1.84-2.79c-0.51-0.73-1.06-1.59-1.52-2.64c-0.61-1.4-1-3.12-1-5.18c-0.01-2.31,0.5-4.2,1.23-5.68
			c0.73-1.49,1.6-2.54,2.23-3.46c0.43-0.61,0.77-1.16,1.03-1.76c0.34-0.8,0.58-1.73,0.59-3.19c-0.01-1.65-0.3-2.61-0.72-3.49
			c-0.42-0.87-1.06-1.69-1.83-2.79c-0.51-0.73-1.06-1.59-1.52-2.64c-0.61-1.4-1-3.12-1-5.17c-0.01-2.31,0.5-4.2,1.23-5.68
			c0.73-1.49,1.6-2.54,2.23-3.46c0.43-0.61,0.77-1.16,1.03-1.76c0.34-0.8,0.58-1.73,0.59-3.19c-0.01-1.65-0.3-2.61-0.72-3.49
			c-0.42-0.87-1.06-1.69-1.83-2.79c-0.51-0.73-1.06-1.59-1.52-2.64c-0.61-1.4-1-3.12-1-5.17c-0.01-2.31,0.5-4.2,1.23-5.68
			c0.73-1.49,1.6-2.54,2.23-3.46c0.43-0.61,0.77-1.16,1.03-1.76c0.34-0.8,0.58-1.73,0.59-3.19c0-1.38,1.12-2.5,2.5-2.5
			c1.38,0,2.5,1.12,2.5,2.5c0.01,2.31-0.5,4.2-1.23,5.68c-0.73,1.49-1.6,2.54-2.23,3.46c-0.43,0.61-0.77,1.16-1.03,1.76
			c-0.34,0.8-0.58,1.73-0.59,3.19c0.01,1.65,0.3,2.61,0.72,3.49c0.42,0.87,1.06,1.69,1.84,2.79c0.51,0.73,1.06,1.59,1.52,2.64
			c0.61,1.4,1,3.12,1,5.17c0.01,2.31-0.5,4.2-1.23,5.68c-0.73,1.49-1.6,2.54-2.23,3.46c-0.43,0.61-0.77,1.16-1.03,1.76
			c-0.34,0.8-0.58,1.73-0.59,3.19c0.01,1.65,0.3,2.61,0.72,3.49c0.42,0.87,1.06,1.69,1.84,2.79c0.51,0.73,1.06,1.59,1.52,2.64
			c0.61,1.4,1,3.12,1,5.17c0.01,2.31-0.5,4.2-1.23,5.68c-0.73,1.49-1.6,2.54-2.23,3.46c-0.43,0.61-0.77,1.16-1.03,1.76
			c-0.34,0.8-0.58,1.73-0.59,3.19c0.01,1.65,0.3,2.61,0.72,3.49c0.42,0.87,1.06,1.69,1.84,2.79c0.51,0.73,1.06,1.59,1.52,2.64
			C461.9,736.67,462.3,738.38,462.29,740.44z M450.98,732.63c-0.77-1.1-1.41-1.92-1.84-2.79c-0.42-0.88-0.72-1.84-0.72-3.49
			c0.01-1.47,0.25-2.39,0.59-3.19c0.26-0.6,0.6-1.15,1.03-1.76c0.63-0.91,1.5-1.97,2.23-3.46c0.73-1.48,1.24-3.37,1.23-5.68
			c0.01-2.06-0.39-3.77-1-5.17c-0.45-1.05-1.01-1.91-1.52-2.64c-0.77-1.1-1.41-1.91-1.84-2.79c-0.42-0.88-0.72-1.84-0.72-3.49
			c0.01-1.47,0.25-2.39,0.59-3.19c0.26-0.6,0.6-1.15,1.03-1.76c0.63-0.91,1.5-1.97,2.23-3.46c0.73-1.48,1.24-3.37,1.23-5.68
			c0.01-2.06-0.39-3.77-1-5.17c-0.45-1.05-1.01-1.91-1.52-2.64c-0.77-1.1-1.41-1.91-1.83-2.79c-0.42-0.88-0.72-1.84-0.72-3.49
			c0.01-1.47,0.25-2.39,0.59-3.19c0.26-0.6,0.6-1.15,1.03-1.76c0.63-0.91,1.5-1.97,2.23-3.46c0.73-1.48,1.24-3.37,1.23-5.68
			c0-1.38-1.12-2.5-2.5-2.5c-1.38,0-2.5,1.12-2.5,2.5c-0.01,1.47-0.25,2.39-0.59,3.19c-0.26,0.6-0.6,1.15-1.03,1.76
			c-0.63,0.91-1.5,1.97-2.23,3.46c-0.73,1.48-1.24,3.37-1.23,5.68c-0.01,2.06,0.39,3.77,1,5.17c0.45,1.05,1.01,1.91,1.52,2.64
			c0.77,1.1,1.41,1.91,1.83,2.79c0.42,0.88,0.72,1.84,0.72,3.49c-0.01,1.47-0.25,2.39-0.59,3.19c-0.26,0.6-0.6,1.15-1.03,1.76
			c-0.63,0.91-1.5,1.97-2.23,3.46c-0.73,1.48-1.24,3.37-1.23,5.68c-0.01,2.06,0.39,3.77,1,5.17c0.45,1.05,1.01,1.91,1.52,2.64
			c0.77,1.1,1.41,1.91,1.84,2.79c0.42,0.88,0.72,1.84,0.72,3.49c-0.01,1.47-0.25,2.39-0.59,3.19c-0.26,0.6-0.6,1.15-1.03,1.76
			c-0.63,0.91-1.5,1.97-2.23,3.46c-0.73,1.48-1.24,3.37-1.23,5.68c-0.01,2.06,0.39,3.78,1,5.18c0.45,1.05,1.01,1.91,1.52,2.64
			c0.77,1.1,1.41,1.92,1.84,2.79c0.42,0.88,0.72,1.84,0.72,3.49c0,1.38,1.12,2.5,2.5,2.5c1.38,0,2.5-1.12,2.5-2.5
			c0.01-2.06-0.39-3.78-1-5.18C452.04,734.22,451.49,733.36,450.98,732.63z"/>
		<path style="fill:#333333;" d="M605.81,732.04c-0.73,1.49-1.6,2.54-2.23,3.46c-0.43,0.61-0.77,1.16-1.03,1.76
			c-0.34,0.8-0.58,1.73-0.59,3.19h0c0,1.38-1.12,2.5-2.5,2.5c-1.38,0-2.5-1.12-2.5-2.5c-0.01-2.31,0.5-4.2,1.23-5.68
			c0.73-1.49,1.6-2.54,2.23-3.46c0.43-0.61,0.77-1.16,1.03-1.76c0.34-0.8,0.58-1.73,0.59-3.19c-0.01-1.65-0.3-2.61-0.72-3.49
			c-0.42-0.87-1.06-1.69-1.83-2.79c-0.51-0.73-1.06-1.59-1.52-2.64c-0.61-1.4-1-3.12-1-5.17c-0.01-2.31,0.5-4.2,1.23-5.68
			c0.73-1.49,1.6-2.54,2.23-3.46c0.43-0.61,0.77-1.16,1.03-1.76c0.34-0.8,0.58-1.73,0.59-3.19c-0.01-1.65-0.3-2.61-0.72-3.49
			c-0.42-0.87-1.06-1.69-1.84-2.79c-0.51-0.73-1.06-1.59-1.52-2.64c-0.61-1.4-1-3.12-1-5.17c-0.01-2.31,0.5-4.2,1.23-5.68
			c0.73-1.49,1.6-2.54,2.23-3.46c0.43-0.61,0.77-1.16,1.03-1.76c0.34-0.8,0.58-1.73,0.59-3.19c-0.01-1.65-0.3-2.61-0.72-3.49
			c-0.42-0.87-1.06-1.69-1.84-2.79c-0.51-0.73-1.06-1.59-1.52-2.64c-0.61-1.4-1-3.12-1-5.18c0-1.38,1.12-2.5,2.5-2.5
			c1.38,0,2.5,1.12,2.5,2.5c0.01,1.65,0.3,2.61,0.72,3.49c0.42,0.87,1.06,1.69,1.84,2.79c0.51,0.73,1.06,1.59,1.52,2.64
			c0.61,1.4,1,3.12,1,5.18c0.01,2.31-0.5,4.2-1.23,5.68c-0.73,1.49-1.6,2.54-2.23,3.46c-0.43,0.61-0.77,1.16-1.03,1.76
			c-0.34,0.8-0.58,1.73-0.59,3.19c0.01,1.65,0.3,2.61,0.72,3.49c0.42,0.87,1.06,1.69,1.84,2.79c0.51,0.73,1.06,1.59,1.52,2.64
			c0.61,1.4,1,3.12,1,5.17c0.01,2.31-0.5,4.2-1.23,5.68c-0.73,1.49-1.6,2.54-2.23,3.46c-0.43,0.61-0.77,1.16-1.03,1.76
			c-0.34,0.8-0.58,1.73-0.59,3.19c0.01,1.65,0.3,2.61,0.72,3.49c0.42,0.87,1.06,1.69,1.83,2.79c0.51,0.73,1.06,1.59,1.52,2.64
			c0.61,1.4,1,3.12,1,5.17C607.05,728.67,606.54,730.55,605.81,732.04z M612.38,707.32c0.63-0.91,1.5-1.97,2.23-3.46
			c0.73-1.48,1.24-3.37,1.23-5.68c0.01-2.06-0.39-3.77-1-5.17c-0.45-1.05-1.01-1.91-1.52-2.64c-0.77-1.1-1.41-1.91-1.84-2.79
			c-0.42-0.88-0.72-1.84-0.72-3.49c0.01-1.47,0.25-2.39,0.59-3.19c0.26-0.6,0.6-1.15,1.03-1.76c0.63-0.91,1.5-1.97,2.23-3.46
			c0.73-1.48,1.24-3.37,1.23-5.68c0.01-2.06-0.39-3.78-1-5.18c-0.45-1.05-1.01-1.91-1.52-2.64c-0.77-1.1-1.41-1.92-1.84-2.79
			c-0.42-0.88-0.72-1.84-0.72-3.49c0-1.38-1.12-2.5-2.5-2.5c-1.38,0-2.5,1.12-2.5,2.5c-0.01,2.06,0.39,3.78,1,5.18
			c0.45,1.05,1.01,1.91,1.52,2.64c0.77,1.1,1.41,1.92,1.84,2.79c0.42,0.88,0.72,1.84,0.72,3.49c-0.01,1.47-0.25,2.39-0.59,3.19
			c-0.26,0.6-0.6,1.15-1.03,1.76c-0.63,0.91-1.5,1.97-2.23,3.46c-0.73,1.48-1.24,3.37-1.23,5.68c-0.01,2.06,0.39,3.77,1,5.17
			c0.45,1.05,1.01,1.91,1.52,2.64c0.77,1.1,1.41,1.91,1.84,2.79c0.42,0.88,0.72,1.84,0.72,3.49c-0.01,1.47-0.25,2.39-0.59,3.19
			c-0.26,0.6-0.6,1.15-1.03,1.76c-0.63,0.91-1.5,1.97-2.23,3.46c-0.73,1.48-1.24,3.37-1.23,5.68c-0.01,2.06,0.39,3.77,1,5.17
			c0.45,1.05,1.01,1.91,1.52,2.64c0.77,1.1,1.41,1.91,1.83,2.79c0.42,0.88,0.72,1.84,0.72,3.49c-0.01,1.47-0.25,2.39-0.59,3.19
			c-0.26,0.6-0.6,1.15-1.03,1.76c-0.63,0.91-1.5,1.97-2.23,3.46c-0.73,1.48-1.24,3.37-1.23,5.68c0,1.38,1.12,2.5,2.5,2.5
			c1.38,0,2.5-1.12,2.5-2.5h0c0.01-1.47,0.25-2.39,0.59-3.19c0.26-0.6,0.6-1.15,1.03-1.76c0.63-0.91,1.5-1.97,2.23-3.46
			c0.73-1.48,1.24-3.37,1.23-5.68c0.01-2.06-0.39-3.77-1-5.17c-0.45-1.05-1.01-1.91-1.52-2.64c-0.77-1.1-1.41-1.91-1.83-2.79
			c-0.42-0.88-0.72-1.84-0.72-3.49c0.01-1.47,0.25-2.39,0.59-3.19C611.62,708.48,611.95,707.93,612.38,707.32z"/>
	</g>
</g>
<g>
	<g>
		<path style="fill:#00A79D;" d="M100.5,845.19h-4.03v-26.72h11.46v4.05h-7.44v7.29h5.43v4.05h-5.43V845.19z"/>
		<path style="fill:#00A79D;" d="M110.7,845.19v-26.72h11.46v4.05h-7.44v7.29h5.43v4.05h-5.43v7.29h7.44v4.05H110.7z"/>
		<path style="fill:#00A79D;" d="M124.93,845.19v-26.72h11.46v4.05h-7.44v7.29h5.43v4.05h-5.43v7.29h7.44v4.05H124.93z"/>
		<path style="fill:#00A79D;" d="M150.14,845.19h-10.97v-26.7h4.03v22.69h6.95V845.19z"/>
		<path style="fill:#00A79D;" d="M156.94,845.19h-4.03v-26.7h4.03V845.19z"/>
		<path style="fill:#00A79D;" d="M165.06,818.47l5.34,17.96v-17.96h4.03v26.72h-4.33l-5.54-17.11v17.11h-4.03v-26.72H165.06z"/>
		<path style="fill:#00A79D;" d="M184.36,845.53c-1.78,0-3.28-0.62-4.53-1.88c-1.24-1.25-1.86-2.75-1.86-4.5v-14.57
			c0-1.78,0.62-3.29,1.88-4.53c1.25-1.24,2.76-1.86,4.52-1.86c1.78,0,3.28,0.62,4.52,1.88s1.85,2.76,1.85,4.52v3.05h-4.18v-3.13
			c0-0.64-0.23-1.19-0.68-1.64c-0.45-0.45-1-0.68-1.64-0.68c-0.64,0-1.18,0.23-1.63,0.68c-0.45,0.46-0.67,1-0.67,1.64v14.62
			c0,0.64,0.22,1.18,0.67,1.63c0.45,0.45,0.99,0.67,1.63,0.67c0.64,0,1.19-0.22,1.64-0.67s0.68-0.99,0.68-1.63v-5.25h-2.24v-4.05
			h6.41v9.33c0,1.78-0.63,3.28-1.88,4.52C187.6,844.91,186.1,845.53,184.36,845.53z"/>
		<path style="fill:#00A79D;" d="M200.55,822.54h-4.28v-4.05h12.57v4.05h-4.26v22.65h-4.03V822.54z"/>
		<path style="fill:#00A79D;" d="M216.1,845.19h-4.03v-26.7h4.03V845.19z"/>
		<path style="fill:#00A79D;" d="M226.05,818.49c2.24,0,3.89,0.62,4.94,1.85c0.92,1.08,1.38,2.58,1.38,4.52v3.88
			c0,1.89-0.72,3.49-2.15,4.79l2.98,11.66h-4.35l-2.44-10.06c-0.11,0-0.23,0-0.36,0h-2.32v10.06h-4.03v-26.7H226.05z M228.46,824.92
			c0-1.55-0.77-2.32-2.3-2.32h-2.43v8.54h2.43c0.64,0,1.18-0.23,1.63-0.68c0.45-0.45,0.67-1,0.67-1.64V824.92z"/>
		<path style="fill:#00A79D;" d="M236.66,845.19v-26.72h11.46v4.05h-7.44v7.29h5.43v4.05h-5.43v7.29h7.44v4.05H236.66z"/>
		<path style="fill:#00A79D;" d="M263.55,838.8c0,1.76-0.62,3.27-1.85,4.52s-2.73,1.88-4.47,1.88h-6.33v-26.72h6.33
			c1.76,0,3.26,0.62,4.49,1.88c1.23,1.25,1.84,2.75,1.84,4.5V838.8z M254.92,841.2h2.43c0.64,0,1.18-0.23,1.62-0.69
			c0.44-0.46,0.66-1,0.66-1.63V824.9c0-0.64-0.22-1.19-0.67-1.64c-0.45-0.45-0.98-0.68-1.61-0.68h-2.43V841.2z"/>
	</g>
	<g>
		<path style="fill:#F7C297;" d="M216.97,596.72c0-5.03-4.08-9.11-9.11-9.11c0-9.59-7.77-17.36-17.36-17.36h-54.95v50.01
			c0,14.86,11.44,27.05,25.99,28.25c0.78,0.06,1.56,0.11,2.36,0.11h13.7c7.49,0,14.51-2,20.58-5.48c6.45-3.7,11.8-9.08,15.47-15.55
			c-0.75,0.07-1.51,0.11-2.28,0.11h-3.5v-21.87C212.89,605.83,216.97,601.75,216.97,596.72z"/>
		<path style="fill:#333333;" d="M207.87,587.62c5.03,0,9.11,4.08,9.11,9.11c0,5.03-4.08,9.11-9.11,9.11v21.87h3.5
			c0.77,0,1.53-0.04,2.28-0.11c12.18-1.15,21.72-11.4,21.72-23.89v-27.53c0-25.64-20.79-46.43-46.43-46.43h-35.52
			c-4.43-4.85-10.78-7.91-17.86-7.91c-13.37,0-24.21,10.84-24.21,24.21s10.84,24.21,24.21,24.21h54.95
			C200.09,570.26,207.87,578.03,207.87,587.62z"/>
		<path style="fill:#333333;" d="M140.31,588.49l10.44-2.88c1.47-0.41,2.33-1.93,1.93-3.4s-1.93-2.33-3.4-1.93l-10.44,2.88
			c-1.47,0.41-2.33,1.93-1.93,3.4S138.84,588.89,140.31,588.49z"/>
		<path style="fill:#333333;" d="M166.31,585.6l10.44,2.88c1.47,0.41,2.99-0.46,3.4-1.93c0.41-1.47-0.46-2.99-1.93-3.4l-10.44-2.88
			c-1.47-0.41-2.99,0.46-3.4,1.93C163.97,583.68,164.84,585.2,166.31,585.6z"/>
		<path style="fill:#333333;" d="M149.92,595.06c0-1.52-1.24-2.76-2.76-2.76h-4.72c-1.52,0-2.76,1.24-2.76,2.76
			c0,1.52,1.24,2.76,2.76,2.76h4.72C148.68,597.82,149.92,596.58,149.92,595.06z"/>
		<path style="fill:#333333;" d="M174.62,592.29h-4.72c-1.52,0-2.76,1.24-2.76,2.76c0,1.52,1.24,2.76,2.76,2.76h4.72
			c1.52,0,2.76-1.24,2.76-2.76C177.38,593.53,176.15,592.29,174.62,592.29z"/>
		<path style="fill:#EB9877;" d="M179.86,674.18c10.1,0,18.29-8.18,18.31-18.28c0-0.01,0-0.03,0-0.04v-12.73
			c-6.06,3.48-13.08,5.48-20.58,5.48h-13.7c-0.8,0-1.58-0.04-2.36-0.11v7.35c0,0.01,0,0.03,0,0.04
			C161.57,666,169.76,674.18,179.86,674.18z"/>
		<path style="fill:#F7C297;" d="M209.76,693.42v65.22v12.83c0,9.11,7.39,16.5,16.5,16.5s16.5-7.39,16.5-16.5v-78.05H209.76z"/>
		<path style="fill:#F7C297;" d="M116.97,693.42v78.05c0,9.11,7.39,16.5,16.5,16.5s16.5-7.39,16.5-16.5v-12.83v-65.22H116.97z"/>
		<path style="fill:#00A79D;" d="M226.26,655.91L226.26,655.91h-28.08c-0.02,10.1-8.21,18.28-18.31,18.28s-18.29-8.18-18.31-18.28
			h-28.08c-9.11,0-16.5,7.39-16.5,16.5v21.02h33v65.22h59.79v-65.22h33v-21.02C242.76,663.29,235.37,655.91,226.26,655.91z"/>
		<path style="fill:#C4E6E0;" d="M202.68,586.96c0,2.69-2.18,4.86-4.86,4.86s-4.86-2.18-4.86-4.86s2.18-8.35,4.86-8.35
			S202.68,584.27,202.68,586.96z M187.33,574.83c-1.9,0-3.43,4-3.43,5.9s1.54,3.43,3.43,3.43s3.43-1.54,3.43-3.43
			S189.23,574.83,187.33,574.83z"/>
		<path style="fill:#EB9877;" d="M166.66,623.31c0.37-0.16,0.66-0.35,0.89-0.51c0.34-0.24,0.54-0.39,0.69-0.46
			c0.16-0.07,0.28-0.12,0.65-0.13c0.83,0,1.5-0.67,1.5-1.5c0-0.83-0.67-1.5-1.5-1.5c-0.68,0-1.29,0.13-1.79,0.35
			c-0.37,0.16-0.66,0.35-0.89,0.51c-0.34,0.24-0.54,0.39-0.69,0.46c-0.16,0.07-0.28,0.12-0.65,0.13c-0.33,0-0.46-0.05-0.6-0.1
			c-0.1-0.04-0.21-0.11-0.36-0.22c-0.23-0.16-0.57-0.44-1.09-0.7c-0.52-0.26-1.2-0.44-1.97-0.43c-0.68,0-1.29,0.13-1.79,0.35
			c-0.37,0.16-0.66,0.35-0.89,0.51c-0.34,0.24-0.54,0.39-0.69,0.46c-0.15,0.07-0.28,0.12-0.65,0.13c-0.32,0-0.46-0.05-0.6-0.1
			c-0.1-0.04-0.21-0.11-0.36-0.22c-0.23-0.16-0.57-0.44-1.09-0.7c-0.52-0.26-1.2-0.44-1.97-0.43c-0.68,0-1.29,0.13-1.79,0.35
			c-0.37,0.16-0.66,0.35-0.89,0.51c-0.34,0.24-0.54,0.39-0.69,0.46c-0.15,0.07-0.28,0.12-0.65,0.13c-0.32,0-0.46-0.05-0.6-0.1
			c-0.1-0.04-0.21-0.11-0.36-0.22c-0.23-0.16-0.57-0.44-1.09-0.7c-0.52-0.26-1.2-0.44-1.97-0.43c-0.83,0-1.5,0.67-1.5,1.5
			c0,0.83,0.67,1.5,1.5,1.5v0c0.32,0,0.46,0.05,0.6,0.1c0.1,0.04,0.21,0.11,0.36,0.22c0.23,0.16,0.57,0.44,1.09,0.7
			c0.52,0.26,1.2,0.44,1.97,0.43c0.68,0,1.29-0.13,1.79-0.35c0.37-0.16,0.66-0.35,0.89-0.51c0.34-0.24,0.54-0.39,0.69-0.46
			c0.15-0.07,0.28-0.12,0.65-0.13c0.32,0,0.46,0.05,0.6,0.1c0.1,0.04,0.21,0.11,0.36,0.22c0.23,0.16,0.57,0.44,1.09,0.7
			c0.52,0.26,1.2,0.44,1.97,0.43c0.68,0,1.29-0.13,1.79-0.35c0.37-0.16,0.66-0.35,0.89-0.51c0.34-0.24,0.54-0.39,0.69-0.46
			c0.15-0.07,0.28-0.12,0.65-0.13c0.33,0,0.46,0.05,0.6,0.1c0.1,0.04,0.21,0.11,0.36,0.22c0.23,0.16,0.57,0.44,1.09,0.7
			c0.52,0.26,1.2,0.44,1.97,0.43C165.55,623.66,166.16,623.53,166.66,623.31z"/>
	</g>
</g>
</svg>
